<svg width="64" height="64" viewBox="0 0 64 64" fill="none" xmlns="http://www.w3.org/2000/svg">
<g clip-path="url(#clip0_1777_10537)">
<path fill-rule="evenodd" clip-rule="evenodd" d="M18.3848 0.045488C18.5916 -0.0924456 18.6618 0.114455 18.5916 0.252389C5.45881 13.5285 8.77649 30.6061 20.5958 38.5575C20.7337 42.4292 22.6 43.3281 23.7067 44.0201C23.9135 42.9833 25.9878 42.6372 26.3337 40.0106C27.0243 34.825 27.1658 29.0175 28.7527 25.0769C26.0567 24.1779 23.9147 21.6892 25.3661 19.2004C27.3703 21.7581 29.6514 20.7213 32.0015 20.7902V63.1002C30.2731 62.9622 27.6472 62.8933 26.3337 60.3344C25.7144 61.2349 24.8838 61.9698 23.9147 62.4747C24.3985 62.7518 24.6755 63.0966 24.6755 63.3071C24.6065 63.514 24.3295 63.6531 23.9147 63.514C22.8781 62.4081 21.8416 62.8231 21.4267 63.86L20.5269 63.9325V63.7946L20.8728 63.6567C20.8473 63.3964 20.8886 63.1339 20.9927 62.894C21.0968 62.6541 21.2603 62.4447 21.4678 62.2856C21.6753 62.1265 21.9199 62.0229 22.1785 61.9847C22.4371 61.9464 22.7012 61.9747 22.9459 62.0669C23.2228 62.1358 23.3607 61.9289 23.2918 61.7208C7.25613 56.9479 -0.834205 42.2912 0.0680236 27.9093C0.0680236 27.7713 0.205915 27.7024 0.205915 27.5632C0.241445 26.2181 0.380138 24.8776 0.620773 23.5537C0.620773 23.4847 0.689716 23.5537 0.689716 23.4847C0.878684 22.0224 1.22625 20.5851 1.72627 19.198C1.79522 19.1291 1.86416 19.1291 1.93311 19.0601C2.5548 17.3312 2.7652 15.4643 3.93727 14.0125C4.00621 13.9435 4.55896 13.6664 4.6279 13.5975C5.46 12.0766 5.80235 10.1408 7.66862 8.48441C7.80651 8.34648 9.33281 7.5165 9.46594 7.37856C12.3688 4.1288 14.1661 2.19297 18.3812 0.0502446L18.3848 0.045488Z" fill="#1C7AB0"/>
<path fill-rule="evenodd" clip-rule="evenodd" d="M23.2983 46.7857C21.6342 45.6109 20.2576 42.4301 20.1186 39.1114C17.6301 36.9343 15.4037 34.4745 13.4844 31.7819V31.7129L13.5533 31.7819C15.693 34.4097 17.9765 37.1054 20.5346 38.6262C20.4357 39.8391 20.6434 41.0574 21.1386 42.1688C21.6338 43.2803 22.4007 44.2493 23.3685 44.9866L23.2995 46.7845L23.2983 46.7857Z" fill="#FEFEFE"/>
<path fill-rule="evenodd" clip-rule="evenodd" d="M19.902 39.386C20.7341 42.9116 21.0075 45.6774 23.4966 47.8903V48.7892C21.7647 47.2684 20.0399 44.0876 19.625 39.248L19.902 39.386Z" fill="#FEFEFE"/>
<path fill-rule="evenodd" clip-rule="evenodd" d="M1.51348 25.3519C2.55004 25.1451 3.72567 27.6331 5.38392 29.7062C6.90427 31.6414 8.56371 33.1617 8.63265 33.4387C8.63265 34.1293 6.42047 32.6779 4.34737 30.3279C2.89595 28.5305 1.16757 26.8033 1.51348 25.3519Z" fill="#FEFEFE"/>
<path fill-rule="evenodd" clip-rule="evenodd" d="M1.24331 28.7394C2.07541 28.3935 3.52444 30.4678 5.25163 32.0571C6.91582 33.5774 8.50037 34.6841 8.63826 34.8909C8.77615 35.5126 6.56515 34.545 4.42192 32.7513C2.83261 31.3688 1.10423 30.1242 1.24212 28.743L1.24331 28.7394Z" fill="#FEFEFE"/>
<path fill-rule="evenodd" clip-rule="evenodd" d="M1.51562 31.5741C2.2764 31.2282 3.6553 32.9566 5.38606 34.2701C6.97536 35.5147 8.49691 36.3432 8.6348 36.5512C8.77269 37.104 6.76852 36.4134 4.69542 34.9619C3.17506 33.7875 1.51562 32.8211 1.51562 31.5741Z" fill="#FEFEFE"/>
<path fill-rule="evenodd" clip-rule="evenodd" d="M1.71875 34.4792C2.34044 33.9954 3.85842 35.24 5.58918 36.1434C7.17848 36.9042 8.76897 37.388 8.90686 37.5259C9.1137 38.0097 7.17848 37.7327 5.17432 36.8352C3.58502 36.1446 1.92559 35.5906 1.71875 34.4851V34.4792Z" fill="#FEFEFE"/>
<path fill-rule="evenodd" clip-rule="evenodd" d="M1.71875 36.3454C2.2715 35.8616 3.85842 36.9671 5.58918 37.653C7.25337 38.2747 8.76897 38.6206 8.90686 38.7585C9.18383 39.1733 7.24267 39.1044 5.17432 38.3436C3.65397 37.7968 1.99572 37.4509 1.71875 36.3454Z" fill="#FEFEFE"/>
<path fill-rule="evenodd" clip-rule="evenodd" d="M2.34375 38.4198C2.75861 37.936 4.27896 38.7657 5.9384 39.2519C7.45876 39.6668 8.84123 39.8736 8.97912 39.9426C9.25608 40.2885 7.5277 40.3574 5.66143 39.8736C4.14108 39.5966 2.68966 39.3898 2.34375 38.4222V38.4198Z" fill="#FEFEFE"/>
<path fill-rule="evenodd" clip-rule="evenodd" d="M2.6875 39.9429C3.10236 39.4591 4.62271 40.1497 6.28215 40.4267C7.80251 40.7036 9.18498 40.7726 9.32287 40.8415C9.59983 41.1185 7.9404 41.3253 6.07413 41.0484C4.55377 40.8403 3.10236 40.775 2.6875 39.9429Z" fill="#FEFEFE"/>
<path fill-rule="evenodd" clip-rule="evenodd" d="M2.96875 41.2539C3.31466 40.7701 4.90396 41.3229 6.5634 41.5999C8.08376 41.8067 9.46622 41.8067 9.60411 41.8768C9.88108 42.1538 8.29654 42.4296 6.35538 42.2227C4.90396 42.0147 3.38361 42.0147 2.96875 41.2539Z" fill="#FEFEFE"/>
<path fill-rule="evenodd" clip-rule="evenodd" d="M3.45312 42.5669C3.79904 42.152 5.38834 42.6358 7.04778 42.7737C8.56814 42.9116 9.9506 42.9116 10.0885 42.9806C10.3655 43.1874 8.78091 43.4644 6.83976 43.2575C5.38834 43.2587 3.93693 43.1898 3.45312 42.5669Z" fill="#FEFEFE"/>
<path fill-rule="evenodd" clip-rule="evenodd" d="M4.07812 44.019C4.42404 43.6042 5.94439 43.9501 7.46475 44.019C8.91616 44.088 10.2297 43.9501 10.3676 44.019C10.6445 44.2259 9.123 44.5028 7.32686 44.5028C5.9444 44.4339 4.56193 44.573 4.07812 44.019Z" fill="#FEFEFE"/>
<path fill-rule="evenodd" clip-rule="evenodd" d="M4.84375 45.4717C5.12072 45.0568 6.71002 45.1947 8.23038 45.1258C9.68179 45.0568 10.9264 44.7799 11.1332 44.8488C11.4791 44.9867 9.95876 45.4705 8.16143 45.6096C6.77897 45.7475 5.32755 45.9555 4.84375 45.4717Z" fill="#FEFEFE"/>
<path fill-rule="evenodd" clip-rule="evenodd" d="M5.25 46.7852C5.52697 46.3703 7.04732 46.3703 8.63663 46.1635C10.088 45.9567 11.3326 45.6797 11.4705 45.6797C11.8164 45.8176 10.365 46.3703 8.56768 46.7162C7.18522 46.9243 5.80275 47.2 5.25 46.7852Z" fill="#FEFEFE"/>
<path fill-rule="evenodd" clip-rule="evenodd" d="M6.28125 47.7532C6.48809 47.3383 7.94544 47.3383 9.3921 47.0625C10.6997 46.8557 11.8801 46.5098 12.0191 46.5098C12.3651 46.6477 10.9826 47.2004 9.32315 47.5463C8.07857 47.8162 6.834 48.1728 6.28125 47.7532Z" fill="#FEFEFE"/>
<path fill-rule="evenodd" clip-rule="evenodd" d="M6.90625 48.8588C7.11309 48.444 8.49555 48.375 9.80907 48.0981C11.0537 47.8211 12.1591 47.4074 12.297 47.4764C12.574 47.6143 11.3294 48.2372 9.80907 48.5819C8.63463 48.8588 7.459 49.2048 6.90625 48.8588Z" fill="#FEFEFE"/>
<path fill-rule="evenodd" clip-rule="evenodd" d="M7.67188 49.97C7.80977 49.5551 9.12328 49.4172 10.3679 49.0713C11.5423 48.7254 12.5075 48.3105 12.649 48.3105C12.926 48.3795 11.8169 49.0713 10.3679 49.5551C9.26117 49.8951 8.15568 50.3789 7.67188 49.97Z" fill="#FEFEFE"/>
<path fill-rule="evenodd" clip-rule="evenodd" d="M8.4375 50.9331C8.57539 50.5182 9.81997 50.3114 10.9944 49.8966C12.0999 49.4817 13.0675 49.0645 13.1341 49.0645C13.4111 49.1334 12.3733 49.8252 10.9944 50.372C9.95786 50.7179 8.9213 51.2041 8.4375 50.9248V50.9331Z" fill="#FEFEFE"/>
<path fill-rule="evenodd" clip-rule="evenodd" d="M9.125 51.8296C9.26289 51.4147 10.4326 51.1389 11.613 50.6551C12.7185 50.2403 13.6171 49.6875 13.7526 49.6875C14.0296 49.7564 12.9919 50.5196 11.6795 51.07C10.6454 51.5562 9.6088 52.1089 9.125 51.8296Z" fill="#FEFEFE"/>
<path fill-rule="evenodd" clip-rule="evenodd" d="M9.8125 52.662C9.88145 52.2471 11.0571 51.9714 12.1626 51.4174C13.1991 50.9336 14.0288 50.3809 14.1667 50.3809C14.4437 50.4498 13.4761 51.213 12.2315 51.8323C11.2639 52.385 10.3652 52.9378 9.8125 52.662Z" fill="#FEFEFE"/>
<path fill-rule="evenodd" clip-rule="evenodd" d="M10.3594 53.5614C10.4283 53.1465 11.604 52.7293 12.7095 52.11C13.746 51.5572 14.5757 50.9355 14.7136 50.9355C14.9906 50.9355 14.0919 51.8342 12.7784 52.5997C11.8797 53.1465 10.9121 53.7682 10.3594 53.5614Z" fill="#FEFEFE"/>
<path fill-rule="evenodd" clip-rule="evenodd" d="M11.2031 54.1823C11.2721 53.7675 12.3776 53.3502 13.4153 52.7309C14.3829 52.1782 15.1437 51.5565 15.2816 51.4863C15.5585 51.4863 14.7288 52.385 13.5532 53.1505C12.5856 53.7033 11.7559 54.3951 11.2031 54.1871V54.1823Z" fill="#FEFEFE"/>
<path fill-rule="evenodd" clip-rule="evenodd" d="M11.75 54.8748C11.75 54.46 12.8555 53.9762 13.8897 53.3545C14.5162 52.9576 15.1166 52.5209 15.687 52.0469C15.964 52.0469 15.1343 52.9455 13.9586 53.7753C13.1325 54.3221 12.3027 55.0127 11.75 54.8748Z" fill="#FEFEFE"/>
<path fill-rule="evenodd" clip-rule="evenodd" d="M12.5781 55.3572C12.5781 54.9424 13.6147 54.4586 14.5133 53.8369C15.3454 53.2152 16.0337 52.5923 16.1026 52.5293C16.3796 52.5293 15.6188 53.428 14.6512 54.2577C13.8905 54.8104 13.1309 55.5022 12.5781 55.3632V55.3572Z" fill="#FEFEFE"/>
<path fill-rule="evenodd" clip-rule="evenodd" d="M13.3438 55.9808C13.3438 55.566 14.3114 55.0132 15.1411 54.3166C15.9018 53.626 16.5235 52.9342 16.6614 52.8652C16.9384 52.8652 16.2466 53.7639 15.279 54.6626C14.5883 55.3532 13.8965 56.045 13.3438 55.9701V55.9808Z" fill="#FEFEFE"/>
<path fill-rule="evenodd" clip-rule="evenodd" d="M13.9531 56.6036C13.9531 56.1888 14.8518 55.636 15.6815 54.8752C16.4423 54.1846 17.064 53.4928 17.2019 53.4238C17.4788 53.4238 16.8559 54.3225 15.8943 55.2212C15.1335 55.9118 14.5118 56.6726 13.9591 56.6036H13.9531Z" fill="#FEFEFE"/>
<path fill-rule="evenodd" clip-rule="evenodd" d="M14.7847 57.2252C14.7158 56.8104 15.6834 56.1887 16.4489 55.4279C17.2145 54.6671 17.7565 53.9765 17.8314 53.9076C18.1084 53.8386 17.4855 54.8752 16.5868 55.7738C15.9651 56.4645 15.3422 57.2942 14.7895 57.2252H14.7847Z" fill="#FEFEFE"/>
<path fill-rule="evenodd" clip-rule="evenodd" d="M15.8322 57.7784C15.7632 57.4324 16.5929 56.7418 17.2836 55.9121C17.6497 55.369 18.0651 54.8609 18.5246 54.3941C18.7314 54.3252 18.3177 55.2928 17.488 56.2604C16.8663 57.0176 16.3076 57.7784 15.8322 57.7784Z" fill="#FEFEFE"/>
<path fill-rule="evenodd" clip-rule="evenodd" d="M16.6606 58.2606C16.5917 57.9147 17.3513 57.2241 17.9682 56.4633C18.5851 55.7025 19.0048 55.0119 19.0737 54.9429C19.2805 54.874 18.8669 55.8416 18.175 56.8092C17.6247 57.4998 17.1361 58.2606 16.6606 58.2606Z" fill="#FEFEFE"/>
<path fill-rule="evenodd" clip-rule="evenodd" d="M17.3445 58.6758C17.2066 58.3299 17.9662 57.6393 18.5891 56.8096C19.1418 56.0488 19.5567 55.2892 19.6256 55.2203C19.8325 55.1513 19.4878 56.1189 18.7936 57.0865C18.3097 57.8473 17.8259 58.6758 17.3421 58.6758H17.3445Z" fill="#FEFEFE"/>
<path fill-rule="evenodd" clip-rule="evenodd" d="M18.0334 59.1595C17.8955 58.8136 18.5862 58.054 19.1389 57.2243C19.6227 56.4635 20.0376 55.635 20.1065 55.5601C20.3134 55.4912 19.9687 56.4588 19.3458 57.4953C18.9309 58.2561 18.5137 59.0846 18.0382 59.1595H18.0334Z" fill="#FEFEFE"/>
<path fill-rule="evenodd" clip-rule="evenodd" d="M18.8008 59.5059C18.6629 59.16 19.2846 58.4694 19.7684 57.6397C20.1832 56.8789 20.5291 56.1193 20.6005 56.0504C20.8073 55.9814 20.5315 56.949 19.9788 57.9166C19.6329 58.6774 19.2881 59.437 18.8043 59.5059H18.8008Z" fill="#FEFEFE"/>
<path fill-rule="evenodd" clip-rule="evenodd" d="M19.4903 59.852C19.3524 59.5751 19.9052 58.7466 20.3224 57.9168C20.7396 57.0871 21.013 56.3275 21.0832 56.2526C21.29 56.1148 21.0832 57.1513 20.5994 58.1189C20.2535 58.951 19.9777 59.7831 19.4939 59.8473L19.4903 59.852Z" fill="#FEFEFE"/>
<path fill-rule="evenodd" clip-rule="evenodd" d="M20.256 60.335C20.1181 60.0581 20.6709 59.2295 21.0168 58.3309C21.3627 57.4988 21.6385 56.7416 21.7074 56.6667C21.9143 56.5288 21.7074 57.5653 21.2926 58.6019C21.0156 59.3627 20.7398 60.1912 20.256 60.3303V60.335Z" fill="#FEFEFE"/>
<path fill-rule="evenodd" clip-rule="evenodd" d="M21.0763 60.6812C20.8695 60.4042 21.4222 59.5757 21.767 58.677C22.0034 58.1189 22.1884 57.5404 22.3197 56.9487C22.5265 56.8108 22.3887 57.7808 22.0427 58.8839C21.6968 59.716 21.49 60.5481 21.0751 60.6812H21.0763Z" fill="#FEFEFE"/>
<path fill-rule="evenodd" clip-rule="evenodd" d="M21.774 60.9581C21.6361 60.6811 22.1199 59.8526 22.5348 58.9539C22.8807 58.1218 23.0875 57.3646 23.1564 57.2897C23.3633 57.1518 23.2254 58.1884 22.8105 59.225C22.4646 59.9857 22.1888 60.8143 21.774 60.9533V60.9581Z" fill="#FEFEFE"/>
<path fill-rule="evenodd" clip-rule="evenodd" d="M22.6021 61.4425C22.4642 61.1655 22.948 60.337 23.3629 59.4383C23.7088 58.6062 23.9156 57.849 23.9846 57.7741C24.1914 57.6362 24.0535 58.6728 23.6386 59.7093C23.2927 60.4701 23.017 61.2986 22.6021 61.4377V61.4425Z" fill="#FEFEFE"/>
<path fill-rule="evenodd" clip-rule="evenodd" d="M23.3677 61.1659C23.2298 60.8889 23.7136 60.2673 24.1285 59.5017C24.4744 58.8111 24.6812 58.1941 24.7502 58.1193C24.8881 58.0503 24.7502 58.88 24.3353 59.7086C24.0584 60.3992 23.7826 61.091 23.3677 61.16V61.1659Z" fill="#FEFEFE"/>
<path fill-rule="evenodd" clip-rule="evenodd" d="M11.6732 30.953C12.0112 31.2534 12.2747 31.6284 12.4426 32.0483C12.6106 32.4682 12.6784 32.9214 12.6408 33.372C12.3639 33.8559 11.5353 33.649 10.7746 32.8193C10.4365 32.5189 10.1731 32.1439 10.0052 31.724C9.83722 31.3041 9.76936 30.8509 9.80696 30.4003C10.0827 29.9153 10.8435 30.1233 11.6732 30.953Z" fill="#FEFEFE"/>
<path fill-rule="evenodd" clip-rule="evenodd" d="M11.059 33.6481C11.35 33.893 11.5819 34.2005 11.7375 34.5475C11.8931 34.8945 11.9684 35.2721 11.9577 35.6523C11.7509 36.0671 11.059 35.9293 10.3684 35.2374C10.0775 34.9925 9.84556 34.6851 9.68996 34.3381C9.53436 33.9911 9.45909 33.6134 9.46974 33.2333C9.67658 32.8184 10.3684 33.0264 11.059 33.6481Z" fill="#FEFEFE"/>
<path fill-rule="evenodd" clip-rule="evenodd" d="M10.8534 36.275C11.6142 36.7588 12.161 37.4494 12.098 37.8643C12.035 38.2791 11.3372 38.2791 10.5776 37.8643C9.81687 37.3805 9.27006 36.6898 9.33306 36.275C9.40201 35.7912 10.0926 35.7912 10.8534 36.275Z" fill="#FEFEFE"/>
<path fill-rule="evenodd" clip-rule="evenodd" d="M10.9215 38.6307C11.6122 38.9076 12.1661 39.4628 12.1661 39.8752C12.1661 40.2877 11.6134 40.3591 10.9215 40.0131C10.2297 39.6672 9.67695 39.181 9.67695 38.7686C9.60919 38.4191 10.2309 38.3501 10.9215 38.6307Z" fill="#FEFEFE"/>
<path fill-rule="evenodd" clip-rule="evenodd" d="M11.6788 40.6328C12.3694 40.6328 12.9863 40.8396 13.1302 41.1856C13.274 41.5315 12.8532 41.8073 12.1626 41.8073C11.4719 41.8073 10.855 41.6004 10.7111 41.2545C10.5733 40.9775 11.0571 40.7018 11.6788 40.6328Z" fill="#FEFEFE"/>
<path fill-rule="evenodd" clip-rule="evenodd" d="M12.1005 42.3608C12.7222 42.2918 13.4081 42.3608 13.6208 42.6378C13.8336 42.9147 13.414 43.1905 12.7222 43.3284C12.1005 43.3973 11.4146 43.3284 11.2018 43.0514C11.0639 42.7756 11.4087 42.4297 12.1005 42.3608Z" fill="#FEFEFE"/>
<path fill-rule="evenodd" clip-rule="evenodd" d="M12.8536 44.2286C13.4753 44.0907 14.0982 44.2286 14.2361 44.5745C14.374 44.8515 14.0292 45.1962 13.4753 45.2652C12.8536 45.403 12.2307 45.2652 12.0928 44.9192C11.9549 44.6435 12.3009 44.2975 12.8536 44.2286Z" fill="#FEFEFE"/>
<path fill-rule="evenodd" clip-rule="evenodd" d="M13.9635 45.6798C14.6542 45.5419 15.4149 45.6798 15.6277 46.0257C15.8345 46.3027 15.4209 46.6474 14.6601 46.7163C13.9695 46.8542 13.2087 46.7163 12.9959 46.3704C12.8557 46.0946 13.2705 45.7487 13.9635 45.6798Z" fill="#FEFEFE"/>
<path fill-rule="evenodd" clip-rule="evenodd" d="M14.589 47.2696C15.2107 47.1317 15.8966 47.2696 16.0404 47.6155C16.2472 47.8925 15.8336 48.2372 15.2083 48.3062C14.5866 48.4441 13.9007 48.3062 13.7569 47.9603C13.5501 47.6833 13.9637 47.3386 14.589 47.2696Z" fill="#FEFEFE"/>
<path fill-rule="evenodd" clip-rule="evenodd" d="M15.3449 48.7217C15.5361 48.5973 15.7513 48.5145 15.9766 48.4789C16.2019 48.4433 16.4322 48.4555 16.6525 48.5149C16.8593 48.7217 16.6525 49.0677 16.1687 49.347C15.9775 49.4715 15.7622 49.5542 15.5369 49.5898C15.3116 49.6255 15.0813 49.6132 14.8611 49.5538C14.6543 49.347 14.8611 49.0011 15.3449 48.7217Z" fill="#FEFEFE"/>
<path fill-rule="evenodd" clip-rule="evenodd" d="M16.1709 49.8975C16.5858 49.5516 17.0696 49.3447 17.3454 49.4826C17.5522 49.6205 17.4833 50.0354 17.0684 50.3813C16.6535 50.7272 16.1697 50.934 15.894 50.7961C15.617 50.7272 15.7561 50.3123 16.1709 49.8975Z" fill="#FEFEFE"/>
<path fill-rule="evenodd" clip-rule="evenodd" d="M17.2164 51.0027C17.5623 50.5878 18.1151 50.312 18.3908 50.4499C18.6666 50.5878 18.5977 51.0027 18.184 51.4175C17.8381 51.8324 17.2853 52.1082 17.0096 51.9703C16.7338 51.8324 16.8015 51.4175 17.2164 51.0027Z" fill="#FEFEFE"/>
<path fill-rule="evenodd" clip-rule="evenodd" d="M18.3162 52.1782C18.5932 51.6944 19.077 51.3462 19.3528 51.4175C19.6285 51.4888 19.6297 51.9013 19.3528 52.3851C19.0758 52.8689 18.592 53.2172 18.3162 53.1459C18.0404 53.0745 18.0404 52.6621 18.3162 52.1782Z" fill="#FEFEFE"/>
<path fill-rule="evenodd" clip-rule="evenodd" d="M19.4157 52.9379C19.6927 52.3852 20.1765 52.0393 20.4522 52.1058C20.728 52.1724 20.7292 52.6586 20.4522 53.1424C20.1753 53.6951 19.6915 54.041 19.4157 53.9745C19.0698 53.9055 19.0698 53.4919 19.4157 52.9379Z" fill="#FEFEFE"/>
<path fill-rule="evenodd" clip-rule="evenodd" d="M20.3943 53.7669C20.6713 53.2831 21.1551 52.8682 21.4998 52.9348C21.7768 53.0037 21.7768 53.4186 21.4998 53.9713C21.2229 54.4551 20.7391 54.87 20.3943 54.8034C20.1186 54.7345 20.1186 54.2507 20.3943 53.7669Z" fill="#FEFEFE"/>
<path fill-rule="evenodd" clip-rule="evenodd" d="M21.285 54.6673C21.5619 54.1835 22.0457 53.7686 22.3215 53.8352C22.5973 53.9017 22.5985 54.319 22.3215 54.8717C22.0446 55.3555 21.5607 55.7704 21.285 55.7038C21.0092 55.6372 21.0092 55.1511 21.285 54.6673Z" fill="#FEFEFE"/>
<path fill-rule="evenodd" clip-rule="evenodd" d="M22.4582 55.2198C22.5961 54.6671 22.942 54.1833 23.219 54.1833C23.4959 54.1143 23.6338 54.5292 23.4959 55.0819C23.358 55.6347 23.0121 56.1185 22.7352 56.1185C22.3869 56.1874 22.3191 55.7726 22.4582 55.2198Z" fill="#FEFEFE"/>
<path fill-rule="evenodd" clip-rule="evenodd" d="M23.5019 55.8415C23.5151 55.6141 23.5852 55.3936 23.7059 55.2004C23.8266 55.0073 23.994 54.8475 24.1926 54.736C24.4695 54.6671 24.6764 55.0819 24.5385 55.6347C24.5254 55.8621 24.4552 56.0825 24.3345 56.2757C24.2139 56.4689 24.0465 56.6286 23.8479 56.7402C23.5709 56.8091 23.433 56.3943 23.5019 55.8415Z" fill="#FEFEFE"/>
<path fill-rule="evenodd" clip-rule="evenodd" d="M24.6094 56.396C24.6094 55.8433 24.8863 55.2906 25.1621 55.2216C25.4379 55.1527 25.6459 55.4986 25.6459 56.0537C25.6459 56.6088 25.369 57.1592 25.0932 57.2281C24.8162 57.3672 24.6094 57.0177 24.6094 56.396Z" fill="#FEFEFE"/>
<path fill-rule="evenodd" clip-rule="evenodd" d="M11.9557 28.8768C12.5085 29.4696 12.8698 30.2153 12.9922 31.0165C12.9233 31.5003 12.4395 31.3624 11.8178 30.6017C11.265 30.0089 10.9037 29.2632 10.7812 28.462C10.8502 27.9782 11.334 28.1161 11.9557 28.8768Z" fill="#FEFEFE"/>
<path fill-rule="evenodd" clip-rule="evenodd" d="M13.9584 33.0959C14.5337 33.495 14.9497 34.0844 15.1329 34.7601C15.2018 35.175 14.718 35.106 14.0963 34.6222C13.521 34.2232 13.1051 33.6338 12.9219 32.958C12.9219 32.5432 13.3367 32.6121 13.9584 33.0959Z" fill="#FEFEFE"/>
<path fill-rule="evenodd" clip-rule="evenodd" d="M13.2709 34.7541C13.8462 35.1532 14.2622 35.7426 14.4454 36.4183C14.5143 36.8332 14.0305 36.7642 13.4088 36.2804C12.8335 35.8814 12.4176 35.292 12.2344 34.6163C12.2344 34.2014 12.7182 34.2703 13.2709 34.7541Z" fill="#FEFEFE"/>
<path fill-rule="evenodd" clip-rule="evenodd" d="M12.9299 36.7649C13.5341 37.1198 14.0163 37.65 14.3123 38.2852C14.3813 38.7001 13.9664 38.7001 13.2758 38.2852C12.6733 37.9296 12.1928 37.3994 11.8981 36.7649C11.8244 36.2763 12.3082 36.3453 12.9299 36.7649Z" fill="#FEFEFE"/>
<path fill-rule="evenodd" clip-rule="evenodd" d="M13.2729 39.0461C13.8406 39.4227 14.2931 39.9488 14.5804 40.5665C14.6494 40.9813 14.2345 40.9813 13.6128 40.5665C13.0451 40.1899 12.5926 39.6638 12.3053 39.0461C12.1662 38.5576 12.65 38.6265 13.2729 39.0461Z" fill="#FEFEFE"/>
<path fill-rule="evenodd" clip-rule="evenodd" d="M14.584 41.6678C15.0678 41.9447 15.4827 42.4285 15.4161 42.7043C15.3496 42.9801 14.9323 42.9813 14.4485 42.7043C13.9647 42.4274 13.5499 41.9436 13.6164 41.6678C13.6224 41.392 14.0979 41.392 14.584 41.6678Z" fill="#FEFEFE"/>
<path fill-rule="evenodd" clip-rule="evenodd" d="M14.5155 43.1211C15.0683 43.1211 15.621 43.3279 15.69 43.6049C15.7589 43.8819 15.413 44.0887 14.7913 44.0887C14.2386 44.0887 13.6858 43.8819 13.6169 43.6049C13.5479 43.3279 13.9628 43.1211 14.5155 43.1211Z" fill="#FEFEFE"/>
<path fill-rule="evenodd" clip-rule="evenodd" d="M15.2043 44.5726C15.3712 44.478 15.5575 44.4226 15.7491 44.4107C15.9406 44.3987 16.1323 44.4305 16.3098 44.5036C16.5166 44.7105 16.2408 44.9874 15.826 45.1943C15.659 45.2889 15.4727 45.3442 15.2812 45.3562C15.0896 45.3681 14.8979 45.3363 14.7205 45.2632C14.5136 45.0564 14.7205 44.7794 15.2043 44.5726Z" fill="#FEFEFE"/>
<path fill-rule="evenodd" clip-rule="evenodd" d="M16.107 46.233C16.5219 45.956 17.0057 45.8181 17.2125 46.0262C17.4193 46.2342 17.2125 46.5789 16.7976 46.9248C16.3828 47.2018 15.899 47.3397 15.6921 47.1317C15.5543 46.9296 15.6933 46.51 16.107 46.233Z" fill="#FEFEFE"/>
<path fill-rule="evenodd" clip-rule="evenodd" d="M17.0079 47.3385C17.4228 47.0615 17.9066 46.9236 18.1134 47.1316C18.3202 47.3397 18.1134 47.6844 17.6985 48.0303C17.2837 48.3073 16.7999 48.4452 16.593 48.2371C16.3862 48.0291 16.5241 47.6154 17.0079 47.3385Z" fill="#FEFEFE"/>
<path fill-rule="evenodd" clip-rule="evenodd" d="M17.7603 48.6526C18.0373 48.3067 18.451 48.1688 18.659 48.3067C18.867 48.4446 18.7969 48.7905 18.4522 49.1388C18.1752 49.4847 17.7615 49.6226 17.5535 49.4847C17.3455 49.3468 17.4834 48.9974 17.7603 48.6526Z" fill="#FEFEFE"/>
<path fill-rule="evenodd" clip-rule="evenodd" d="M18.7922 49.5511C19.0692 49.2052 19.4828 49.0673 19.6909 49.2052C19.8989 49.3431 19.8288 49.689 19.484 50.0373C19.2071 50.3832 18.7934 50.5211 18.5854 50.3832C18.4463 50.2417 18.5152 49.8958 18.7922 49.5511Z" fill="#FEFEFE"/>
<path fill-rule="evenodd" clip-rule="evenodd" d="M19.7609 50.3812C20.0379 50.0352 20.4516 49.8974 20.6596 50.0352C20.8676 50.1731 20.7975 50.519 20.4528 50.8673C20.1758 51.2132 19.7621 51.3511 19.5541 51.2132C19.415 51.0718 19.484 50.7259 19.7609 50.3812Z" fill="#FEFEFE"/>
<path fill-rule="evenodd" clip-rule="evenodd" d="M20.6034 51.2783C20.6703 51.1378 20.7799 51.022 20.9165 50.9475C21.0532 50.873 21.2098 50.8436 21.3642 50.8635C21.571 50.9324 21.5021 51.2783 21.2953 51.6242C21.2284 51.7648 21.1188 51.8805 20.9821 51.955C20.8455 52.0295 20.6888 52.059 20.5345 52.0391C20.3954 51.9701 20.3954 51.6242 20.6034 51.2783Z" fill="#FEFEFE"/>
<path fill-rule="evenodd" clip-rule="evenodd" d="M21.3622 52.0399C21.5001 51.694 21.846 51.4183 22.0529 51.4872C22.2597 51.5561 22.2597 51.9021 22.1218 52.248C21.9839 52.5939 21.638 52.8697 21.4312 52.8007C21.2243 52.7318 21.2231 52.4548 21.3622 52.0399Z" fill="#FEFEFE"/>
<path fill-rule="evenodd" clip-rule="evenodd" d="M22.2528 52.7313C22.3907 52.3854 22.7366 52.1097 22.9435 52.1786C23.1503 52.2475 23.1503 52.5935 23.0124 52.9394C22.8745 53.2853 22.5286 53.5611 22.3218 53.4921C22.115 53.4232 22.1138 53.0761 22.2528 52.7313Z" fill="#FEFEFE"/>
<path fill-rule="evenodd" clip-rule="evenodd" d="M23.1509 53.4211C23.2198 53.0752 23.4278 52.7305 23.6347 52.7305C23.8415 52.7305 23.9806 53.0074 23.8415 53.4211C23.7725 53.767 23.5645 54.1117 23.3577 54.1117C23.1509 54.038 23.0819 53.767 23.1509 53.4211Z" fill="#FEFEFE"/>
<path fill-rule="evenodd" clip-rule="evenodd" d="M24.1875 53.9764C24.1875 53.6305 24.3254 53.2156 24.5334 53.2156C24.7402 53.1467 24.9483 53.4225 24.9483 53.8373C24.9483 54.1832 24.8104 54.5981 24.6024 54.5981C24.3943 54.5981 24.1875 54.3913 24.1875 53.9764Z" fill="#FEFEFE"/>
<path fill-rule="evenodd" clip-rule="evenodd" d="M24.4688 52.5234C24.4688 52.2465 24.6066 51.9707 24.7457 51.9707C24.8848 51.9707 25.0227 52.1775 25.0227 52.4545C25.0227 52.7315 24.8848 53.0073 24.7457 53.0073C24.6066 53.0073 24.4688 52.8028 24.4688 52.5234Z" fill="#FEFEFE"/>
<path fill-rule="evenodd" clip-rule="evenodd" d="M23.6994 52.1088C23.7684 51.8318 23.9063 51.625 24.0453 51.625C24.1844 51.625 24.2522 51.8318 24.1832 52.1088C24.1143 52.3858 23.9764 52.5926 23.8373 52.5926C23.6994 52.6615 23.6293 52.3858 23.6994 52.1088Z" fill="#FEFEFE"/>
<path fill-rule="evenodd" clip-rule="evenodd" d="M23.1503 51.5568C23.2882 51.2799 23.4962 51.142 23.6341 51.2109C23.772 51.2799 23.772 51.4879 23.6341 51.7637C23.4962 52.0394 23.2882 52.1785 23.1503 52.1096C23.0124 52.0406 23.0124 51.7637 23.1503 51.5568Z" fill="#FEFEFE"/>
<path fill-rule="evenodd" clip-rule="evenodd" d="M22.3222 51.0725C22.4601 50.7955 22.6681 50.6576 22.806 50.7265C22.9439 50.7955 22.9439 51.0035 22.806 51.2793C22.6681 51.5551 22.4601 51.6942 22.3222 51.6252C22.1843 51.5563 22.1843 51.2793 22.3222 51.0725Z" fill="#FEFEFE"/>
<path fill-rule="evenodd" clip-rule="evenodd" d="M21.7724 50.4504C21.9792 50.2435 22.1872 50.1044 22.3251 50.2435C22.463 50.3125 22.3941 50.5205 22.1872 50.7273C21.9804 50.9342 21.7724 51.0732 21.6345 50.9342C21.4954 50.8652 21.5667 50.6572 21.7724 50.4504Z" fill="#FEFEFE"/>
<path fill-rule="evenodd" clip-rule="evenodd" d="M21.1479 49.8976C21.3547 49.6908 21.5627 49.5517 21.7006 49.6908C21.8385 49.7597 21.7696 49.9678 21.5627 50.1746C21.3559 50.3814 21.1479 50.5205 21.01 50.3814C20.941 50.3125 20.941 50.1045 21.1479 49.8976Z" fill="#FEFEFE"/>
<path fill-rule="evenodd" clip-rule="evenodd" d="M20.2567 48.999C20.4636 48.722 20.8095 48.5842 20.9474 48.722C21.0853 48.791 21.0163 49.1369 20.8095 49.3437C20.6027 49.6207 20.2567 49.7586 20.1189 49.6207C19.9798 49.5518 20.0511 49.2748 20.2567 48.999Z" fill="#FEFEFE"/>
<path fill-rule="evenodd" clip-rule="evenodd" d="M19.4967 48.0282C19.5876 47.9187 19.7059 47.8354 19.8396 47.7867C19.9733 47.738 20.1175 47.7258 20.2575 47.7512C20.3954 47.8891 20.3264 48.1661 20.0507 48.4418C19.9598 48.5513 19.8414 48.6346 19.7078 48.6833C19.5741 48.732 19.4299 48.7442 19.2899 48.7188C19.152 48.5809 19.2899 48.3039 19.4967 48.0282Z" fill="#FEFEFE"/>
<path fill-rule="evenodd" clip-rule="evenodd" d="M18.6509 47.0615C18.9279 46.7845 19.3415 46.6467 19.5495 46.7845C19.7576 46.9224 19.6185 47.2684 19.3427 47.5453C19.0669 47.8223 18.6521 47.9602 18.4441 47.8223C18.236 47.6844 18.3097 47.3373 18.6509 47.0615Z" fill="#FEFEFE"/>
<path fill-rule="evenodd" clip-rule="evenodd" d="M17.901 45.749C18.1779 45.472 18.5916 45.3342 18.7996 45.472C19.0077 45.6099 18.8686 45.9558 18.5928 46.2328C18.317 46.5098 17.9022 46.6477 17.6941 46.5098C17.4861 46.3719 17.624 46.0248 17.901 45.749Z" fill="#FEFEFE"/>
<path fill-rule="evenodd" clip-rule="evenodd" d="M17.2162 44.3661C17.631 44.1592 18.0483 44.1592 18.1148 44.3661C18.2527 44.5729 18.0459 44.8499 17.631 44.9878C17.2162 45.1946 16.7989 45.1946 16.7324 44.9878C16.6622 44.8499 16.8691 44.5729 17.2162 44.3661Z" fill="#FEFEFE"/>
<path fill-rule="evenodd" clip-rule="evenodd" d="M16.7939 42.8457C17.2777 42.8457 17.7615 43.0525 17.7615 43.3295C17.8305 43.6065 17.4846 43.8133 16.9294 43.8133C16.4456 43.8133 15.9618 43.6065 15.9618 43.3295C15.8929 43.1227 16.2388 42.9146 16.7939 42.8457Z" fill="#FEFEFE"/>
<path fill-rule="evenodd" clip-rule="evenodd" d="M16.3086 41.2546C16.8614 41.3925 17.3452 41.6694 17.3452 42.0153C17.3452 42.2923 16.8614 42.4302 16.2397 42.2923C15.6869 42.1544 15.2031 41.8775 15.2031 41.5315C15.2031 41.1856 15.7559 41.1155 16.3086 41.2546Z" fill="#FEFEFE"/>
<path fill-rule="evenodd" clip-rule="evenodd" d="M15.7553 39.1109C16.377 39.2488 16.8608 39.5947 16.8608 40.0095C16.8608 40.4244 16.4459 40.6312 15.8242 40.4933C15.2026 40.3554 14.7188 40.0095 14.7188 39.5947C14.7188 39.2488 15.2026 39.0419 15.7553 39.1109Z" fill="#FEFEFE"/>
<path fill-rule="evenodd" clip-rule="evenodd" d="M16.2364 37.6581C16.7892 38.1419 17.1351 38.7636 16.8581 38.9657C16.6513 39.1725 15.9595 38.9657 15.4067 38.4819C14.854 37.9981 14.5081 37.3764 14.785 37.1743C14.9931 36.8985 15.6148 37.1054 16.2364 37.6581Z" fill="#FEFEFE"/>
<path fill-rule="evenodd" clip-rule="evenodd" d="M16.2456 35.7927C16.7294 36.2765 16.9362 36.8292 16.7294 37.0373C16.5225 37.2453 15.8973 37.0372 15.4218 36.5534C14.9463 36.0696 14.7311 35.5169 14.938 35.3089C15.1448 35.1008 15.7701 35.3089 16.2456 35.7927Z" fill="#FEFEFE"/>
<path fill-rule="evenodd" clip-rule="evenodd" d="M18.5268 37.9355C19.0106 38.4193 19.2174 38.972 19.0106 39.1801C18.8038 39.3881 18.1785 39.1801 17.703 38.6962C17.2275 38.2124 17.0124 37.6597 17.2192 37.4517C17.4261 37.2436 17.98 37.5206 18.5268 37.9355Z" fill="#FEFEFE"/>
<path fill-rule="evenodd" clip-rule="evenodd" d="M18.5257 39.3872C19.1474 39.5251 19.5622 39.802 19.4933 40.0778C19.4243 40.3536 18.8716 40.4237 18.3188 40.2847C17.6971 40.1468 17.2823 39.8698 17.3512 39.594C17.356 39.3872 17.904 39.3182 18.5257 39.3872Z" fill="#FEFEFE"/>
<path fill-rule="evenodd" clip-rule="evenodd" d="M18.5257 40.6312C19.1474 40.7002 19.5622 40.9771 19.4933 41.2529C19.4243 41.5287 18.9405 41.6678 18.3188 41.5299C17.6971 41.4609 17.2823 41.184 17.3512 40.9082C17.4202 40.7002 17.9729 40.5623 18.5257 40.6312Z" fill="#FEFEFE"/>
<path fill-rule="evenodd" clip-rule="evenodd" d="M18.8711 42.0156C19.4239 42.0156 19.9077 42.2225 19.9077 42.4305C19.9077 42.7075 19.4239 42.8453 18.8022 42.9143C18.2494 42.9143 17.7656 42.7074 17.7656 42.4994C17.8346 42.2225 18.3184 42.0156 18.8711 42.0156Z" fill="#FEFEFE"/>
<path fill-rule="evenodd" clip-rule="evenodd" d="M19.0821 43.2578C19.5659 43.2578 19.9142 43.3957 19.9142 43.6037C19.9142 43.8118 19.4993 43.9496 19.0821 43.9496C18.5983 43.9496 18.25 43.8118 18.25 43.6037C18.25 43.4646 18.6649 43.2578 19.0821 43.2578Z" fill="#FEFEFE"/>
<path fill-rule="evenodd" clip-rule="evenodd" d="M19.4185 44.435C19.8333 44.2971 20.2506 44.3661 20.3171 44.5729C20.3837 44.7797 20.0402 45.1257 19.6265 45.2635C19.2128 45.4014 18.7944 45.3325 18.7278 45.1257C18.6577 44.8499 19.0036 44.5741 19.4185 44.435Z" fill="#FEFEFE"/>
<path fill-rule="evenodd" clip-rule="evenodd" d="M19.8982 45.6084C20.313 45.4015 20.7303 45.4015 20.7968 45.6773C20.8658 45.8842 20.59 46.2301 20.1751 46.4381C19.7603 46.6461 19.343 46.6449 19.2765 46.3691C19.2063 46.1623 19.4833 45.8164 19.8982 45.6084Z" fill="#FEFEFE"/>
<path fill-rule="evenodd" clip-rule="evenodd" d="M20.5205 46.5771C20.8665 46.3703 21.2112 46.3002 21.2813 46.5082C21.3514 46.7162 21.1434 46.992 20.8665 47.269C20.5205 47.4758 20.1758 47.5459 20.1057 47.3379C19.9678 47.1311 20.1746 46.7852 20.5205 46.5771Z" fill="#FEFEFE"/>
<path fill-rule="evenodd" clip-rule="evenodd" d="M21.0867 47.4776C21.3637 47.2707 21.7084 47.2707 21.7774 47.4086C21.8463 47.5465 21.7084 47.8924 21.3625 48.0303C21.0855 48.2371 20.7408 48.2371 20.6719 48.0992C20.7378 47.8519 20.8837 47.6333 21.0867 47.4776Z" fill="#FEFEFE"/>
<path fill-rule="evenodd" clip-rule="evenodd" d="M21.6977 48.169C21.9747 47.9621 22.3194 47.9621 22.3884 48.1C22.4573 48.2379 22.3194 48.5838 21.9735 48.7217C21.6965 48.9285 21.3518 48.9285 21.2829 48.7906C21.2139 48.6528 21.3518 48.3758 21.6977 48.169Z" fill="#FEFEFE"/>
<path fill-rule="evenodd" clip-rule="evenodd" d="M22.2602 48.8584C22.5372 48.6516 22.8819 48.6516 22.9509 48.7895C23.0198 48.9273 22.8819 49.2733 22.536 49.4112C22.259 49.618 21.9143 49.618 21.8454 49.4801C21.7764 49.3422 21.9143 49.0652 22.2602 48.8584Z" fill="#FEFEFE"/>
<path fill-rule="evenodd" clip-rule="evenodd" d="M22.8099 49.5517C23.0168 49.2748 23.2937 49.1369 23.4316 49.2748C23.5695 49.4127 23.4316 49.7586 23.2248 50.0355C23.018 50.3125 22.741 50.4504 22.6031 50.3125C22.464 50.1045 22.6019 49.8275 22.8099 49.5517Z" fill="#FEFEFE"/>
<path fill-rule="evenodd" clip-rule="evenodd" d="M23.5032 50.1728C23.71 49.8959 23.987 49.758 24.1249 49.8959C24.2628 50.0338 24.1249 50.3797 23.918 50.6566C23.7112 50.9336 23.4342 51.0715 23.2963 50.9336C23.2716 50.7994 23.2773 50.6614 23.3131 50.5297C23.3489 50.398 23.4139 50.276 23.5032 50.1728Z" fill="#FEFEFE"/>
<path fill-rule="evenodd" clip-rule="evenodd" d="M2.41787 21.5487C3.72545 21.3418 4.55754 24.5214 6.08146 27.2872C7.53288 29.8449 9.12218 31.8509 9.19231 32.1957C9.05442 33.0946 6.6354 31.1588 4.76913 28.047C3.31772 25.6272 1.58934 23.4833 2.41906 21.5475L2.41787 21.5487Z" fill="#FEFEFE"/>
<path fill-rule="evenodd" clip-rule="evenodd" d="M4.13783 16.9852C5.5203 16.9852 5.93516 20.7189 7.04066 24.1066C8.14615 27.2185 9.45967 29.7762 9.45967 30.1222C9.18271 31.0901 6.97171 28.4575 5.45135 24.5906C4.4148 21.7558 2.96339 18.99 4.14378 16.9805L4.13783 16.9852Z" fill="#FEFEFE"/>
<path fill-rule="evenodd" clip-rule="evenodd" d="M6.90997 11.3163C6.97891 11.2473 7.32483 11.1784 7.32483 11.2473C9.32899 13.5981 7.80864 16.295 8.43033 20.5126C9.05202 24.4533 10.2277 27.772 10.1587 28.256C9.74385 29.3618 7.80863 25.0062 6.63419 20.6458C5.66658 17.05 5.5287 13.3175 6.91116 11.3115L6.90997 11.3163Z" fill="#FEFEFE"/>
<path fill-rule="evenodd" clip-rule="evenodd" d="M10.5761 9.24186C11.1086 7.38098 12.0227 5.65145 13.2603 4.1635C14.4979 2.67555 16.0318 1.4618 17.7642 0.599609C7.46525 11.3858 9.4706 20.6499 11.1265 27.1494C10.5048 28.0484 9.39808 23.3444 9.05336 18.8532C8.77877 15.1195 9.33152 13.4595 10.5761 9.24186Z" fill="#FEFEFE"/>
<path fill-rule="evenodd" clip-rule="evenodd" d="M26.9504 59.3691C27.0193 59.3691 27.0883 59.7151 27.0883 60.2012C27.0883 60.6874 27.0193 61.0333 26.9504 61.0333C26.8814 61.0333 26.8125 60.6874 26.8125 60.2012C26.8125 59.7151 26.8814 59.3691 26.9504 59.3691Z" fill="#FEFEFE"/>
<path fill-rule="evenodd" clip-rule="evenodd" d="M27.3723 59.9219C27.4412 59.9219 27.5102 60.2678 27.5102 60.754C27.5102 61.2401 27.4412 61.5861 27.3723 61.5861C27.3033 61.5861 27.2344 61.2294 27.2344 60.754C27.2344 60.2785 27.3033 59.9219 27.3723 59.9219Z" fill="#FEFEFE"/>
<path fill-rule="evenodd" clip-rule="evenodd" d="M27.9191 60.1992C27.9881 60.1992 28.057 60.5451 28.057 61.0313C28.057 61.4462 27.9881 61.8634 27.9191 61.8634C27.8502 61.8634 27.7812 61.5068 27.7812 61.0313C27.7812 60.5558 27.8502 60.1992 27.9191 60.1992Z" fill="#FEFEFE"/>
<path fill-rule="evenodd" clip-rule="evenodd" d="M28.6066 60.6133C28.6756 60.6133 28.7445 60.9592 28.7445 61.4454C28.7445 61.8602 28.6756 62.2775 28.6066 62.2775C28.5377 62.2775 28.4688 61.9209 28.4688 61.4454C28.4688 61.0281 28.4687 60.6133 28.6066 60.6133Z" fill="#FEFEFE"/>
<path fill-rule="evenodd" clip-rule="evenodd" d="M29.1691 60.8223C29.2381 60.8223 29.307 61.1682 29.307 61.6544C29.307 62.1405 29.2381 62.4865 29.1691 62.4865C29.1002 62.4865 29.0312 62.1405 29.0312 61.6544C29.0312 61.1682 29.1002 60.8223 29.1691 60.8223Z" fill="#FEFEFE"/>
<path fill-rule="evenodd" clip-rule="evenodd" d="M29.6535 60.8906C29.7225 60.8906 29.7914 61.2365 29.7914 61.7227C29.7914 62.1376 29.7225 62.5548 29.6535 62.5548C29.5846 62.5548 29.5156 62.1982 29.5156 61.7227C29.5156 61.3055 29.5846 60.8906 29.6535 60.8906Z" fill="#FEFEFE"/>
<path fill-rule="evenodd" clip-rule="evenodd" d="M30.2004 61.166C30.2693 61.166 30.3383 61.5119 30.3383 61.9981C30.3383 62.413 30.2693 62.8302 30.2004 62.8302C30.1315 62.8302 30.0625 62.4843 30.0625 61.9981C30.1314 61.5119 30.1315 61.166 30.2004 61.166Z" fill="#FEFEFE"/>
<path fill-rule="evenodd" clip-rule="evenodd" d="M30.7629 61.2344C30.8318 61.2344 30.9008 61.5803 30.9008 62.0665C30.9008 62.4813 30.8318 62.8986 30.7629 62.8986C30.6939 62.8986 30.625 62.5526 30.625 62.0665C30.625 61.5803 30.6939 61.2344 30.7629 61.2344Z" fill="#FEFEFE"/>
<path fill-rule="evenodd" clip-rule="evenodd" d="M31.3723 61.375C31.4412 61.375 31.5101 61.7209 31.5101 62.2071C31.5101 62.6933 31.4412 63.0392 31.3723 63.0392C31.3033 63.0392 31.2344 62.6933 31.2344 62.2071C31.2344 61.7209 31.3033 61.375 31.3723 61.375Z" fill="#FEFEFE"/>
<path fill-rule="evenodd" clip-rule="evenodd" d="M30.1336 58.7461C30.3404 58.7461 30.5485 59.161 30.5485 59.7137C30.5485 60.2665 30.3416 60.6813 30.1336 60.6813C29.9256 60.6813 29.7188 60.2665 29.7188 59.7137C29.7188 59.161 29.9256 58.7461 30.1336 58.7461Z" fill="#FEFEFE"/>
<path fill-rule="evenodd" clip-rule="evenodd" d="M28.8928 58.4004C29.0996 58.4004 29.2387 58.8153 29.2387 59.2991C29.2387 59.7829 29.1008 60.1977 28.8928 60.1977C28.6848 60.1977 28.5469 59.7829 28.5469 59.2991C28.5469 58.8153 28.6848 58.4004 28.8928 58.4004Z" fill="#FEFEFE"/>
<path fill-rule="evenodd" clip-rule="evenodd" d="M28.0662 57.7793C28.2041 57.7793 28.273 58.1942 28.273 58.678C28.273 59.1618 28.2041 59.5766 28.0662 59.5766C27.9283 59.5766 27.8594 59.1618 27.8594 58.678C27.8594 58.1942 27.9283 57.7793 28.0662 57.7793Z" fill="#FEFEFE"/>
<path fill-rule="evenodd" clip-rule="evenodd" d="M27.2316 57.2246C27.3006 57.2246 27.3695 57.6395 27.3695 58.1233C27.3695 58.6071 27.3006 59.0219 27.2316 59.0219C27.1627 59.0219 27.0938 58.6071 27.0938 58.1233C27.0938 57.6395 27.1627 57.2246 27.2316 57.2246Z" fill="#FEFEFE"/>
<path fill-rule="evenodd" clip-rule="evenodd" d="M27.5738 55.0117C27.7117 55.0117 27.8508 55.4266 27.8508 55.9104C27.8508 56.3942 27.7129 56.809 27.5738 56.809C27.4348 56.809 27.2969 56.3942 27.2969 55.9104C27.2969 55.4266 27.4348 55.0117 27.5738 55.0117Z" fill="#FEFEFE"/>
<path fill-rule="evenodd" clip-rule="evenodd" d="M28.5469 55.4277C28.7538 55.4277 28.8928 55.8426 28.8928 56.3264C28.8928 56.8102 28.755 57.2251 28.5469 57.2251C28.3389 57.2251 28.201 56.8102 28.201 56.3264C28.1321 55.8426 28.3389 55.4277 28.5469 55.4277Z" fill="#FEFEFE"/>
<path fill-rule="evenodd" clip-rule="evenodd" d="M29.8657 55.7734C30.1427 55.7734 30.2806 56.2572 30.2806 56.8789C30.2806 57.5006 30.0737 57.9844 29.8657 57.9844C29.5887 57.9844 29.4509 57.5006 29.4509 56.8789C29.3819 56.3262 29.5887 55.7734 29.8657 55.7734Z" fill="#FEFEFE"/>
<path fill-rule="evenodd" clip-rule="evenodd" d="M26.6756 54.5977C26.8135 54.5977 26.8824 55.0125 26.8824 55.4963C26.8824 55.9801 26.8135 56.395 26.6756 56.395C26.5377 56.395 26.4688 55.9801 26.4688 55.4963C26.4688 55.0125 26.5377 54.5977 26.6756 54.5977Z" fill="#FEFEFE"/>
<path fill-rule="evenodd" clip-rule="evenodd" d="M26.0598 54.3906C26.1287 54.3906 26.1977 54.6676 26.1977 55.0123C26.1977 55.357 26.1287 55.634 26.0598 55.634C25.9908 55.634 25.9219 55.357 25.9219 55.0123C25.9219 54.6676 25.9908 54.3906 26.0598 54.3906Z" fill="#FEFEFE"/>
<path fill-rule="evenodd" clip-rule="evenodd" d="M26.8813 51.5566C27.1583 51.5566 27.2962 52.1094 27.2962 52.8642C27.2962 53.5549 27.0894 54.1718 26.8813 54.1718C26.6044 54.1718 26.4665 53.619 26.4665 52.8642C26.3975 52.1094 26.6044 51.5566 26.8813 51.5566Z" fill="#FEFEFE"/>
<path fill-rule="evenodd" clip-rule="evenodd" d="M25.7834 51.1406C25.9902 51.1406 26.1293 51.5555 26.1293 52.1082C26.1293 52.661 25.9914 53.0758 25.7834 53.0758C25.5754 53.0758 25.4375 52.661 25.4375 52.1082C25.4375 51.5555 25.5754 51.1406 25.7834 51.1406Z" fill="#FEFEFE"/>
<path fill-rule="evenodd" clip-rule="evenodd" d="M28.1938 51.9023C28.4708 51.9023 28.6087 52.4551 28.6087 53.2099C28.6087 53.9006 28.4019 54.5175 28.1938 54.5175C27.9858 54.5175 27.779 53.9647 27.779 53.2099C27.71 52.524 27.9169 51.9023 28.1938 51.9023Z" fill="#FEFEFE"/>
<path fill-rule="evenodd" clip-rule="evenodd" d="M29.8561 52.3164C30.202 52.3164 30.4778 52.8692 30.4778 53.624C30.4778 54.3146 30.2008 54.9316 29.8561 54.9316C29.5113 54.9316 29.2344 54.3895 29.2344 53.624C29.2344 52.9381 29.5113 52.3164 29.8561 52.3164Z" fill="#FEFEFE"/>
<path fill-rule="evenodd" clip-rule="evenodd" d="M29.9903 48.375C30.2672 48.375 30.543 49.0656 30.543 49.9643C30.543 50.863 30.266 51.5536 29.9903 51.5536C29.7145 51.5536 29.4375 50.863 29.4375 49.9643C29.4375 49.0656 29.6443 48.375 29.9903 48.375Z" fill="#FEFEFE"/>
<path fill-rule="evenodd" clip-rule="evenodd" d="M28.4126 48.3066C28.6896 48.3066 28.8275 48.9283 28.8275 49.6891C28.8275 50.4499 28.6206 51.0716 28.4126 51.0716C28.1356 51.0716 27.9977 50.4499 27.9977 49.6891C27.9288 48.9283 28.1356 48.3066 28.4126 48.3066Z" fill="#FEFEFE"/>
<path fill-rule="evenodd" clip-rule="evenodd" d="M27.0242 48.168C27.2311 48.168 27.4391 48.7897 27.4391 49.5504C27.4391 50.3112 27.3012 50.9329 27.0242 50.9329C26.8174 50.9329 26.6094 50.3112 26.6094 49.5504C26.6783 48.7897 26.8162 48.168 27.0242 48.168Z" fill="#FEFEFE"/>
<path fill-rule="evenodd" clip-rule="evenodd" d="M25.6492 47.5469C25.8561 47.5469 26.0641 48.1686 26.0641 48.9293C26.0641 49.6901 25.9262 50.3118 25.6492 50.3118C25.4424 50.3118 25.2344 49.6901 25.2344 48.9293C25.3033 48.0996 25.4412 47.5469 25.6492 47.5469Z" fill="#FEFEFE"/>
<path fill-rule="evenodd" clip-rule="evenodd" d="M24.3303 46.9922C24.5371 46.9922 24.6762 47.6139 24.6762 48.3747C24.6762 49.1354 24.5383 49.7571 24.3303 49.7571C24.1223 49.7571 23.9844 49.1319 23.9844 48.3747C23.9844 47.5449 24.1223 46.9922 24.3303 46.9922Z" fill="#FEFEFE"/>
<path fill-rule="evenodd" clip-rule="evenodd" d="M30.6125 44.8496C30.9584 44.8496 31.3031 45.5402 31.3031 46.4389C31.3031 47.3376 31.0262 48.0282 30.6125 48.0282C30.2666 48.0282 29.9219 47.3376 29.9219 46.4389C29.9219 45.5402 30.1988 44.8496 30.6125 44.8496Z" fill="#FEFEFE"/>
<path fill-rule="evenodd" clip-rule="evenodd" d="M29.4416 44.5721C29.7186 44.6411 29.7876 45.4042 29.5795 46.2363C29.3715 47.0684 29.0268 47.6878 28.6809 47.5439C28.4039 47.475 28.335 46.7118 28.543 45.8797C28.751 45.0476 29.1647 44.4343 29.4416 44.5721Z" fill="#FEFEFE"/>
<path fill-rule="evenodd" clip-rule="evenodd" d="M27.9913 44.5777C28.2682 44.6466 28.3372 45.3385 28.1291 46.098C27.9211 46.8576 27.5764 47.4056 27.3684 47.3426C27.0914 47.2737 27.0225 46.5818 27.2305 45.8223C27.3684 44.9878 27.7143 44.504 27.9913 44.5777Z" fill="#FEFEFE"/>
<path fill-rule="evenodd" clip-rule="evenodd" d="M26.8879 44.365C27.0947 44.434 27.1649 45.0557 27.0258 45.7475C26.8867 46.4393 26.542 46.9219 26.3352 46.853C26.1283 46.784 26.0582 46.1623 26.1973 45.4705C26.3363 44.7787 26.6799 44.2271 26.8879 44.365Z" fill="#FEFEFE"/>
<path fill-rule="evenodd" clip-rule="evenodd" d="M25.9192 43.8179C26.126 43.8869 26.1961 44.5086 26.057 45.2004C25.918 45.8922 25.5732 46.3748 25.3664 46.3059C25.1596 46.2369 25.0894 45.6152 25.2285 44.9234C25.3676 44.2316 25.6422 43.7442 25.9192 43.8179Z" fill="#FEFEFE"/>
<path fill-rule="evenodd" clip-rule="evenodd" d="M25.0176 43.5363C25.2245 43.6053 25.2245 44.158 25.0176 44.7809C24.8108 45.4038 24.4649 45.8175 24.327 45.6796C24.1202 45.6106 24.1202 45.0579 24.327 44.435C24.4649 43.8121 24.8108 43.3984 25.0176 43.5363Z" fill="#FEFEFE"/>
<path fill-rule="evenodd" clip-rule="evenodd" d="M31.4526 41.8066C31.7295 41.8066 31.9364 42.3594 31.9364 43.0512C31.9364 43.7431 31.7295 44.2958 31.4526 44.2958C31.1756 44.2958 30.9688 43.7431 30.9688 43.0512C30.9688 42.3594 31.1756 41.8066 31.4526 41.8066Z" fill="#FEFEFE"/>
<path fill-rule="evenodd" clip-rule="evenodd" d="M30.2692 41.4609C30.5461 41.4609 30.753 42.0826 30.684 42.7685C30.6151 43.4544 30.4071 44.0131 30.1313 44.0131C29.8555 44.0131 29.6475 43.3914 29.7164 42.7055C29.7854 42.0196 29.9922 41.4609 30.2692 41.4609Z" fill="#FEFEFE"/>
<path fill-rule="evenodd" clip-rule="evenodd" d="M29.091 41.5996C29.2979 41.5996 29.5059 42.0834 29.4369 42.7051C29.368 43.3268 29.16 43.7417 28.9531 43.7417C28.7463 43.7417 28.5383 43.2579 28.6072 42.6362C28.6762 42.0145 28.8818 41.5996 29.091 41.5996Z" fill="#FEFEFE"/>
<path fill-rule="evenodd" clip-rule="evenodd" d="M28.1379 41.4664C28.3447 41.4664 28.5528 41.9502 28.4838 42.5719C28.4149 43.1936 28.2068 43.6085 28 43.6085C27.7932 43.6085 27.5851 43.1247 27.6541 42.503C27.6529 41.8765 27.9287 41.3927 28.1379 41.4664Z" fill="#FEFEFE"/>
<path fill-rule="evenodd" clip-rule="evenodd" d="M27.2979 41.2607C27.5047 41.3296 27.5748 41.7445 27.5047 42.2973C27.4346 42.85 27.1588 43.2649 26.9519 43.1959C26.7451 43.127 26.675 42.7121 26.7451 42.1594C26.883 41.6007 27.091 41.1858 27.2979 41.2607Z" fill="#FEFEFE"/>
<path fill-rule="evenodd" clip-rule="evenodd" d="M26.6157 41.0462C26.7536 41.1151 26.7536 41.53 26.6157 42.0138C26.4778 42.4976 26.2009 42.7746 25.994 42.7044C25.8562 42.6355 25.8562 42.2206 25.994 41.7368C26.2009 41.322 26.4767 40.9761 26.6157 41.0462Z" fill="#FEFEFE"/>
<path fill-rule="evenodd" clip-rule="evenodd" d="M31.243 38.6953C31.52 38.6953 31.6578 39.2481 31.6578 39.9399C31.6578 40.6317 31.451 41.1845 31.243 41.1845C30.966 41.1845 30.8281 40.6317 30.8281 39.9399C30.8281 39.2481 30.966 38.6953 31.243 38.6953Z" fill="#FEFEFE"/>
<path fill-rule="evenodd" clip-rule="evenodd" d="M30.2053 38.6953C30.4121 38.6953 30.5512 39.1791 30.5512 39.8008C30.5512 40.4225 30.4133 40.9063 30.2053 40.9063C29.9973 40.9063 29.8594 40.4225 29.8594 39.8008C29.8594 39.1791 30.0662 38.6953 30.2053 38.6953Z" fill="#FEFEFE"/>
<path fill-rule="evenodd" clip-rule="evenodd" d="M29.4493 38.6953C29.5872 38.6953 29.7262 39.1791 29.6561 39.7319C29.586 40.2846 29.3791 40.6995 29.2412 40.6995C29.1033 40.6995 28.9643 40.2157 29.0344 39.6629C29.1045 39.1102 29.3102 38.6953 29.4493 38.6953Z" fill="#FEFEFE"/>
<path fill-rule="evenodd" clip-rule="evenodd" d="M28.6138 38.835C28.7517 38.835 28.8206 39.2498 28.7517 39.6671C28.6827 40.0843 28.4747 40.4278 28.3368 40.4278C28.1989 40.4278 28.13 40.013 28.1989 39.5957C28.2691 39.1107 28.4759 38.766 28.6138 38.835Z" fill="#FEFEFE"/>
<path fill-rule="evenodd" clip-rule="evenodd" d="M27.7088 38.834C27.8467 38.834 27.9156 39.1799 27.7777 39.5246C27.7088 39.8705 27.5007 40.1463 27.3629 40.1463C27.225 40.1463 27.156 39.8004 27.2939 39.4557C27.3676 39.111 27.5744 38.834 27.7088 38.834Z" fill="#FEFEFE"/>
<path fill-rule="evenodd" clip-rule="evenodd" d="M27.0162 38.9035C27.1541 38.9035 27.1541 39.1804 27.0852 39.5252C27.0162 39.8699 26.8783 40.1469 26.7392 40.0779C26.6013 40.0779 26.6013 39.801 26.6703 39.4562C26.7392 39.1115 26.8783 38.8333 27.0162 38.9035Z" fill="#FEFEFE"/>
<path fill-rule="evenodd" clip-rule="evenodd" d="M30.1998 35.6523C30.5457 35.6523 30.8215 36.2051 30.8215 36.8969C30.8215 37.5887 30.5445 38.1415 30.1998 38.1415C29.8551 38.1415 29.5781 37.5887 29.5781 36.8969C29.5781 36.2051 29.8551 35.6523 30.1998 35.6523Z" fill="#FEFEFE"/>
<path fill-rule="evenodd" clip-rule="evenodd" d="M28.9582 36.0048C29.2352 36.0738 29.3731 36.5576 29.3041 37.1103C29.2352 37.6631 28.8893 38.0779 28.6135 38.0779C28.3365 38.009 28.1986 37.5252 28.2676 36.9724C28.4055 36.3448 28.6812 35.9299 28.9582 36.0048Z" fill="#FEFEFE"/>
<path fill-rule="evenodd" clip-rule="evenodd" d="M27.787 36.0693C28.064 36.1383 28.1329 36.5531 28.064 36.968C27.995 37.4518 27.7181 37.8001 27.4423 37.7288C27.1665 37.6574 27.0964 37.245 27.1653 36.8301C27.302 36.3451 27.5112 36.0004 27.787 36.0693Z" fill="#FEFEFE"/>
<path fill-rule="evenodd" clip-rule="evenodd" d="M26.6734 59.0209L26.2585 57.4316C25.4977 59.4358 24.8071 61.1642 23.2178 62.3386C21.5536 61.7859 21.1447 63.0994 21.0781 63.859C21.0781 63.9279 21.285 63.859 21.3551 63.859C21.6321 62.8224 22.9444 62.4076 23.9821 63.5131C24.0511 63.4441 24.2591 63.3752 24.189 63.2361C24.12 62.9591 23.6362 62.6144 23.6362 62.6144C24.9373 61.6924 25.9835 60.4557 26.6769 59.0198L26.6734 59.0209Z" fill="#FEFEFE"/>
<path fill-rule="evenodd" clip-rule="evenodd" d="M24.1931 51.0024C24.331 50.7255 24.4701 50.5186 24.608 50.5876C24.7459 50.6565 24.7459 50.9335 24.6769 51.2782C24.539 51.5552 24.4 51.762 24.2621 51.6931C24.1967 51.5916 24.1564 51.4761 24.1444 51.3561C24.1324 51.236 24.1491 51.1148 24.1931 51.0024Z" fill="#FEFEFE"/>
<path fill-rule="evenodd" clip-rule="evenodd" d="M45.6166 -0.0228713C45.4098 -0.160805 45.3397 0.0460958 45.4098 0.184029C58.5426 13.4589 55.225 30.5366 43.4056 38.4879C43.2678 42.3596 41.4015 44.2265 40.2948 44.9185C39.4627 43.1896 38.4975 44.9875 35.8027 39.3869C34.7661 37.0361 34.6282 33.9944 33.1756 30.4688C31.6553 25.0061 34.4832 25.0763 36.1474 24.6613L38.7043 25.0073C38.8422 24.2463 38.0826 23.4175 36.4921 22.6565V21.6196L34.9028 20.9977V21.8301H34.696C34.3508 21.4689 33.9302 21.1882 33.4642 21.0082C32.9983 20.8282 32.4983 20.7531 32 20.7885V63.1031C33.7284 62.9652 36.3542 62.8962 37.6678 60.3373C38.2871 61.2379 39.1177 61.9728 40.0868 62.4777C39.603 62.7547 39.326 63.0996 39.326 63.31C39.395 63.5169 39.6719 63.6561 40.0868 63.5169C41.1233 62.4111 42.1599 62.8261 42.5747 63.863L43.4734 63.9319V63.794L43.1275 63.6561C43.153 63.3958 43.1117 63.1333 43.0076 62.8934C42.9035 62.6535 42.74 62.4442 42.5325 62.285C42.325 62.1259 42.0804 62.0223 41.8218 61.9841C41.5631 61.9458 41.299 61.9741 41.0544 62.0663C40.7774 62.1352 40.6395 61.9283 40.7085 61.7202C56.6752 57.0186 64.762 42.1539 63.8633 27.703C63.8633 27.634 63.7944 27.565 63.7944 27.4961C63.7314 26.1495 63.5697 24.8094 63.3105 23.4865C63.3105 23.4175 63.1727 23.4175 63.1727 23.3485C62.8957 21.9656 62.8267 19.2688 62.3406 19.1309C62.3048 19.1284 62.2712 19.113 62.2458 19.0877C62.2205 19.0623 62.2052 19.0287 62.2027 18.9929C61.512 16.2271 60.6134 13.8073 59.7147 13.5303C59.7056 13.5305 59.6966 13.5288 59.6881 13.5254C59.6797 13.522 59.672 13.5169 59.6656 13.5105C59.6592 13.504 59.6541 13.4963 59.6507 13.4879C59.6473 13.4795 59.6456 13.4704 59.6458 13.4613C58.5403 11.4565 56.605 7.99868 54.7388 7.30782L54.4618 7.23886C51.8348 4.05806 49.2779 1.36241 45.6143 -0.0204928L45.6166 -0.0228713Z" fill="#1C7AB0"/>
<path fill-rule="evenodd" clip-rule="evenodd" d="M40.7812 46.7863C42.4454 45.6115 43.822 42.4307 43.961 39.112C46.4747 36.9139 48.7246 34.4311 50.6654 31.7135V31.6445L50.5964 31.7135C48.4567 34.3414 46.1732 37.037 43.6151 38.5579C43.7143 39.7709 43.5066 40.9894 43.0114 42.1011C42.5162 43.2129 41.7492 44.1821 40.7812 44.9195V46.7863Z" fill="#FEFEFE"/>
<path fill-rule="evenodd" clip-rule="evenodd" d="M44.2353 39.386C43.4032 42.9116 43.1298 45.6774 40.6406 47.8903V48.7892C42.369 47.2684 44.0962 44.0876 44.5111 39.248L44.2353 39.386Z" fill="#FEFEFE"/>
<path fill-rule="evenodd" clip-rule="evenodd" d="M62.8223 25.3519C61.7857 25.1451 60.6101 27.6331 58.9519 29.7062C57.4315 31.6414 55.7721 33.1617 55.7031 33.4387C55.7031 34.1293 57.9153 32.6779 59.9884 30.3279C61.4398 28.5305 63.1682 26.8033 62.8223 25.3519Z" fill="#FEFEFE"/>
<path fill-rule="evenodd" clip-rule="evenodd" d="M63.1042 28.7394C62.2721 28.3935 60.8231 30.4678 59.0959 32.0571C57.4317 33.5774 55.8471 34.6841 55.7093 34.8909C55.5714 35.5126 57.7824 34.545 59.9256 32.7513C61.5149 31.3688 63.2433 30.1242 63.1054 28.743L63.1042 28.7394Z" fill="#FEFEFE"/>
<path fill-rule="evenodd" clip-rule="evenodd" d="M62.8915 31.5741C62.1308 31.2282 60.7519 32.9566 59.0211 34.2701C57.4318 35.5147 55.9102 36.3432 55.7724 36.5512C55.6345 37.104 57.6386 36.4134 59.7117 34.9619C61.2321 33.7875 62.8915 32.8211 62.8915 31.5741Z" fill="#FEFEFE"/>
<path fill-rule="evenodd" clip-rule="evenodd" d="M62.6252 34.4792C62.0035 33.9954 60.4855 35.24 58.7548 36.1434C57.1655 36.9042 55.575 37.388 55.4371 37.5259C55.2303 38.0097 57.1655 37.7327 59.1696 36.8352C60.7589 36.1446 62.4184 35.5906 62.6252 34.4851V34.4792Z" fill="#FEFEFE"/>
<path fill-rule="evenodd" clip-rule="evenodd" d="M62.5427 36.3454C61.99 35.8616 60.403 36.9671 58.6723 37.653C57.0081 38.2747 55.4925 38.6206 55.3546 38.7585C55.0776 39.1733 57.0188 39.1044 59.0871 38.3436C60.6075 37.7908 62.2669 37.4449 62.5427 36.3394V36.3454Z" fill="#FEFEFE"/>
<path fill-rule="evenodd" clip-rule="evenodd" d="M61.9928 38.4198C61.578 37.936 60.0576 38.7657 58.3982 39.2519C56.8778 39.6668 55.4954 39.8736 55.3575 39.9426C55.0805 40.2885 56.8089 40.3574 58.6751 39.8736C60.1266 39.5966 61.578 39.3898 61.9928 38.4222V38.4198Z" fill="#FEFEFE"/>
<path fill-rule="evenodd" clip-rule="evenodd" d="M61.6501 39.9429C61.2353 39.4591 59.7149 40.1497 58.0555 40.4267C56.5351 40.7036 55.1526 40.7726 55.0148 40.8415C54.7378 41.1185 56.3972 41.3253 58.2635 41.0484C59.7149 40.8403 61.1663 40.775 61.6501 39.9429Z" fill="#FEFEFE"/>
<path fill-rule="evenodd" clip-rule="evenodd" d="M61.37 41.2539C61.0241 40.7701 59.4348 41.3229 57.7754 41.5999C56.255 41.8067 54.8726 41.8067 54.7347 41.8768C54.4577 42.1538 56.0423 42.4296 57.9834 42.2227C59.3659 42.0147 60.8862 42.0147 61.37 41.2539Z" fill="#FEFEFE"/>
<path fill-rule="evenodd" clip-rule="evenodd" d="M60.8232 42.5669C60.4773 42.152 58.888 42.6358 57.2285 42.7737C55.7082 42.9116 54.3257 42.9116 54.1878 42.9806C53.9108 43.1874 55.4954 43.4644 57.4365 43.2575C58.8879 43.2575 60.4083 43.1886 60.8232 42.5669Z" fill="#FEFEFE"/>
<path fill-rule="evenodd" clip-rule="evenodd" d="M60.1972 44.019C59.8513 43.6042 58.3309 43.9501 56.8105 44.019C55.3591 44.088 54.0456 43.9501 53.9077 44.019C53.6308 44.2259 55.1523 44.5028 56.9484 44.5028C58.3297 44.4339 59.7134 44.573 60.1972 44.019Z" fill="#FEFEFE"/>
<path fill-rule="evenodd" clip-rule="evenodd" d="M59.4326 45.4717C59.1557 45.0568 57.5664 45.1947 56.046 45.1258C54.5946 45.0568 53.35 44.7799 53.1432 44.8488C52.7973 44.9867 54.3176 45.4705 56.115 45.6096C57.5664 45.7475 58.9488 45.9555 59.4326 45.4717Z" fill="#FEFEFE"/>
<path fill-rule="evenodd" clip-rule="evenodd" d="M59.1624 46.7852C58.8855 46.3703 57.3651 46.3703 55.7758 46.1635C54.3244 45.9567 53.0798 45.6797 52.9419 45.6797C52.596 45.8176 54.0474 46.3703 55.8448 46.7162C57.2296 46.9243 58.6121 47.2 59.1624 46.7852Z" fill="#FEFEFE"/>
<path fill-rule="evenodd" clip-rule="evenodd" d="M58.1351 47.7532C57.9283 47.3383 56.4709 47.3383 55.0243 47.0625C53.7167 46.8557 52.5363 46.5098 52.3972 46.5098C52.0513 46.6477 53.4338 47.2004 55.0932 47.5463C56.3378 47.8162 57.5824 48.1728 58.1351 47.7532Z" fill="#FEFEFE"/>
<path fill-rule="evenodd" clip-rule="evenodd" d="M57.3046 48.8588C57.0978 48.444 55.7153 48.375 54.4018 48.0981C53.1572 47.8211 52.0517 47.4074 51.9138 47.4764C51.6368 47.6143 52.8814 48.2372 54.4018 48.5819C55.5762 48.8588 56.8208 49.2036 57.3046 48.8588Z" fill="#FEFEFE"/>
<path fill-rule="evenodd" clip-rule="evenodd" d="M56.676 49.97C56.5381 49.5551 55.2246 49.4172 53.98 49.0713C52.8056 48.7254 51.8403 48.3105 51.6989 48.3105C51.4219 48.3795 52.531 49.0713 53.98 49.5551C55.0855 49.901 56.1922 50.3872 56.676 49.97Z" fill="#FEFEFE"/>
<path fill-rule="evenodd" clip-rule="evenodd" d="M55.8509 50.9331C55.713 50.5182 54.4685 50.3114 53.294 49.8966C52.1885 49.4817 51.2209 49.0645 51.1543 49.0645C50.8774 49.1334 51.9151 49.8252 53.294 50.372C54.2616 50.7179 55.2982 51.2041 55.8509 50.9248V50.9331Z" fill="#FEFEFE"/>
<path fill-rule="evenodd" clip-rule="evenodd" d="M55.1571 51.8296C55.0192 51.4147 53.8495 51.1389 52.6691 50.6551C51.5636 50.2403 50.6649 49.6875 50.5294 49.6875C50.2525 49.7564 51.2902 50.5196 52.6025 51.07C53.6355 51.5562 54.5996 52.1089 55.1571 51.8296Z" fill="#FEFEFE"/>
<path fill-rule="evenodd" clip-rule="evenodd" d="M54.4019 52.662C54.3329 52.2471 53.1573 51.9714 52.0518 51.4174C51.0153 50.9336 50.1855 50.3809 50.0477 50.3809C49.7707 50.4498 50.7383 51.213 51.9829 51.8323C52.9505 52.385 53.8491 52.9378 54.4019 52.662Z" fill="#FEFEFE"/>
<path fill-rule="evenodd" clip-rule="evenodd" d="M53.842 53.5614C53.7731 53.1465 52.5974 52.7293 51.4919 52.11C50.4554 51.5572 49.6256 50.9355 49.4878 50.9355C49.2108 50.9355 50.1095 51.8342 51.423 52.5997C52.3216 53.1465 53.2892 53.7682 53.842 53.5614Z" fill="#FEFEFE"/>
<path fill-rule="evenodd" clip-rule="evenodd" d="M53.007 54.1823C52.9381 53.7675 51.8326 53.3502 50.7949 52.7309C49.8272 52.1782 49.0665 51.5565 48.9286 51.4863C48.6516 51.4863 49.4813 52.385 50.657 53.1505C51.6222 53.6985 52.5209 54.3892 53.007 54.1823Z" fill="#FEFEFE"/>
<path fill-rule="evenodd" clip-rule="evenodd" d="M52.4593 54.8748C52.4593 54.46 51.3538 53.9762 50.3197 53.3545C49.6931 52.9576 49.0927 52.5209 48.5223 52.0469C48.2454 52.0469 49.0751 52.9455 50.2507 53.7753C51.0828 54.328 51.9149 55.0198 52.4629 54.8808L52.4593 54.8748Z" fill="#FEFEFE"/>
<path fill-rule="evenodd" clip-rule="evenodd" d="M51.629 55.3572C51.629 54.9424 50.5924 54.4586 49.6938 53.8369C48.8617 53.2152 48.1734 52.5923 48.1045 52.5293C47.8275 52.5293 48.5883 53.428 49.5559 54.2577C50.388 54.8104 51.1452 55.5022 51.629 55.3632V55.3572Z" fill="#FEFEFE"/>
<path fill-rule="evenodd" clip-rule="evenodd" d="M50.9418 55.9808C50.9418 55.566 49.9742 55.0132 49.1444 54.3166C48.3837 53.626 47.762 52.9342 47.6241 52.8652C47.3471 52.8652 48.0389 53.7639 49.0066 54.6626C49.6972 55.3532 50.389 56.045 50.9418 55.9701V55.9808Z" fill="#FEFEFE"/>
<path fill-rule="evenodd" clip-rule="evenodd" d="M50.2524 56.6036C50.2524 56.1888 49.3537 55.636 48.524 54.8752C47.7632 54.1846 47.1415 53.4928 47.0036 53.4238C46.7267 53.4238 47.3496 54.3225 48.3112 55.2212C49.072 55.9118 49.7626 56.6726 50.2464 56.6036H50.2524Z" fill="#FEFEFE"/>
<path fill-rule="evenodd" clip-rule="evenodd" d="M49.4256 57.2252C49.4945 56.8104 48.5269 56.1887 47.7614 55.4279C46.9959 54.6671 46.4538 53.9765 46.3789 53.9076C46.1019 53.8386 46.7248 54.8752 47.6235 55.7738C48.2452 56.4645 48.8681 57.2942 49.4208 57.2252H49.4256Z" fill="#FEFEFE"/>
<path fill-rule="evenodd" clip-rule="evenodd" d="M48.3893 57.7784C48.4583 57.4324 47.6285 56.7418 46.9379 55.9121C46.5707 55.3688 46.154 54.8607 45.6933 54.3941C45.4865 54.3252 45.9002 55.2928 46.7299 56.2604C47.3516 57.0176 47.9055 57.7784 48.3893 57.7784Z" fill="#FEFEFE"/>
<path fill-rule="evenodd" clip-rule="evenodd" d="M47.6227 58.2606C47.6917 57.9147 46.9321 57.2241 46.3152 56.4633C45.6982 55.7025 45.2786 55.0119 45.2097 54.9429C45.0028 54.874 45.4165 55.8416 46.1083 56.8092C46.5921 57.4998 47.1449 58.2606 47.6287 58.2606H47.6227Z" fill="#FEFEFE"/>
<path fill-rule="evenodd" clip-rule="evenodd" d="M46.8563 58.6758C46.9942 58.3299 46.2346 57.6393 45.6117 56.8096C45.059 56.0488 44.6441 55.2892 44.5752 55.2203C44.3684 55.1513 44.7131 56.1189 45.4073 57.0865C45.8911 57.8473 46.3749 58.6758 46.8587 58.6758H46.8563Z" fill="#FEFEFE"/>
<path fill-rule="evenodd" clip-rule="evenodd" d="M46.1645 59.1595C46.3024 58.8136 45.6117 58.054 45.059 57.2243C44.5752 56.4635 44.1603 55.635 44.0914 55.5601C43.8845 55.4912 44.2293 56.4588 44.8521 57.4953C45.267 58.2561 45.6842 59.0846 46.1597 59.1595H46.1645Z" fill="#FEFEFE"/>
<path fill-rule="evenodd" clip-rule="evenodd" d="M45.3371 59.5059C45.475 59.16 44.8533 58.4694 44.3695 57.6397C43.9546 56.8789 43.6087 56.1193 43.5374 56.0504C43.3306 55.9814 43.6064 56.949 44.1591 57.9166C44.505 58.6774 44.8497 59.437 45.3335 59.5059H45.3371Z" fill="#FEFEFE"/>
<path fill-rule="evenodd" clip-rule="evenodd" d="M44.6571 59.852C44.795 59.5751 44.2422 58.7466 43.825 57.9168C43.4078 57.0871 43.1344 56.3275 43.0642 56.2526C42.8574 56.1148 43.0642 57.1513 43.548 58.1189C43.825 58.951 44.1697 59.7831 44.6535 59.8473L44.6571 59.852Z" fill="#FEFEFE"/>
<path fill-rule="evenodd" clip-rule="evenodd" d="M43.8138 60.335C43.9517 60.0581 43.3989 59.2295 43.053 58.3309C42.7071 57.4988 42.4313 56.7416 42.3624 56.6667C42.1555 56.5288 42.3624 57.5653 42.7772 58.6019C43.1231 59.3627 43.3989 60.1912 43.8138 60.3303V60.335Z" fill="#FEFEFE"/>
<path fill-rule="evenodd" clip-rule="evenodd" d="M43.0593 60.6812C43.2661 60.4042 42.7134 59.5757 42.3686 58.677C42.1322 58.1189 41.9472 57.5404 41.8159 56.9487C41.6091 56.8108 41.7469 57.7808 42.0929 58.8839C42.3698 59.716 42.6444 60.5481 43.0593 60.6812Z" fill="#FEFEFE"/>
<path fill-rule="evenodd" clip-rule="evenodd" d="M42.3681 60.9581C42.506 60.6811 42.0222 59.8526 41.6073 58.9539C41.2614 58.1218 41.0546 57.3646 40.9856 57.2897C40.7788 57.1518 40.9167 58.1884 41.3315 59.225C41.6774 59.9857 41.9532 60.8143 42.3681 60.9533V60.9581Z" fill="#FEFEFE"/>
<path fill-rule="evenodd" clip-rule="evenodd" d="M41.54 61.4425C41.6779 61.1655 41.194 60.337 40.7792 59.4383C40.4333 58.6062 40.2264 57.849 40.1575 57.7741C39.9507 57.6362 40.0885 58.6728 40.5034 59.7093C40.8493 60.4701 41.1251 61.2986 41.54 61.4377V61.4425Z" fill="#FEFEFE"/>
<path fill-rule="evenodd" clip-rule="evenodd" d="M40.7779 61.1659C40.9158 60.8889 40.432 60.2673 40.0171 59.5017C39.6712 58.8111 39.4644 58.1941 39.3954 58.1193C39.2576 58.0503 39.3954 58.88 39.8103 59.7086C40.0873 60.3992 40.3631 61.091 40.7779 61.16V61.1659Z" fill="#FEFEFE"/>
<path fill-rule="evenodd" clip-rule="evenodd" d="M52.4621 30.9525C52.124 31.2529 51.8606 31.6279 51.6927 32.0478C51.5247 32.4677 51.4569 32.9209 51.4945 33.3715C51.7714 33.8553 52.6 33.6485 53.3607 32.8188C53.6987 32.5184 53.9622 32.1434 54.1301 31.7235C54.2981 31.3036 54.3659 30.8504 54.3283 30.3998C54.0514 29.9159 53.2228 30.1228 52.4621 30.9525Z" fill="#FEFEFE"/>
<path fill-rule="evenodd" clip-rule="evenodd" d="M53.0872 33.6481C52.7962 33.893 52.5643 34.2005 52.4087 34.5475C52.2531 34.8945 52.1778 35.2721 52.1885 35.6523C52.3953 36.0671 53.0872 35.9293 53.7778 35.2374C54.0687 34.9925 54.3006 34.6851 54.4562 34.3381C54.6118 33.9911 54.6871 33.6134 54.6765 33.2333C54.4684 32.8184 53.7778 33.0264 53.0872 33.6481Z" fill="#FEFEFE"/>
<path fill-rule="evenodd" clip-rule="evenodd" d="M53.2964 36.275C52.5356 36.7588 51.9888 37.4494 52.0518 37.8643C52.1148 38.2791 52.8126 38.2791 53.5722 37.8643C54.3329 37.3805 54.8797 36.6898 54.8167 36.275C54.7478 35.7912 54.0572 35.7912 53.2964 36.275Z" fill="#FEFEFE"/>
<path fill-rule="evenodd" clip-rule="evenodd" d="M53.4321 38.63C52.7414 38.907 52.1875 39.4621 52.1875 39.8746C52.1875 40.2871 52.7403 40.3584 53.4321 40.0125C54.1239 39.6666 54.6767 39.1804 54.6767 38.7679C54.6767 38.422 54.1239 38.3531 53.4321 38.63Z" fill="#FEFEFE"/>
<path fill-rule="evenodd" clip-rule="evenodd" d="M52.6045 40.6328C51.9139 40.6328 51.297 40.8396 51.1531 41.1856C51.0093 41.5315 51.4301 41.8073 52.1207 41.8073C52.8114 41.8073 53.4283 41.6004 53.5721 41.2545C53.71 40.9775 53.2952 40.7018 52.6045 40.6328Z" fill="#FEFEFE"/>
<path fill-rule="evenodd" clip-rule="evenodd" d="M52.1853 42.3608C51.5636 42.2918 50.8777 42.3608 50.6649 42.6378C50.4521 42.9147 50.8718 43.1905 51.5636 43.3284C52.1853 43.3973 52.8712 43.3284 53.0839 43.0514C53.2967 42.7745 52.8771 42.4297 52.1853 42.3608Z" fill="#FEFEFE"/>
<path fill-rule="evenodd" clip-rule="evenodd" d="M51.4285 44.2286C50.8068 44.0907 50.1839 44.2286 50.046 44.5745C49.9081 44.8515 50.2529 45.1962 50.8068 45.2652C51.4285 45.403 52.0514 45.2652 52.1893 44.9192C52.3973 44.6435 52.0514 44.2975 51.4285 44.2286Z" fill="#FEFEFE"/>
<path fill-rule="evenodd" clip-rule="evenodd" d="M50.1704 45.6798C49.4797 45.5419 48.719 45.6798 48.5062 46.0257C48.2993 46.3027 48.713 46.6474 49.4738 46.7163C50.1644 46.8542 50.9252 46.7163 51.138 46.3704C51.277 46.0946 50.8622 45.7487 50.1704 45.6798Z" fill="#FEFEFE"/>
<path fill-rule="evenodd" clip-rule="evenodd" d="M49.6302 47.2696C49.0085 47.1317 48.3226 47.2696 48.1788 47.6155C47.9719 47.8925 48.3856 48.2372 49.0109 48.3062C49.6326 48.4441 50.3185 48.3062 50.4623 47.9603C50.6679 47.6845 50.322 47.3386 49.6302 47.2696Z" fill="#FEFEFE"/>
<path fill-rule="evenodd" clip-rule="evenodd" d="M48.8718 48.7217C48.6806 48.5973 48.4654 48.5145 48.2401 48.4789C48.0148 48.4433 47.7845 48.4555 47.5642 48.5149C47.3574 48.7217 47.5642 49.0677 48.048 49.347C48.2392 49.4715 48.4544 49.5542 48.6798 49.5898C48.9051 49.6255 49.1354 49.6132 49.3556 49.5538C49.6326 49.347 49.4245 49.0011 48.8718 48.7217Z" fill="#FEFEFE"/>
<path fill-rule="evenodd" clip-rule="evenodd" d="M48.0998 49.8975C47.685 49.5516 47.2012 49.3447 46.9254 49.4826C46.7186 49.6205 46.7875 50.0354 47.2024 50.3813C47.6172 50.7272 48.101 50.934 48.3768 50.7961C48.6526 50.726 48.5147 50.3123 48.0998 49.8975Z" fill="#FEFEFE"/>
<path fill-rule="evenodd" clip-rule="evenodd" d="M47.0743 51.0027C46.7284 50.5878 46.1756 50.312 45.8998 50.4499C45.6241 50.5878 45.693 51.0027 46.1067 51.4175C46.4526 51.8324 47.0053 52.1082 47.2811 51.9703C47.5569 51.8324 47.419 51.4175 47.0743 51.0027Z" fill="#FEFEFE"/>
<path fill-rule="evenodd" clip-rule="evenodd" d="M45.9001 52.1782C45.6231 51.6944 45.1393 51.3462 44.8635 51.4175C44.5878 51.4888 44.5866 51.9013 44.8635 52.3851C45.1405 52.8689 45.6243 53.2172 45.9001 53.1459C46.2448 53.0769 46.2448 52.6621 45.9001 52.1782Z" fill="#FEFEFE"/>
<path fill-rule="evenodd" clip-rule="evenodd" d="M44.7126 52.9379C44.4356 52.3852 43.9518 52.0393 43.676 52.1058C43.4003 52.1724 43.3991 52.6586 43.676 53.1424C43.953 53.6951 44.4368 54.041 44.7126 53.9745C45.0573 53.9055 44.9884 53.4919 44.7126 52.9379Z" fill="#FEFEFE"/>
<path fill-rule="evenodd" clip-rule="evenodd" d="M43.6726 53.7669C43.3956 53.2831 42.9118 52.8682 42.5671 52.9348C42.2901 53.0037 42.2901 53.4186 42.5671 53.9713C42.8441 54.4551 43.3279 54.87 43.6726 54.8034C44.0173 54.7369 44.0292 54.2507 43.6726 53.7669Z" fill="#FEFEFE"/>
<path fill-rule="evenodd" clip-rule="evenodd" d="M42.8532 54.6673C42.5762 54.1835 42.0924 53.7686 41.8167 53.8352C41.5409 53.9017 41.5397 54.319 41.8167 54.8717C42.0936 55.3555 42.5774 55.7704 42.8532 55.7038C43.129 55.6372 43.129 55.1511 42.8532 54.6673Z" fill="#FEFEFE"/>
<path fill-rule="evenodd" clip-rule="evenodd" d="M41.6699 55.2198C41.532 54.6671 41.1861 54.1833 40.9092 54.1833C40.6322 54.1143 40.4943 54.5292 40.6322 55.0819C40.7701 55.6347 41.116 56.1185 41.393 56.1185C41.6699 56.1874 41.809 55.7726 41.6699 55.2198Z" fill="#FEFEFE"/>
<path fill-rule="evenodd" clip-rule="evenodd" d="M40.6429 55.8415C40.6298 55.6141 40.5597 55.3936 40.439 55.2004C40.3183 55.0073 40.1509 54.8475 39.9523 54.736C39.6753 54.6671 39.4685 55.0819 39.6064 55.6347C39.6195 55.8621 39.6896 56.0825 39.8103 56.2757C39.931 56.4689 40.0984 56.6286 40.297 56.7402C40.5728 56.8091 40.7071 56.3943 40.6429 55.8415Z" fill="#FEFEFE"/>
<path fill-rule="evenodd" clip-rule="evenodd" d="M39.5365 56.396C39.5365 55.8433 39.2596 55.2906 38.9838 55.2216C38.708 55.1527 38.5 55.4986 38.5 56.0537C38.5 56.6088 38.777 57.1592 39.0527 57.2281C39.3321 57.3672 39.5365 57.0177 39.5365 56.396Z" fill="#FEFEFE"/>
<path fill-rule="evenodd" clip-rule="evenodd" d="M52.1772 28.8768C51.6243 29.4696 51.2631 30.2153 51.1406 31.0165C51.2096 31.5003 51.6934 31.3624 52.3151 30.6017C52.8679 30.0089 53.2292 29.2632 53.3516 28.462C53.2803 27.9782 52.8048 28.1161 52.1772 28.8768Z" fill="#FEFEFE"/>
<path fill-rule="evenodd" clip-rule="evenodd" d="M50.181 33.0959C49.6057 33.495 49.1898 34.0844 49.0066 34.7601C48.9376 35.175 49.4214 35.106 50.0431 34.6222C50.6184 34.2232 51.0343 33.6338 51.2176 32.958C51.2187 32.5432 50.8039 32.6121 50.181 33.0959Z" fill="#FEFEFE"/>
<path fill-rule="evenodd" clip-rule="evenodd" d="M50.806 34.7541C50.2307 35.1532 49.8148 35.7426 49.6316 36.4183C49.5626 36.8332 50.0464 36.7642 50.6681 36.2804C51.2434 35.8814 51.6593 35.292 51.8425 34.6163C51.9115 34.2014 51.4277 34.2703 50.806 34.7541Z" fill="#FEFEFE"/>
<path fill-rule="evenodd" clip-rule="evenodd" d="M51.218 36.7649C50.6138 37.1198 50.1316 37.65 49.8356 38.2852C49.7666 38.7001 50.1815 38.7001 50.8721 38.2852C51.4764 37.9303 51.9585 37.4001 52.2546 36.7649C52.3247 36.2763 51.8409 36.3453 51.218 36.7649Z" fill="#FEFEFE"/>
<path fill-rule="evenodd" clip-rule="evenodd" d="M51.0025 39.0461C50.4349 39.4227 49.9823 39.9488 49.695 40.5665C49.626 40.9813 50.0409 40.9813 50.6626 40.5665C51.2303 40.1899 51.6828 39.6638 51.9702 39.0461C52.1092 38.5576 51.6254 38.6265 51.0025 39.0461Z" fill="#FEFEFE"/>
<path fill-rule="evenodd" clip-rule="evenodd" d="M49.5579 41.6678C49.0741 41.9447 48.6592 42.4285 48.7258 42.7043C48.7924 42.9801 49.2096 42.9813 49.6934 42.7043C50.1772 42.4274 50.5921 41.9436 50.5255 41.6678C50.5255 41.392 50.0417 41.392 49.5579 41.6678Z" fill="#FEFEFE"/>
<path fill-rule="evenodd" clip-rule="evenodd" d="M49.6206 43.1211C49.0679 43.1211 48.5151 43.3279 48.4462 43.6049C48.3772 43.8819 48.7231 44.0887 49.3448 44.0887C49.8976 44.0887 50.4503 43.8819 50.5193 43.6049C50.5882 43.3279 50.1734 43.1211 49.6206 43.1211Z" fill="#FEFEFE"/>
<path fill-rule="evenodd" clip-rule="evenodd" d="M48.9414 44.5726C48.7745 44.478 48.5882 44.4226 48.3966 44.4107C48.2051 44.3987 48.0134 44.4305 47.8359 44.5036C47.6291 44.7105 47.9049 44.9874 48.3197 45.1943C48.4867 45.2889 48.673 45.3442 48.8645 45.3562C49.0561 45.3681 49.2478 45.3363 49.4252 45.2632C49.6321 45.0564 49.4252 44.7794 48.9414 44.5726Z" fill="#FEFEFE"/>
<path fill-rule="evenodd" clip-rule="evenodd" d="M47.9679 46.233C47.553 45.956 47.0692 45.8181 46.8624 46.0262C46.6555 46.2342 46.8624 46.5789 47.2772 46.9248C47.6921 47.2018 48.1759 47.3397 48.3827 47.1317C48.5896 46.9236 48.3827 46.51 47.9679 46.233Z" fill="#FEFEFE"/>
<path fill-rule="evenodd" clip-rule="evenodd" d="M47.2804 47.3385C46.8655 47.0615 46.3817 46.9236 46.1749 47.1316C45.968 47.3397 46.1749 47.6844 46.5897 48.0303C47.0046 48.3073 47.4884 48.4452 47.6952 48.2371C47.9021 48.0291 47.6952 47.6154 47.2804 47.3385Z" fill="#FEFEFE"/>
<path fill-rule="evenodd" clip-rule="evenodd" d="M46.453 48.6526C46.1761 48.3067 45.7624 48.1688 45.5544 48.3067C45.3463 48.4446 45.4165 48.7905 45.7612 49.1388C46.0382 49.4847 46.4518 49.6226 46.6599 49.4847C46.8679 49.3468 46.7989 48.9974 46.453 48.6526Z" fill="#FEFEFE"/>
<path fill-rule="evenodd" clip-rule="evenodd" d="M45.4062 49.5511C45.1292 49.2052 44.7155 49.0673 44.5075 49.2052C44.2995 49.3431 44.3696 49.689 44.7143 50.0373C44.9913 50.3832 45.405 50.5211 45.613 50.3832C45.821 50.2453 45.7521 49.8958 45.4062 49.5511Z" fill="#FEFEFE"/>
<path fill-rule="evenodd" clip-rule="evenodd" d="M44.3749 50.3812C44.0979 50.0352 43.6843 49.8974 43.4762 50.0352C43.2682 50.1731 43.3383 50.519 43.6831 50.8673C43.96 51.2132 44.3737 51.3511 44.5817 51.2132C44.7208 51.0718 44.6519 50.7259 44.3749 50.3812Z" fill="#FEFEFE"/>
<path fill-rule="evenodd" clip-rule="evenodd" d="M43.5419 51.2783C43.475 51.1378 43.3654 51.022 43.2288 50.9475C43.0922 50.873 42.9355 50.8436 42.7811 50.8635C42.5743 50.9324 42.6432 51.2783 42.8501 51.6242C42.917 51.7648 43.0266 51.8805 43.1632 51.955C43.2998 52.0295 43.4565 52.059 43.6109 52.0391C43.7487 51.9701 43.7487 51.6242 43.5419 51.2783Z" fill="#FEFEFE"/>
<path fill-rule="evenodd" clip-rule="evenodd" d="M42.7776 52.0399C42.6397 51.694 42.2938 51.4183 42.0869 51.4872C41.8801 51.5561 41.8801 51.9021 42.018 52.248C42.1559 52.5939 42.5018 52.8697 42.7086 52.8007C42.9154 52.7318 42.919 52.4548 42.7776 52.0399Z" fill="#FEFEFE"/>
<path fill-rule="evenodd" clip-rule="evenodd" d="M41.8088 52.7313C41.6709 52.3854 41.325 52.1097 41.1182 52.1786C40.9113 52.2475 40.9113 52.5935 41.0492 52.9394C41.1871 53.2853 41.533 53.5611 41.7399 53.4921C41.9467 53.4232 42.0168 53.0761 41.8088 52.7313Z" fill="#FEFEFE"/>
<path fill-rule="evenodd" clip-rule="evenodd" d="M40.981 53.4211C40.9121 53.0752 40.7041 52.7305 40.4972 52.7305C40.2904 52.7305 40.1513 53.0074 40.2904 53.4211C40.3593 53.767 40.5674 54.1117 40.7742 54.1117C40.8727 54.0297 40.9449 53.9204 40.9816 53.7976C41.0184 53.6748 41.0182 53.5438 40.981 53.4211Z" fill="#FEFEFE"/>
<path fill-rule="evenodd" clip-rule="evenodd" d="M39.9483 53.9764C39.9483 53.6305 39.8104 53.2156 39.6024 53.2156C39.3955 53.1467 39.1875 53.4225 39.1875 53.8373C39.1875 54.1832 39.3254 54.5981 39.5334 54.5981C39.7414 54.5981 39.9483 54.3913 39.9483 53.9764Z" fill="#FEFEFE"/>
<path fill-rule="evenodd" clip-rule="evenodd" d="M39.6789 52.5234C39.6789 52.2465 39.541 51.9707 39.402 51.9707C39.2629 51.9707 39.125 52.1775 39.125 52.4545C39.125 52.7315 39.2629 53.0073 39.402 53.0073C39.541 53.0073 39.6789 52.8028 39.6789 52.5234Z" fill="#FEFEFE"/>
<path fill-rule="evenodd" clip-rule="evenodd" d="M40.4329 52.1088C40.364 51.8318 40.2261 51.625 40.087 51.625C39.9479 51.625 39.8802 51.8318 39.9491 52.1088C40.0181 52.3858 40.1559 52.5926 40.295 52.5926C40.4329 52.6615 40.5019 52.3858 40.4329 52.1088Z" fill="#FEFEFE"/>
<path fill-rule="evenodd" clip-rule="evenodd" d="M40.9935 51.5568C40.8556 51.2799 40.6476 51.142 40.5097 51.2109C40.3718 51.2799 40.3718 51.4879 40.5097 51.7637C40.6476 52.0394 40.8556 52.1785 40.9935 52.1096C41.1314 52.0406 41.1325 51.7637 40.9935 51.5568Z" fill="#FEFEFE"/>
<path fill-rule="evenodd" clip-rule="evenodd" d="M41.8216 51.0725C41.6837 50.7955 41.4757 50.6576 41.3378 50.7265C41.1999 50.7955 41.1999 51.0035 41.3378 51.2793C41.4757 51.5551 41.6837 51.6942 41.8216 51.6252C41.9595 51.5563 41.9607 51.2793 41.8216 51.0725Z" fill="#FEFEFE"/>
<path fill-rule="evenodd" clip-rule="evenodd" d="M42.3745 50.4504C42.1677 50.2435 41.9596 50.1044 41.8217 50.2435C41.6838 50.3826 41.7528 50.5205 41.9596 50.7273C42.1665 50.9342 42.3745 51.0732 42.5124 50.9342C42.6503 50.8652 42.5861 50.6572 42.3745 50.4504Z" fill="#FEFEFE"/>
<path fill-rule="evenodd" clip-rule="evenodd" d="M42.9839 49.8976C42.777 49.6908 42.569 49.5517 42.4311 49.6908C42.2932 49.7597 42.3622 49.9678 42.569 50.1746C42.7758 50.3814 42.9839 50.5205 43.1218 50.3814C43.1955 50.3125 43.1954 50.1045 42.9839 49.8976Z" fill="#FEFEFE"/>
<path fill-rule="evenodd" clip-rule="evenodd" d="M43.8249 48.999C43.618 48.722 43.2721 48.5842 43.1342 48.722C42.9963 48.791 43.0653 49.1369 43.2721 49.3437C43.479 49.6207 43.8249 49.7586 43.9628 49.6207C44.1708 49.5518 44.1007 49.2748 43.8249 48.999Z" fill="#FEFEFE"/>
<path fill-rule="evenodd" clip-rule="evenodd" d="M44.7203 48.0282C44.6295 47.9187 44.5111 47.8354 44.3774 47.7867C44.2438 47.738 44.0995 47.7258 43.9596 47.7512C43.8217 47.8891 43.8906 48.1661 44.1664 48.4418C44.2573 48.5513 44.3756 48.6346 44.5093 48.6833C44.643 48.732 44.7872 48.7442 44.9272 48.7188C45.0651 48.5809 44.9961 48.3039 44.7203 48.0282Z" fill="#FEFEFE"/>
<path fill-rule="evenodd" clip-rule="evenodd" d="M45.6238 47.0615C45.3468 46.7845 44.9331 46.6467 44.7251 46.7845C44.5171 46.9224 44.6562 47.2684 44.9319 47.5453C45.2077 47.8223 45.6226 47.9602 45.8306 47.8223C45.9638 47.6832 45.8948 47.3373 45.6238 47.0615Z" fill="#FEFEFE"/>
<path fill-rule="evenodd" clip-rule="evenodd" d="M46.2488 45.749C45.9718 45.472 45.5581 45.3342 45.3501 45.472C45.1421 45.6099 45.2812 45.9558 45.557 46.2328C45.8327 46.5098 46.2476 46.6477 46.4556 46.5098C46.6636 46.3719 46.5198 46.0248 46.2488 45.749Z" fill="#FEFEFE"/>
<path fill-rule="evenodd" clip-rule="evenodd" d="M46.8631 44.3661C46.4482 44.1592 46.031 44.1592 45.9644 44.3661C45.8265 44.5729 46.0334 44.8499 46.4482 44.9878C46.8631 45.1946 47.2803 45.1946 47.3469 44.9878C47.4848 44.8499 47.2779 44.5729 46.8631 44.3661Z" fill="#FEFEFE"/>
<path fill-rule="evenodd" clip-rule="evenodd" d="M47.3513 42.8457C46.8675 42.8457 46.3837 43.0525 46.3837 43.3295C46.3148 43.6065 46.6607 43.8133 47.2158 43.8133C47.6996 43.8133 48.1834 43.6065 48.1834 43.3295C48.2524 43.1227 47.8375 42.9146 47.3513 42.8457Z" fill="#FEFEFE"/>
<path fill-rule="evenodd" clip-rule="evenodd" d="M47.8334 41.2546C47.2807 41.3925 46.7969 41.6694 46.7969 42.0153C46.7969 42.2923 47.2807 42.4302 47.9024 42.2923C48.4551 42.1544 48.9389 41.8775 48.9389 41.5315C48.9389 41.1856 48.3862 41.1155 47.8334 41.2546Z" fill="#FEFEFE"/>
<path fill-rule="evenodd" clip-rule="evenodd" d="M48.3867 39.1109C47.7651 39.2488 47.2812 39.5947 47.2812 40.0095C47.2812 40.4244 47.6961 40.6312 48.3178 40.4933C48.9395 40.3554 49.4233 40.0095 49.4233 39.5947C49.4209 39.2488 48.9454 39.0419 48.3867 39.1109Z" fill="#FEFEFE"/>
<path fill-rule="evenodd" clip-rule="evenodd" d="M47.8911 37.6581C47.3384 38.1419 46.9924 38.7636 47.2694 38.9657C47.4763 39.1725 48.1681 38.9657 48.7898 38.4819C49.3425 37.9981 49.6884 37.3764 49.4115 37.1743C49.1357 36.8985 48.445 37.1054 47.8911 37.6581Z" fill="#FEFEFE"/>
<path fill-rule="evenodd" clip-rule="evenodd" d="M47.8918 35.7927C47.408 36.2765 47.2011 36.8292 47.408 37.0373C47.6148 37.2453 48.2401 37.0372 48.7155 36.5534C49.191 36.0696 49.4062 35.5169 49.1993 35.3089C48.9925 35.1008 48.3756 35.3089 47.8918 35.7927Z" fill="#FEFEFE"/>
<path fill-rule="evenodd" clip-rule="evenodd" d="M45.6105 37.9355C45.1267 38.4193 44.9199 38.972 45.1267 39.1801C45.3336 39.3881 45.9588 39.1801 46.4343 38.6962C46.9098 38.2124 47.1249 37.6597 46.9181 37.4517C46.7113 37.2436 46.086 37.5206 45.6105 37.9355Z" fill="#FEFEFE"/>
<path fill-rule="evenodd" clip-rule="evenodd" d="M45.6157 39.3872C44.994 39.5251 44.5792 39.802 44.6481 40.0778C44.717 40.3536 45.2698 40.4237 45.8225 40.2847C46.4442 40.1468 46.8591 39.8698 46.7901 39.594C46.7224 39.3872 46.2386 39.3182 45.6157 39.3872Z" fill="#FEFEFE"/>
<path fill-rule="evenodd" clip-rule="evenodd" d="M45.6157 40.6312C44.994 40.7002 44.5792 40.9771 44.6481 41.2529C44.717 41.5287 45.2008 41.6678 45.8225 41.5299C46.4442 41.4609 46.8591 41.184 46.7901 40.9082C46.7224 40.7002 46.1696 40.5623 45.6157 40.6312Z" fill="#FEFEFE"/>
<path fill-rule="evenodd" clip-rule="evenodd" d="M45.2709 42.0156C44.7182 42.0156 44.2344 42.2225 44.2344 42.4305C44.2344 42.7075 44.7182 42.8453 45.3399 42.9143C45.8926 42.9143 46.3764 42.7074 46.3764 42.4994C46.3075 42.2225 45.8237 42.0156 45.2709 42.0156Z" fill="#FEFEFE"/>
<path fill-rule="evenodd" clip-rule="evenodd" d="M45.0665 43.2578C44.5827 43.2578 44.2344 43.3957 44.2344 43.6037C44.2344 43.8118 44.6492 43.9496 45.0665 43.9496C45.5503 43.9496 45.8986 43.8118 45.8986 43.6037C45.8986 43.4658 45.4837 43.2578 45.0665 43.2578Z" fill="#FEFEFE"/>
<path fill-rule="evenodd" clip-rule="evenodd" d="M44.7195 44.435C44.3046 44.2971 43.8874 44.3661 43.8208 44.5729C43.7542 44.7797 44.0978 45.1257 44.5114 45.2635C44.9251 45.4014 45.3435 45.3325 45.4101 45.1257C45.479 44.8499 45.1343 44.5741 44.7195 44.435Z" fill="#FEFEFE"/>
<path fill-rule="evenodd" clip-rule="evenodd" d="M44.2373 45.6084C43.8225 45.4015 43.4052 45.4015 43.3387 45.6773C43.2697 45.8842 43.5455 46.2301 43.9604 46.4381C44.3752 46.6461 44.7925 46.6449 44.859 46.3691C44.9292 46.1623 44.6546 45.8164 44.2373 45.6084Z" fill="#FEFEFE"/>
<path fill-rule="evenodd" clip-rule="evenodd" d="M43.6182 46.5771C43.2723 46.3703 42.9276 46.3002 42.8575 46.5082C42.7873 46.7162 42.9954 46.992 43.2723 47.269C43.6182 47.4758 43.963 47.5459 44.0331 47.3379C44.171 47.1311 43.9642 46.7852 43.6182 46.5771Z" fill="#FEFEFE"/>
<path fill-rule="evenodd" clip-rule="evenodd" d="M42.9891 47.4776C42.7122 47.2707 42.3674 47.2707 42.2985 47.4086C42.2295 47.5465 42.3674 47.8924 42.7133 48.0303C42.9903 48.2371 43.335 48.2371 43.404 48.0992C43.4729 48.0303 43.335 47.6844 42.9891 47.4776Z" fill="#FEFEFE"/>
<path fill-rule="evenodd" clip-rule="evenodd" d="M42.4422 48.169C42.1653 47.9621 41.8206 47.9621 41.7516 48.1C41.6827 48.2379 41.8205 48.5838 42.1665 48.7217C42.4434 48.9285 42.7882 48.9285 42.8571 48.7906C42.926 48.6528 42.7145 48.3758 42.4422 48.169Z" fill="#FEFEFE"/>
<path fill-rule="evenodd" clip-rule="evenodd" d="M41.8797 48.8584C41.6028 48.6516 41.2581 48.6516 41.1891 48.7895C41.1202 48.9273 41.258 49.2733 41.604 49.4112C41.8809 49.618 42.2257 49.618 42.2946 49.4801C42.3635 49.3422 42.152 49.0652 41.8797 48.8584Z" fill="#FEFEFE"/>
<path fill-rule="evenodd" clip-rule="evenodd" d="M41.3334 49.5517C41.1266 49.2748 40.8496 49.1369 40.7118 49.2748C40.5739 49.4127 40.7118 49.7586 40.9186 50.0355C41.1254 50.3125 41.4024 50.4504 41.5403 50.3125C41.5684 50.1784 41.5643 50.0395 41.5284 49.9072C41.4924 49.775 41.4256 49.6532 41.3334 49.5517Z" fill="#FEFEFE"/>
<path fill-rule="evenodd" clip-rule="evenodd" d="M40.6459 50.1728C40.4391 49.8959 40.1621 49.758 40.0243 49.8959C39.8864 50.0338 40.0243 50.3797 40.2311 50.6566C40.4379 50.9336 40.7149 51.0715 40.8528 50.9336C40.8775 50.7994 40.8718 50.6614 40.836 50.5297C40.8002 50.398 40.7352 50.276 40.6459 50.1728Z" fill="#FEFEFE"/>
<path fill-rule="evenodd" clip-rule="evenodd" d="M61.9307 21.5487C60.6231 21.3418 59.791 24.5214 58.2671 27.2872C56.8846 29.8449 55.2264 31.8509 55.1562 32.1957C55.2941 33.0946 57.7132 31.1588 59.5794 28.047C61.0308 25.6272 62.7592 23.4833 61.9295 21.5475L61.9307 21.5487Z" fill="#FEFEFE"/>
<path fill-rule="evenodd" clip-rule="evenodd" d="M60.1343 16.9852C58.7519 16.9852 58.337 20.7189 57.2315 24.1066C56.126 27.2185 54.8125 29.7762 54.8125 30.1222C55.0895 31.0901 57.3005 28.4575 58.8208 24.5906C59.8574 21.7558 61.3088 18.99 60.1284 16.9805L60.1343 16.9852Z" fill="#FEFEFE"/>
<path fill-rule="evenodd" clip-rule="evenodd" d="M57.236 11.3163C57.1671 11.2473 56.8212 11.1784 56.8212 11.2473C54.817 13.5981 56.3374 16.295 55.7157 20.5126C55.094 24.4533 53.9183 27.772 53.9873 28.256C54.4021 29.3618 56.3374 25.0062 57.5118 20.6458C58.4794 17.05 58.6173 13.3175 57.2348 11.3115L57.236 11.3163Z" fill="#FEFEFE"/>
<path fill-rule="evenodd" clip-rule="evenodd" d="M53.5631 9.24186C53.0307 7.38098 52.1165 5.65145 50.8789 4.1635C49.6413 2.67555 48.1074 1.4618 46.375 0.599609C56.674 11.3858 54.6686 20.6499 53.0104 27.1494C53.6321 28.0484 54.7387 23.3444 55.0835 18.8532C55.3604 15.1195 54.7376 13.4595 53.5631 9.24186Z" fill="#FEFEFE"/>
<path fill-rule="evenodd" clip-rule="evenodd" d="M37.1848 59.3691C37.1158 59.3691 37.0469 59.7151 37.0469 60.2012C37.0469 60.6874 37.1158 61.0333 37.1848 61.0333C37.2537 61.0333 37.3227 60.6874 37.3227 60.2012C37.3227 59.7151 37.2537 59.3691 37.1848 59.3691Z" fill="#FEFEFE"/>
<path fill-rule="evenodd" clip-rule="evenodd" d="M36.7629 59.9219C36.694 59.9219 36.625 60.2678 36.625 60.754C36.625 61.2401 36.694 61.5861 36.7629 61.5861C36.8318 61.5861 36.9008 61.2401 36.9008 60.754C36.9008 60.2678 36.8318 59.9219 36.7629 59.9219Z" fill="#FEFEFE"/>
<path fill-rule="evenodd" clip-rule="evenodd" d="M36.216 60.1992C36.1471 60.1992 36.0781 60.5451 36.0781 61.0313C36.0781 61.4462 36.1471 61.8634 36.216 61.8634C36.285 61.8634 36.3539 61.5175 36.3539 61.0313C36.3539 60.5451 36.285 60.1992 36.216 60.1992Z" fill="#FEFEFE"/>
<path fill-rule="evenodd" clip-rule="evenodd" d="M35.5285 60.6133C35.4596 60.6133 35.3906 60.9592 35.3906 61.4454C35.3906 61.8602 35.4596 62.2775 35.5285 62.2775C35.5975 62.2775 35.6664 61.9316 35.6664 61.4454C35.6676 61.0281 35.5975 60.6133 35.5285 60.6133Z" fill="#FEFEFE"/>
<path fill-rule="evenodd" clip-rule="evenodd" d="M34.966 60.8223C34.8971 60.8223 34.8281 61.1682 34.8281 61.6544C34.8281 62.1405 34.8971 62.4865 34.966 62.4865C35.035 62.4865 35.1039 62.1405 35.1039 61.6544C35.1039 61.1682 35.035 60.8223 34.966 60.8223Z" fill="#FEFEFE"/>
<path fill-rule="evenodd" clip-rule="evenodd" d="M34.4816 60.8906C34.4127 60.8906 34.3438 61.2365 34.3438 61.7227C34.3438 62.1376 34.4127 62.5548 34.4816 62.5548C34.5506 62.5548 34.6195 62.2089 34.6195 61.7227C34.6207 61.3055 34.5506 60.8906 34.4816 60.8906Z" fill="#FEFEFE"/>
<path fill-rule="evenodd" clip-rule="evenodd" d="M33.8723 61.166C33.8033 61.166 33.7344 61.5119 33.7344 61.9981C33.7344 62.413 33.8033 62.8302 33.8723 62.8302C33.9412 62.8302 34.0102 62.4843 34.0102 61.9981C34.0102 61.5119 33.9412 61.166 33.8723 61.166Z" fill="#FEFEFE"/>
<path fill-rule="evenodd" clip-rule="evenodd" d="M33.3879 61.2344C33.319 61.2344 33.25 61.5803 33.25 62.0665C33.25 62.4813 33.319 62.8986 33.3879 62.8986C33.4568 62.8986 33.5258 62.5526 33.5258 62.0665C33.4568 61.5803 33.4568 61.2344 33.3879 61.2344Z" fill="#FEFEFE"/>
<path fill-rule="evenodd" clip-rule="evenodd" d="M32.7629 61.375C32.6939 61.375 32.625 61.7209 32.625 62.2071C32.625 62.6933 32.6939 63.0392 32.7629 63.0392C32.8318 63.0392 32.9008 62.6933 32.9008 62.2071C32.9008 61.7209 32.8318 61.375 32.7629 61.375Z" fill="#FEFEFE"/>
<path fill-rule="evenodd" clip-rule="evenodd" d="M34.0711 58.6094C33.8643 58.6094 33.6562 59.0242 33.6562 59.577C33.6562 60.1297 33.8631 60.5446 34.0711 60.5446C34.2791 60.5446 34.486 60.1297 34.486 59.577C34.486 59.0242 34.3469 58.6094 34.0711 58.6094Z" fill="#FEFEFE"/>
<path fill-rule="evenodd" clip-rule="evenodd" d="M35.174 58.2617C34.9672 58.2617 34.8281 58.6766 34.8281 59.1604C34.8281 59.6442 34.966 60.059 35.174 60.059C35.3821 60.059 35.52 59.6442 35.52 59.1604C35.5889 58.6766 35.3809 58.2617 35.174 58.2617Z" fill="#FEFEFE"/>
<path fill-rule="evenodd" clip-rule="evenodd" d="M36.2225 57.7793C36.0846 57.7793 36.0156 58.1942 36.0156 58.678C36.0156 59.1618 36.0846 59.5766 36.2225 59.5766C36.3604 59.5766 36.4293 59.1618 36.4293 58.678C36.4293 58.1942 36.3615 57.7793 36.2225 57.7793Z" fill="#FEFEFE"/>
<path fill-rule="evenodd" clip-rule="evenodd" d="M36.9816 57.2246C36.9127 57.2246 36.8438 57.6395 36.8438 58.1233C36.8438 58.6071 36.9127 59.0219 36.9816 59.0219C37.0506 59.0219 37.1195 58.6071 37.1195 58.1233C37.1897 57.6395 37.1207 57.2246 36.9816 57.2246Z" fill="#FEFEFE"/>
<path fill-rule="evenodd" clip-rule="evenodd" d="M36.5582 55.0117C36.4203 55.0117 36.2812 55.4266 36.2812 55.9104C36.2812 56.3942 36.4191 56.809 36.5582 56.809C36.6973 56.809 36.8352 56.3942 36.8352 55.9104C36.8352 55.4266 36.6961 55.0117 36.5582 55.0117Z" fill="#FEFEFE"/>
<path fill-rule="evenodd" clip-rule="evenodd" d="M35.5959 55.4277C35.3891 55.4277 35.25 55.8426 35.25 56.3264C35.25 56.8102 35.3879 57.2251 35.5959 57.2251C35.8039 57.2251 35.9418 56.8102 35.9418 56.3264C35.9418 55.8426 35.8027 55.4277 35.5959 55.4277Z" fill="#FEFEFE"/>
<path fill-rule="evenodd" clip-rule="evenodd" d="M34.2742 55.7734C33.9973 55.7734 33.8594 56.2572 33.8594 56.8789C33.8594 57.5006 34.0662 57.9844 34.2742 57.9844C34.5512 57.9844 34.6891 57.5006 34.6891 56.8789C34.6915 56.3262 34.55 55.7734 34.2742 55.7734Z" fill="#FEFEFE"/>
<path fill-rule="evenodd" clip-rule="evenodd" d="M37.4568 54.5977C37.3189 54.5977 37.25 55.0125 37.25 55.4963C37.25 55.9801 37.3189 56.395 37.4568 56.395C37.5947 56.395 37.6637 55.9801 37.6637 55.4963C37.6961 55.1821 37.6234 54.866 37.4568 54.5977Z" fill="#FEFEFE"/>
<path fill-rule="evenodd" clip-rule="evenodd" d="M38.0129 54.3906C37.9439 54.3906 37.875 54.6676 37.875 55.0123C37.875 55.357 37.9439 55.634 38.0129 55.634C38.0818 55.634 38.1508 55.357 38.1508 55.0123C38.1508 54.6676 38.152 54.3906 38.0129 54.3906Z" fill="#FEFEFE"/>
<path fill-rule="evenodd" clip-rule="evenodd" d="M37.2586 51.5566C36.9816 51.5566 36.8438 52.1094 36.8438 52.8642C36.8438 53.5549 37.0506 54.1718 37.2586 54.1718C37.5356 54.1718 37.6735 53.619 37.6735 52.8642C37.6735 52.1094 37.5344 51.5566 37.2586 51.5566Z" fill="#FEFEFE"/>
<path fill-rule="evenodd" clip-rule="evenodd" d="M38.3615 51.1406C38.1547 51.1406 38.0156 51.5555 38.0156 52.1082C38.0156 52.661 38.1535 53.0758 38.3615 53.0758C38.5696 53.0758 38.7075 52.661 38.7075 52.1082C38.7075 51.5555 38.5684 51.1406 38.3615 51.1406Z" fill="#FEFEFE"/>
<path fill-rule="evenodd" clip-rule="evenodd" d="M35.9461 51.9023C35.6691 51.9023 35.5312 52.4551 35.5312 53.2099C35.5312 53.9006 35.7381 54.5175 35.9461 54.5175C36.2231 54.5175 36.361 53.9647 36.361 53.2099C36.3633 52.524 36.2219 51.9023 35.9461 51.9023Z" fill="#FEFEFE"/>
<path fill-rule="evenodd" clip-rule="evenodd" d="M34.2779 52.3164C33.932 52.3164 33.6562 52.8692 33.6562 53.624C33.6562 54.3146 33.9332 54.9316 34.2779 54.9316C34.6227 54.9316 34.8996 54.3788 34.8996 53.624C34.8307 52.9381 34.6239 52.3164 34.2779 52.3164Z" fill="#FEFEFE"/>
<path fill-rule="evenodd" clip-rule="evenodd" d="M34.1465 48.375C33.8695 48.375 33.5938 49.0656 33.5938 49.9643C33.5938 50.863 33.8707 51.5536 34.1465 51.5536C34.4223 51.5536 34.6992 50.863 34.6992 49.9643C34.6992 49.0656 34.4258 48.375 34.1465 48.375Z" fill="#FEFEFE"/>
<path fill-rule="evenodd" clip-rule="evenodd" d="M35.7274 48.3066C35.4504 48.3066 35.3125 48.9283 35.3125 49.6891C35.3125 50.4499 35.5193 51.0716 35.7274 51.0716C36.0043 51.0716 36.1422 50.4499 36.1422 49.6891C36.1422 48.9283 35.9342 48.3066 35.7274 48.3066Z" fill="#FEFEFE"/>
<path fill-rule="evenodd" clip-rule="evenodd" d="M37.118 48.168C36.9112 48.168 36.7031 48.7897 36.7031 49.5504C36.7031 50.3112 36.841 50.9329 37.118 50.9329C37.3248 50.9329 37.5328 50.3112 37.5328 49.5504C37.4639 48.7897 37.3248 48.168 37.118 48.168Z" fill="#FEFEFE"/>
<path fill-rule="evenodd" clip-rule="evenodd" d="M38.493 47.5469C38.2862 47.5469 38.0781 48.1686 38.0781 48.9293C38.0781 49.6901 38.216 50.3118 38.493 50.3118C38.6998 50.3118 38.9078 49.6901 38.9078 48.9293C38.8389 48.0996 38.6998 47.5469 38.493 47.5469Z" fill="#FEFEFE"/>
<path fill-rule="evenodd" clip-rule="evenodd" d="M39.8147 46.9922C39.6078 46.9922 39.4688 47.6139 39.4688 48.3747C39.4688 49.1354 39.6066 49.7571 39.8147 49.7571C40.0227 49.7571 40.1606 49.1354 40.1606 48.3747C40.0904 47.5449 39.9526 46.9922 39.8147 46.9922Z" fill="#FEFEFE"/>
<path fill-rule="evenodd" clip-rule="evenodd" d="M33.5969 44.8496C33.251 44.8496 32.9062 45.5402 32.9062 46.4389C32.9062 47.3376 33.1832 48.0282 33.5969 48.0282C33.9428 48.0282 34.2875 47.3376 34.2875 46.4389C34.2875 45.5402 33.9428 44.8496 33.5969 44.8496Z" fill="#FEFEFE"/>
<path fill-rule="evenodd" clip-rule="evenodd" d="M34.759 44.5721C34.482 44.6411 34.4131 45.4042 34.6211 46.2363C34.8291 47.0684 35.1739 47.6878 35.5198 47.5439C35.7968 47.475 35.8657 46.7118 35.6577 45.8797C35.4496 45.0476 35.036 44.4343 34.759 44.5721Z" fill="#FEFEFE"/>
<path fill-rule="evenodd" clip-rule="evenodd" d="M35.9465 44.5777C35.6695 44.6466 35.6006 45.3385 35.8086 46.098C36.0166 46.8576 36.3614 47.4056 36.5694 47.3426C36.8464 47.2737 36.9153 46.5818 36.7073 45.8223C36.5694 44.9878 36.2235 44.504 35.9465 44.5777Z" fill="#FEFEFE"/>
<path fill-rule="evenodd" clip-rule="evenodd" d="M37.0539 44.365C36.8471 44.434 36.7769 45.0557 36.916 45.7475C37.0551 46.4393 37.3998 46.9219 37.6067 46.853C37.8135 46.784 37.8836 46.1623 37.7445 45.4705C37.6055 44.7787 37.3297 44.2271 37.0539 44.365Z" fill="#FEFEFE"/>
<path fill-rule="evenodd" clip-rule="evenodd" d="M38.007 43.818C37.8002 43.8869 37.7301 44.5086 37.8691 45.2004C38.0082 45.8923 38.3529 46.3749 38.5598 46.3059C38.7666 46.237 38.8367 45.6153 38.6977 44.9235C38.6335 44.2281 38.2828 43.7443 38.007 43.818Z" fill="#FEFEFE"/>
<path fill-rule="evenodd" clip-rule="evenodd" d="M32.9057 41.8066C32.6287 41.8066 32.4219 42.3594 32.4219 43.0512C32.4219 43.7431 32.6287 44.2958 32.9057 44.2958C33.1826 44.2958 33.3895 43.7431 33.3895 43.0512C33.3895 42.3594 33.1826 41.8066 32.9057 41.8066Z" fill="#FEFEFE"/>
<path fill-rule="evenodd" clip-rule="evenodd" d="M34.2095 41.668C33.9325 41.668 33.7257 42.2897 33.7946 42.9755C33.8636 43.6614 34.0716 44.2201 34.3474 44.2201C34.6231 44.2201 34.8312 43.5984 34.7622 42.9125C34.7622 42.2207 34.4853 41.668 34.2095 41.668Z" fill="#FEFEFE"/>
<path fill-rule="evenodd" clip-rule="evenodd" d="M32.4149 38.834C32.1379 38.834 32 39.3867 32 40.0786C32 40.7704 32.277 41.3231 32.4838 41.3231C32.6906 41.3231 32.8987 40.7704 32.8987 40.0786C32.8987 39.3867 32.6906 38.834 32.4149 38.834Z" fill="#FEFEFE"/>
<path fill-rule="evenodd" clip-rule="evenodd" d="M33.5178 38.834C33.311 38.834 33.1719 39.3178 33.1719 39.9395C33.2408 40.5612 33.4489 41.045 33.6557 41.045C33.8625 41.045 34.0016 40.5612 34.0016 39.9395C33.9326 39.3178 33.7246 38.834 33.5178 38.834Z" fill="#FEFEFE"/>
<path fill-rule="evenodd" clip-rule="evenodd" d="M34.4131 38.834C34.2752 38.834 34.1361 39.3178 34.2063 39.8705C34.2764 40.4233 34.4833 40.8381 34.6211 40.8381C34.759 40.8381 34.8981 40.3543 34.828 39.8016C34.7578 39.2488 34.6211 38.834 34.4131 38.834Z" fill="#FEFEFE"/>
<path fill-rule="evenodd" clip-rule="evenodd" d="M33.2407 36C32.9637 36 32.7569 36.4838 32.8259 37.0366C32.8948 37.5893 33.1718 38.0731 33.4475 38.0731C33.7233 38.0731 33.9314 37.5893 33.8624 37.0366C33.7935 36.4149 33.5165 36 33.2407 36Z" fill="#FEFEFE"/>
<path fill-rule="evenodd" clip-rule="evenodd" d="M37.4688 59.0209L37.8836 57.4316C38.6444 59.4358 39.335 61.1642 40.9243 62.3386C42.5885 61.7859 42.9974 63.0994 43.064 63.859C43.064 63.9279 42.8572 63.859 42.787 63.859C42.5101 62.8224 41.1977 62.4076 40.16 63.5131C40.091 63.4441 39.883 63.3752 39.9531 63.2361C40.0221 62.9591 40.5059 62.6144 40.5059 62.6144C39.1883 61.7121 38.1389 60.4705 37.4688 59.0209Z" fill="#FEFEFE"/>
<path fill-rule="evenodd" clip-rule="evenodd" d="M39.951 51.0024C39.8131 50.7255 39.674 50.5186 39.5361 50.5876C39.3982 50.6565 39.3982 50.9335 39.4672 51.2782C39.605 51.5552 39.7441 51.762 39.882 51.6931C39.9474 51.5916 39.9877 51.4761 39.9997 51.3561C40.0117 51.236 39.995 51.1148 39.951 51.0024Z" fill="#FEFEFE"/>
<path fill-rule="evenodd" clip-rule="evenodd" d="M32.0656 45.4023C31.7197 45.4023 31.375 46.093 31.375 46.9916C31.375 47.8903 31.652 48.5809 32.0656 48.5809C32.4793 48.5809 32.7563 47.8903 32.7563 46.9916C32.7563 46.093 32.4116 45.4023 32.0656 45.4023Z" fill="#FEFEFE"/>
<path fill-rule="evenodd" clip-rule="evenodd" d="M32.0665 48.998C31.5827 48.998 31.2344 49.7588 31.2344 50.7264C31.2344 51.694 31.6492 52.4548 32.0665 52.4548C32.5503 52.4548 32.8986 51.694 32.8986 50.7264C32.9627 49.7588 32.5419 48.998 32.0665 48.998Z" fill="#FEFEFE"/>
<path fill-rule="evenodd" clip-rule="evenodd" d="M31.3759 52.8008C31.03 52.8697 30.7542 53.4914 30.8231 54.3211C30.8921 55.0819 31.238 55.7036 31.5839 55.6287C31.9298 55.5538 32.2056 54.9381 32.1367 54.1084C32.0665 53.3535 31.7206 52.8008 31.3759 52.8008Z" fill="#FEFEFE"/>
<path fill-rule="evenodd" clip-rule="evenodd" d="M32.9654 52.8691C33.2424 52.8691 33.5182 53.4219 33.5182 54.2516C33.5182 55.0124 33.2412 55.703 32.8965 55.703C32.6195 55.703 32.3438 55.1503 32.3438 54.3206C32.4127 53.5598 32.6897 52.9381 32.9654 52.8691Z" fill="#FEFEFE"/>
<path fill-rule="evenodd" clip-rule="evenodd" d="M31.247 56.2578C30.9011 56.2578 30.6943 56.8795 30.7632 57.5654C30.8322 58.2513 31.1091 58.873 31.4538 58.81C31.7998 58.81 32.0066 58.1883 31.9376 57.5024C31.8687 56.8165 31.5917 56.2578 31.247 56.2578Z" fill="#FEFEFE"/>
<path fill-rule="evenodd" clip-rule="evenodd" d="M32.963 56.1895C33.3089 56.1895 33.5158 56.8111 33.4468 57.497C33.3779 58.1829 33.1009 58.8046 32.8251 58.7416C32.4792 58.7416 32.2724 58.1199 32.3413 57.434C32.3413 56.7434 32.6183 56.1895 32.963 56.1895Z" fill="#FEFEFE"/>
<path fill-rule="evenodd" clip-rule="evenodd" d="M31.5215 59.2305C31.7985 59.2305 32.0742 59.6453 32.0742 60.1981C32.0742 60.7508 31.8674 61.1657 31.5215 61.1657C31.2445 61.1657 30.9688 60.7508 30.9688 60.1981C31.0377 59.6453 31.2457 59.2305 31.5215 59.2305Z" fill="#FEFEFE"/>
<path fill-rule="evenodd" clip-rule="evenodd" d="M32.9057 59.2305C33.1826 59.2305 33.3895 59.6453 33.3895 60.1981C33.3895 60.7508 33.1826 61.1657 32.9057 61.1657C32.6287 61.1657 32.4219 60.7508 32.4219 60.1981C32.4908 59.6453 32.6988 59.2305 32.9057 59.2305Z" fill="#FEFEFE"/>
<path fill-rule="evenodd" clip-rule="evenodd" d="M35.3195 41.5358C35.1127 41.6047 35.0426 42.2264 35.1816 42.8434C35.3207 43.4603 35.6654 43.9489 35.8723 43.8799C36.0791 43.811 36.1492 43.1893 36.0102 42.5723C35.8711 41.9554 35.5264 41.4669 35.3195 41.5358Z" fill="#FEFEFE"/>
<path fill-rule="evenodd" clip-rule="evenodd" d="M36.3493 41.4658C36.1425 41.5347 36.2114 42.0185 36.3493 42.5713C36.5561 43.124 36.8331 43.5389 37.0399 43.4699C37.2468 43.401 37.1778 42.9172 37.0399 42.3644C36.8331 41.8058 36.4872 41.3909 36.3493 41.4658Z" fill="#FEFEFE"/>
<path fill-rule="evenodd" clip-rule="evenodd" d="M35.2535 38.909C35.1156 38.909 35.0466 39.3239 35.1845 39.8077C35.3224 40.2915 35.4615 40.6398 35.6683 40.6398C35.8062 40.6398 35.8752 40.2249 35.7373 39.7411C35.5994 39.2573 35.3914 38.8341 35.2535 38.909Z" fill="#FEFEFE"/>
<path fill-rule="evenodd" clip-rule="evenodd" d="M31.8701 35.4473C32.285 35.4473 32.6309 36.069 32.6309 36.8297C32.6309 37.5905 32.285 38.2122 31.8701 38.2122C31.4553 38.2122 31.1094 37.5905 31.1094 36.8297C31.1094 36.069 31.4553 35.4473 31.8701 35.4473Z" fill="#FEFEFE"/>
<path fill-rule="evenodd" clip-rule="evenodd" d="M34.3551 36.0684C34.1483 36.0684 34.0781 36.4832 34.0781 37.036C34.1471 37.5887 34.3551 38.0036 34.493 38.0036C34.6998 38.0036 34.77 37.5887 34.77 37.036C34.77 36.4832 34.5619 36.0684 34.3551 36.0684Z" fill="#FEFEFE"/>
<path fill-rule="evenodd" clip-rule="evenodd" d="M28.3367 28.4629C29.7052 28.704 31.0984 28.7734 32.4841 28.6697L32.9679 31.1577L32.4841 30.6049V31.1577L32.0693 30.8118V31.4347L31.7923 30.813L31.5855 31.2968L31.3085 30.813L31.1017 31.3657L30.8247 30.9509L30.6179 31.3657L30.3409 30.8819L29.995 31.2968L29.7881 30.813L29.6503 31.2968L29.4434 30.744L29.1664 31.2278L29.0286 30.744L28.8217 31.2278L28.6149 30.6751L28.3379 31.0899L28.269 30.6061L27.9219 31.0198L28.3367 28.4629Z" fill="#FEFEFE"/>
<path fill-rule="evenodd" clip-rule="evenodd" d="M27.9263 32.3361C29.3777 32.6821 31.7967 32.0592 33.1792 31.9902C33.5311 32.8049 33.7637 33.6661 33.8698 34.5471L33.2481 33.715L32.9712 34.7516L32.6942 33.8529L32.3483 35.0274L32.0713 33.9219L31.7943 35.0274L31.5174 33.9908L31.244 34.962L30.967 33.9944L30.69 35.1688L30.4796 34.0633L30.2728 35.1688L30.066 34.1323L29.72 35.1688L29.6511 34.1323L29.2362 35.1688L29.1721 34.1299L28.6882 35.0975L28.6193 34.1989L28.2734 35.0309V34.0633L27.7896 35.0999C27.661 34.1778 27.7078 33.2397 27.9275 32.335L27.9263 32.3361Z" fill="#FEFEFE"/>
<path fill-rule="evenodd" clip-rule="evenodd" d="M30.4756 27.9086L30.1297 27.4248L29.8528 27.9086L29.7149 27.3606L29.4379 27.9133L29.3 27.3606L28.9541 27.7754L28.8852 27.2916L28.6094 27.7005C28.7473 26.8019 29.1621 25.9032 29.2311 24.9356C30.276 24.5772 31.3979 24.5057 32.4798 24.7288L33.1015 23.6922L32.5488 24.0381L32.4798 23.6922L31.996 24.0381V23.7612L31.5122 24.0381V23.6922L30.9594 24.1071L31.0973 23.6922L30.3366 24.176C30.7514 23.1395 32.6866 22.8684 34.3449 22.7246C34.207 23.3463 32.8245 23.0705 33.93 24.5219L35.8652 24.5909C32.4786 25.0747 32.6854 26.2551 32.4786 27.7707L32.2017 27.149L31.9247 27.8396L31.6477 27.4248L31.3707 27.8396L31.1639 27.2179L30.8869 27.7707L30.6801 27.149L30.4733 27.9098L30.4756 27.9086Z" fill="#FEFEFE"/>
<path fill-rule="evenodd" clip-rule="evenodd" d="M34.3524 23.416C34.1455 23.416 33.9375 23.5539 33.9375 23.6229C33.9375 23.7607 34.1443 23.8297 34.3524 23.8297C34.5604 23.8297 34.7672 23.6918 34.7672 23.6229C34.7696 23.485 34.5592 23.416 34.3524 23.416Z" fill="#FEFEFE"/>
<path fill-rule="evenodd" clip-rule="evenodd" d="M35.3147 23.2773L35.6606 23.899H34.9688L35.3147 23.2773Z" fill="#FEFEFE"/>
<path fill-rule="evenodd" clip-rule="evenodd" d="M36.1406 23.2773C36.4176 23.2773 38.1448 23.6922 38.3528 24.6598C37.6772 24.2837 36.9137 24.0938 36.1406 24.1094V23.2773Z" fill="#FEFEFE"/>
<path fill-rule="evenodd" clip-rule="evenodd" d="M35.3906 21.5488L36.3582 21.9637V23.0002L35.3906 22.5854V21.5488Z" fill="#FEFEFE"/>
<path fill-rule="evenodd" clip-rule="evenodd" d="M34.5636 22.3098C31.6607 21.5491 26.4078 24.1072 25.5781 20.0977C27.3065 23.0005 32.6973 19.8908 34.5636 22.3098Z" fill="#FEFEFE"/>
<path fill-rule="evenodd" clip-rule="evenodd" d="M25.7031 21.4805C28.26 24.1765 30.2654 22.2412 32.5453 22.586C29.5736 23.3467 27.7762 24.7982 25.7031 21.4805Z" fill="#FEFEFE"/>
<path fill-rule="evenodd" clip-rule="evenodd" d="M39.2636 44.4355C39.4705 44.4355 39.7475 44.7125 39.8853 45.1262C39.9543 45.4721 39.8853 45.8168 39.6084 45.8168C39.4015 45.8168 39.1246 45.5399 38.9867 45.1262C38.9177 44.7815 39.0556 44.4355 39.2636 44.4355Z" fill="#FEFEFE"/>
</g>
<defs>
<clipPath id="clip0_1777_10537">
<rect width="64" height="64" fill="white"/>
</clipPath>
</defs>
</svg>
