<svg width="18" height="19" viewBox="0 0 18 19" fill="none" xmlns="http://www.w3.org/2000/svg">
<g clip-path="url(#clip0_1_4176)">
<path d="M9 2V3.5M9 15.5V17M3 9.5H1.5M4.73559 5.23559L3.67493 4.17493M13.2644 5.23559L14.3251 4.17493M4.73559 13.7675L3.67493 14.8282M13.2644 13.7675L14.3251 14.8282M16.5 9.5H15M12.75 9.5C12.75 11.5711 11.0711 13.25 9 13.25C6.92893 13.25 5.25 11.5711 5.25 9.5C5.25 7.42893 6.92893 5.75 9 5.75C11.0711 5.75 12.75 7.42893 12.75 9.5Z" stroke="#1E3A8A" stroke-width="1.5" stroke-linecap="round" stroke-linejoin="round"/>
</g>
<defs>
<clipPath id="clip0_1_4176">
<rect width="18" height="18" fill="white" transform="translate(0 0.5)"/>
</clipPath>
</defs>
</svg>
