<svg width="253" height="52" viewBox="0 0 253 52" fill="none" xmlns="http://www.w3.org/2000/svg">
<path d="M62.9957 39.2396C62.7322 39.2396 62.4816 39.2075 62.2438 39.1368C61.9996 39.0661 61.7875 38.9504 61.6076 38.7897C61.4275 38.6291 61.299 38.417 61.2219 38.1536H61.6203C61.704 38.34 61.8132 38.4943 61.961 38.6034C62.1088 38.7126 62.2695 38.7962 62.4559 38.841C62.6357 38.8926 62.8157 38.9183 62.9956 38.9183C63.1949 38.9183 63.3875 38.8862 63.574 38.822C63.7603 38.764 63.908 38.6677 64.0237 38.5391C64.1395 38.4105 64.1973 38.2435 64.1973 38.0315C64.1973 37.8644 64.1652 37.7296 64.101 37.6266C64.0302 37.5239 63.9403 37.4402 63.8311 37.376C63.7155 37.3181 63.5805 37.2668 63.4326 37.2217C63.3234 37.1896 63.2077 37.1577 63.092 37.1255C62.9764 37.0997 62.8671 37.0741 62.7579 37.0419C62.6486 37.0098 62.5394 36.9776 62.443 36.9454C62.3081 36.907 62.1796 36.8619 62.0511 36.8041C61.916 36.7463 61.8004 36.6755 61.7041 36.5921C61.6013 36.5085 61.5176 36.3992 61.4599 36.2772C61.3956 36.155 61.3637 36.0008 61.3637 35.8208C61.3637 35.6344 61.3894 35.474 61.4472 35.3389C61.505 35.204 61.582 35.0882 61.685 34.9919C61.7878 34.8957 61.9035 34.8184 62.0384 34.7606C62.1734 34.7027 62.3147 34.6642 62.4689 34.632C62.6167 34.6063 62.7709 34.5933 62.9316 34.5933C63.1758 34.5933 63.4072 34.6255 63.6193 34.6962C63.8313 34.767 64.0113 34.8762 64.159 35.0303C64.3068 35.1846 64.4032 35.3901 64.4418 35.6538H64.0691C64.024 35.4673 63.947 35.3259 63.8313 35.2168C63.7092 35.1077 63.5743 35.0303 63.4135 34.9854C63.253 34.9404 63.0922 34.9147 62.9251 34.9147C62.7903 34.9147 62.6552 34.9276 62.5204 34.9533C62.3854 34.9854 62.2568 35.0303 62.1411 35.0948C62.0255 35.159 61.9291 35.2425 61.8583 35.3518C61.7877 35.4609 61.7492 35.6023 61.7492 35.7694C61.7492 35.9364 61.7878 36.0714 61.8583 36.1806C61.9291 36.29 62.0191 36.3735 62.1347 36.4378C62.244 36.502 62.3724 36.5598 62.514 36.6049C62.7004 36.6628 62.8995 36.7141 63.0987 36.7591C63.2979 36.804 63.4908 36.8618 63.6706 36.9196C63.7992 36.9583 63.9213 37.0097 64.0304 37.0675C64.1397 37.1317 64.236 37.209 64.3197 37.2924C64.4032 37.376 64.4674 37.4723 64.5123 37.5816C64.5574 37.6907 64.5832 37.8194 64.5832 37.9542C64.5832 38.1921 64.5382 38.3912 64.4545 38.552C64.3646 38.7126 64.2425 38.8476 64.0947 38.9504C63.9469 39.0531 63.7734 39.1239 63.5871 39.1689C63.4006 39.2203 63.2014 39.2396 62.9958 39.2396H62.9957ZM65.5662 39.1882V34.6448H65.9326V39.1882H65.5662ZM67.1021 39.1882V34.6448H67.6034L70.3411 38.7255V34.6448H70.7074V39.1882H70.2255L67.4686 35.1076V39.1882H67.1022H67.1021ZM73.702 39.2396C73.2394 39.2396 72.8538 39.1368 72.5518 38.9376C72.2433 38.7384 72.012 38.4686 71.8641 38.1215C71.71 37.7809 71.6329 37.3953 71.6265 36.9648C71.62 36.6306 71.6651 36.3221 71.7485 36.0328C71.832 35.7501 71.9541 35.4995 72.1278 35.2809C72.3012 35.0689 72.5133 34.8954 72.7768 34.7734C73.0338 34.6512 73.3359 34.5932 73.683 34.5932C73.9656 34.5932 74.2227 34.6319 74.4604 34.709C74.6919 34.7926 74.891 34.9082 75.0645 35.0689C75.2316 35.2296 75.3603 35.4287 75.4502 35.6794H75.0326C74.9618 35.5123 74.8589 35.3709 74.7241 35.2552C74.5891 35.146 74.4283 35.0559 74.2484 34.9981C74.0685 34.9403 73.8821 34.9146 73.6894 34.9146C73.3936 34.9146 73.1368 34.9659 72.9247 35.0753C72.7125 35.1845 72.539 35.3322 72.4042 35.5187C72.2691 35.7051 72.1662 35.9236 72.1084 36.1612C72.0442 36.4054 72.0121 36.6627 72.0121 36.9389C72.0121 37.2987 72.0701 37.6264 72.1921 37.9285C72.3078 38.2305 72.4941 38.4685 72.7447 38.6483C72.9953 38.8282 73.3102 38.9182 73.7021 38.9182C74.0298 38.9182 74.3127 38.854 74.5442 38.7189C74.7689 38.5905 74.9489 38.4041 75.0709 38.1663C75.193 37.9285 75.2573 37.6458 75.2637 37.3244H73.7021V36.9968H75.6044V37.2923C75.6044 37.6778 75.5272 38.0184 75.3729 38.3077C75.2187 38.6033 75.0004 38.8346 74.7175 38.9952C74.4283 39.1559 74.0941 39.2393 73.7021 39.2393L73.702 39.2396ZM76.5233 39.1882V34.6448H76.8897V38.8541H79.4924V39.1881H76.5233V39.1882ZM80.1863 39.1882V34.6448H83.1553V34.9789H80.5526V36.7654H82.8917V37.0995H80.5526V38.854H83.1553V39.188H80.1863V39.1882ZM85.8093 39.1882V34.6448H86.1757V39.1882H85.8093ZM87.3452 39.1882V34.6448H87.8465L90.5842 38.7255V34.6448H90.9505V39.1882H90.4686L87.7117 35.1076V39.1882H87.3453H87.3452ZM93.1739 39.1882V34.979H91.651V34.6449H95.0633V34.979H93.5404V39.1882H93.174H93.1739ZM95.7639 39.1882V34.6448H98.7329V34.9789H96.1302V36.7654H98.4692V37.0995H96.1302V38.854H98.7329V39.188H95.7639V39.1882ZM101.477 39.2396C101.014 39.2396 100.629 39.1368 100.327 38.9376C100.018 38.7384 99.7868 38.4686 99.639 38.1215C99.4847 37.7809 99.4076 37.3953 99.4012 36.9648C99.3948 36.6306 99.4399 36.3221 99.5233 36.0328C99.6069 35.7501 99.7289 35.4995 99.9025 35.2809C100.076 35.0689 100.288 34.8954 100.552 34.7734C100.809 34.6512 101.111 34.5932 101.458 34.5932C101.74 34.5932 101.998 34.6319 102.235 34.709C102.467 34.7926 102.666 34.9082 102.839 35.0689C103.006 35.2296 103.135 35.4287 103.225 35.6794H102.807C102.737 35.5123 102.634 35.3709 102.499 35.2552C102.364 35.146 102.203 35.0559 102.023 34.9981C101.843 34.9403 101.657 34.9146 101.464 34.9146C101.168 34.9146 100.912 34.9659 100.7 35.0753C100.487 35.1845 100.314 35.3322 100.179 35.5187C100.044 35.7051 99.9411 35.9236 99.8832 36.1612C99.819 36.4054 99.7869 36.6627 99.7869 36.9389C99.7869 37.2987 99.8448 37.6264 99.967 37.9285C100.083 38.2305 100.269 38.4685 100.519 38.6483C100.77 38.8282 101.085 38.9182 101.477 38.9182C101.805 38.9182 102.087 38.854 102.319 38.7189C102.544 38.5905 102.724 38.4041 102.846 38.1663C102.968 37.9285 103.032 37.6458 103.039 37.3244H101.477V36.9968H103.379V37.2923C103.379 37.6778 103.302 38.0184 103.148 38.3077C102.994 38.6033 102.775 38.8346 102.492 38.9952C102.203 39.1559 101.869 39.2393 101.477 39.2393L101.477 39.2396ZM104.298 39.1882V34.6448H105.969C106.207 34.6448 106.425 34.6705 106.624 34.7154C106.817 34.7669 106.984 34.844 107.126 34.9533C107.261 35.0624 107.37 35.2039 107.447 35.3775C107.518 35.5574 107.556 35.7759 107.556 36.0266C107.556 36.2644 107.511 36.47 107.428 36.6435C107.344 36.8171 107.216 36.965 107.055 37.0805C106.894 37.1961 106.701 37.2797 106.477 37.3312L107.466 39.1884H107.061L106.098 37.3954H104.664V39.1884H104.298V39.1882ZM104.664 37.0675H105.789C105.969 37.0675 106.143 37.0547 106.31 37.0226C106.477 36.9969 106.625 36.9453 106.759 36.8683C106.888 36.7912 106.991 36.6819 107.068 36.5406C107.139 36.4056 107.177 36.2258 107.177 36.0072C107.184 35.7437 107.132 35.5317 107.023 35.3839C106.914 35.236 106.759 35.1269 106.573 35.069C106.38 35.0111 106.155 34.979 105.905 34.979H104.665V37.0676L104.664 37.0675ZM108.013 39.1882L109.767 34.6448H110.236L112.003 39.1882H111.592L111.194 38.1664H108.809L108.418 39.1882H108.013H108.013ZM108.931 37.8387H111.071L110.005 35.0239L108.931 37.8387Z" fill="#FE830C"/>
<path d="M113.408 39.1893V34.9801H111.885V34.646H115.298V34.9801H113.775V39.1893H113.408Z" fill="#FE830C"/>
<path d="M117.791 39.2398C117.322 39.2398 116.93 39.137 116.615 38.9378C116.3 38.7386 116.062 38.4623 115.902 38.1088C115.741 37.7619 115.664 37.3634 115.664 36.9198C115.664 36.4765 115.747 36.078 115.908 35.7246C116.069 35.3712 116.306 35.095 116.621 34.8957C116.936 34.6964 117.322 34.5935 117.791 34.5935C118.26 34.5935 118.652 34.6964 118.967 34.8957C119.282 35.1014 119.513 35.3776 119.674 35.7246C119.834 36.0781 119.912 36.4766 119.912 36.9198C119.912 37.3634 119.834 37.7554 119.674 38.1088C119.513 38.4623 119.275 38.7385 118.961 38.9378C118.646 39.137 118.26 39.2398 117.791 39.2398ZM117.791 38.9185C118.183 38.9185 118.511 38.8286 118.768 38.6486C119.025 38.4688 119.218 38.2245 119.34 37.9223C119.462 37.6203 119.526 37.2861 119.526 36.9198C119.526 36.6435 119.494 36.3866 119.423 36.1424C119.353 35.9047 119.243 35.6924 119.102 35.5062C118.96 35.3198 118.781 35.1784 118.562 35.0693C118.344 34.9663 118.087 34.915 117.791 34.915C117.399 34.915 117.071 35.0049 116.814 35.1914C116.551 35.3778 116.358 35.6156 116.236 35.9176C116.107 36.2196 116.043 36.5538 116.043 36.9199C116.043 37.28 116.107 37.6141 116.236 37.9161C116.364 38.2181 116.557 38.4624 116.82 38.6423C117.077 38.8288 117.399 38.9187 117.791 38.9187L117.791 38.9185ZM120.831 39.1884V34.6449H122.501C122.739 34.6449 122.958 34.6706 123.157 34.7155C123.35 34.767 123.517 34.8441 123.658 34.9534C123.793 35.0625 123.902 35.204 123.98 35.3776C124.05 35.5575 124.089 35.776 124.089 36.0267C124.089 36.2645 124.044 36.4701 123.96 36.6436C123.877 36.8172 123.748 36.9651 123.588 37.0806C123.427 37.1962 123.234 37.2798 123.009 37.3313L123.999 39.1885H123.594L122.63 37.3955H121.197V39.1885H120.831V39.1884ZM121.197 37.0676H122.322C122.502 37.0676 122.675 37.0548 122.842 37.0227C123.009 36.997 123.157 36.9454 123.292 36.8684C123.421 36.7913 123.523 36.682 123.6 36.5407C123.671 36.4057 123.71 36.2259 123.71 36.0073C123.716 35.7438 123.665 35.5318 123.556 35.384C123.446 35.2361 123.292 35.127 123.106 35.0691C122.913 35.0112 122.688 34.9791 122.437 34.9791H121.197V37.0677L121.197 37.0676ZM126.775 39.1884V34.6449H129.744V34.979H127.141V36.9261H129.384V37.2603H127.141V39.1882H126.775V39.1884ZM132.469 39.2397C132 39.2397 131.608 39.1369 131.293 38.9377C130.978 38.7385 130.74 38.4622 130.579 38.1087C130.419 37.7618 130.342 37.3633 130.342 36.9197C130.342 36.4764 130.425 36.0779 130.586 35.7245C130.747 35.3711 130.984 35.0949 131.299 34.8956C131.614 34.6963 132 34.5934 132.469 34.5934C132.938 34.5934 133.33 34.6963 133.645 34.8956C133.96 35.1013 134.191 35.3775 134.352 35.7245C134.512 36.078 134.589 36.4765 134.589 36.9197C134.589 37.3633 134.512 37.7553 134.352 38.1087C134.191 38.4622 133.953 38.7384 133.638 38.9377C133.323 39.1369 132.938 39.2397 132.469 39.2397ZM132.469 38.9184C132.861 38.9184 133.188 38.8285 133.446 38.6485C133.703 38.4687 133.895 38.2244 134.017 37.9222C134.14 37.6202 134.204 37.286 134.204 36.9197C134.204 36.6434 134.172 36.3865 134.101 36.1423C134.03 35.9046 133.921 35.6923 133.78 35.5061C133.638 35.3197 133.458 35.1783 133.24 35.0691C133.021 34.9662 132.764 34.9149 132.469 34.9149C132.077 34.9149 131.749 35.0048 131.492 35.1913C131.228 35.3777 131.036 35.6155 130.913 35.9175C130.785 36.2195 130.721 36.5536 130.721 36.9198C130.721 37.2798 130.785 37.614 130.913 37.916C131.042 38.218 131.235 38.4623 131.498 38.6422C131.755 38.8287 132.077 38.9186 132.469 38.9186L132.469 38.9184ZM135.509 39.1882V34.6448H137.179C137.417 34.6448 137.636 34.6705 137.835 34.7154C138.027 34.7669 138.195 34.844 138.336 34.9533C138.471 35.0624 138.58 35.2039 138.657 35.3775C138.728 35.5574 138.767 35.7759 138.767 36.0266C138.767 36.2644 138.722 36.47 138.638 36.6435C138.554 36.8171 138.426 36.965 138.265 37.0805C138.105 37.1961 137.912 37.2797 137.687 37.3312L138.677 39.1884H138.272L137.308 37.3954H135.875V39.1884H135.509V39.1882ZM135.875 37.0675H136.999C137.179 37.0675 137.353 37.0547 137.52 37.0226C137.687 36.9969 137.835 36.9453 137.97 36.8683C138.098 36.7912 138.201 36.6819 138.278 36.5406C138.349 36.4056 138.388 36.2258 138.388 36.0072C138.394 35.7437 138.342 35.5317 138.233 35.3839C138.124 35.236 137.97 35.1269 137.783 35.069C137.591 35.0111 137.366 34.979 137.115 34.979H135.875V37.0676L135.875 37.0675ZM142.507 39.1882V34.979H140.984V34.6449H144.396V34.979H142.873V39.1882H142.507H142.507ZM145.097 39.1882V34.6448H145.463V36.7976H148.226V34.6448H148.593V39.1882H148.226V37.1254H145.463V39.1882H145.097ZM149.762 39.1882V34.6448H152.731V34.9789H150.128V36.7654H152.467V37.0995H150.128V38.854H152.731V39.188H149.762V39.1882ZM157.21 39.2396C156.741 39.2396 156.349 39.1368 156.047 38.9376C155.739 38.7384 155.507 38.4621 155.36 38.1086C155.212 37.7617 155.135 37.3632 155.135 36.9196C155.135 36.4763 155.212 36.0844 155.366 35.7308C155.514 35.3839 155.745 35.1075 156.06 34.9018C156.369 34.6961 156.761 34.5932 157.23 34.5932C157.506 34.5932 157.757 34.6319 157.988 34.7153C158.213 34.7991 158.412 34.9146 158.573 35.0753C158.733 35.2359 158.849 35.4351 158.926 35.6794H158.547C158.444 35.4287 158.277 35.2359 158.046 35.1076C157.808 34.9789 157.538 34.9147 157.236 34.9147C156.838 34.9147 156.51 35.0046 156.259 35.1911C156.002 35.3775 155.816 35.6153 155.694 35.9173C155.572 36.2192 155.507 36.5469 155.507 36.907C155.507 37.2668 155.565 37.601 155.687 37.903C155.809 38.2115 155.996 38.4557 156.253 38.6421C156.503 38.8286 156.831 38.9185 157.223 38.9185C157.422 38.9185 157.609 38.8928 157.795 38.835C157.981 38.7769 158.142 38.6934 158.283 38.5779C158.425 38.4622 158.528 38.3207 158.592 38.1537H159.01C158.926 38.3914 158.791 38.5907 158.618 38.7512C158.438 38.912 158.226 39.034 157.988 39.1176C157.75 39.2013 157.487 39.2397 157.21 39.2397L157.21 39.2396ZM159.89 39.1882V34.6448H161.561C161.798 34.6448 162.017 34.6705 162.216 34.7154C162.409 34.7669 162.576 34.844 162.717 34.9533C162.853 35.0624 162.962 35.2039 163.039 35.3775C163.109 35.5574 163.148 35.7759 163.148 36.0266C163.148 36.2644 163.103 36.47 163.019 36.6435C162.936 36.8171 162.807 36.965 162.647 37.0805C162.486 37.1961 162.293 37.2797 162.069 37.3312L163.058 39.1884H162.653L161.689 37.3954H160.256V39.1884H159.89V39.1882ZM160.256 37.0675H161.381C161.561 37.0675 161.734 37.0547 161.901 37.0226C162.069 36.9969 162.216 36.9453 162.351 36.8683C162.48 36.7912 162.583 36.6819 162.66 36.5406C162.73 36.4056 162.769 36.2258 162.769 36.0072C162.775 35.7437 162.724 35.5317 162.615 35.3839C162.506 35.236 162.351 35.1269 162.165 35.069C161.972 35.0111 161.747 34.979 161.497 34.979H160.256V37.0676L160.256 37.0675ZM164.099 39.1882V34.6448H167.068V34.9789H164.466V36.7654H166.805V37.0995H164.466V38.854H167.068V39.188H164.099V39.1882ZM167.492 39.1882L169.247 34.6448H169.716L171.483 39.1882H171.072L170.673 38.1664H168.289L167.897 39.1882H167.492H167.492ZM168.411 37.8387H170.551L169.485 35.0239L168.411 37.8387Z" fill="#FE830C"/>
<path d="M172.889 39.1881V34.9789H171.366V34.6448H174.778V34.9789H173.255V39.1881H172.889H172.889ZM175.479 39.1881V34.6447H175.845V39.1881H175.479ZM178.891 39.2395C178.422 39.2395 178.03 39.1367 177.715 38.9375C177.4 38.7383 177.162 38.4619 177.002 38.1085C176.841 37.7616 176.764 37.3631 176.764 36.9195C176.764 36.4762 176.848 36.0777 177.008 35.7243C177.169 35.3709 177.407 35.0946 177.722 34.8954C178.036 34.6961 178.422 34.5932 178.891 34.5932C179.36 34.5932 179.752 34.6961 180.067 34.8954C180.382 35.101 180.613 35.3773 180.774 35.7243C180.935 36.0778 181.012 36.4763 181.012 36.9195C181.012 37.3631 180.935 37.7551 180.774 38.1085C180.613 38.4619 180.376 38.7382 180.061 38.9375C179.746 39.1367 179.36 39.2395 178.891 39.2395ZM178.891 38.9182C179.283 38.9182 179.611 38.8282 179.868 38.6483C180.125 38.4685 180.318 38.2242 180.44 37.922C180.562 37.62 180.626 37.2858 180.626 36.9195C180.626 36.6432 180.594 36.3863 180.523 36.1421C180.453 35.9044 180.343 35.6921 180.202 35.5059C180.061 35.3195 179.881 35.1781 179.662 35.0689C179.444 34.966 179.187 34.9147 178.891 34.9147C178.499 34.9147 178.171 35.0046 177.914 35.1911C177.651 35.3775 177.458 35.6153 177.336 35.9173C177.207 36.2192 177.143 36.5534 177.143 36.9196C177.143 37.2796 177.207 37.6138 177.336 37.9158C177.464 38.2178 177.657 38.4621 177.921 38.642C178.178 38.8285 178.499 38.9184 178.891 38.9184L178.891 38.9182ZM181.931 39.188V34.6446H182.432L185.17 38.7253V34.6446H185.536V39.188H185.054L182.297 35.1073V39.188H181.931H181.931ZM187.946 39.188L189.7 34.6446H190.169L191.937 39.188H191.526L191.127 38.1662H188.743L188.351 39.188H187.946H187.946ZM188.865 37.8385H191.005L189.938 35.0237L188.865 37.8385ZM192.612 39.188V34.6446H193.113L195.85 38.7253V34.6446H196.217V39.188H195.735L192.978 35.1073V39.188H192.612H192.612ZM197.386 39.188V34.6446H198.967C199.436 34.6446 199.828 34.7409 200.143 34.9274C200.458 35.1201 200.689 35.3837 200.85 35.7242C201.011 36.0648 201.088 36.4633 201.088 36.9194C201.088 37.3693 201.011 37.7615 200.85 38.102C200.689 38.4425 200.458 38.7061 200.143 38.8989C199.828 39.0917 199.436 39.188 198.967 39.188H197.386ZM197.753 38.854H198.916C199.321 38.854 199.655 38.7704 199.918 38.6098C200.182 38.449 200.374 38.2178 200.51 37.9285C200.644 37.6394 200.709 37.2988 200.709 36.9195C200.709 36.5468 200.644 36.2125 200.516 35.9172C200.387 35.6281 200.194 35.3966 199.937 35.2296C199.681 35.0624 199.353 34.9789 198.961 34.9789H197.752V38.8541L197.753 38.854ZM205.329 39.2395C205.066 39.2395 204.815 39.2073 204.577 39.1367C204.333 39.066 204.121 38.9503 203.941 38.7896C203.761 38.629 203.633 38.4169 203.555 38.1535H203.954C204.037 38.3399 204.147 38.4942 204.294 38.6033C204.442 38.7125 204.603 38.7961 204.789 38.8409C204.969 38.8925 205.149 38.9182 205.329 38.9182C205.528 38.9182 205.721 38.8861 205.907 38.8218C206.094 38.7639 206.242 38.6676 206.357 38.539C206.473 38.4104 206.531 38.2434 206.531 38.0314C206.531 37.8643 206.499 37.7295 206.435 37.6265C206.364 37.5238 206.274 37.4401 206.165 37.3759C206.049 37.318 205.914 37.2667 205.766 37.2216C205.657 37.1895 205.541 37.1576 205.426 37.1254C205.31 37.0996 205.201 37.074 205.091 37.0418C204.982 37.0097 204.873 36.9774 204.776 36.9453C204.642 36.9069 204.513 36.8618 204.385 36.804C204.25 36.7462 204.134 36.6754 204.037 36.5919C203.935 36.5084 203.851 36.3991 203.793 36.2771C203.729 36.1549 203.697 36.0007 203.697 35.8207C203.697 35.6343 203.723 35.4739 203.781 35.3388C203.839 35.2039 203.916 35.0881 204.018 34.9918C204.121 34.8956 204.237 34.8183 204.372 34.7605C204.507 34.7026 204.648 34.6641 204.802 34.6319C204.95 34.6062 205.104 34.5932 205.265 34.5932C205.509 34.5932 205.741 34.6254 205.953 34.6961C206.165 34.7669 206.345 34.8761 206.493 35.0302C206.64 35.1845 206.737 35.39 206.775 35.6537H206.403C206.358 35.4672 206.281 35.3258 206.165 35.2167C206.043 35.1075 205.908 35.0302 205.747 34.9853C205.586 34.9403 205.426 34.9146 205.259 34.9146C205.124 34.9146 204.989 34.9275 204.854 34.9532C204.719 34.9853 204.59 35.0302 204.475 35.0946C204.359 35.1589 204.263 35.2424 204.192 35.3517C204.121 35.4608 204.083 35.6022 204.083 35.7693C204.083 35.9363 204.121 36.0713 204.192 36.1805C204.263 36.2899 204.353 36.3734 204.468 36.4377C204.578 36.5019 204.706 36.5597 204.848 36.6047C205.034 36.6627 205.233 36.714 205.432 36.759C205.631 36.8039 205.824 36.8617 206.004 36.9195C206.133 36.9582 206.255 37.0096 206.364 37.0674C206.473 37.1316 206.57 37.2089 206.653 37.2923C206.737 37.3759 206.801 37.4722 206.846 37.5815C206.891 37.6906 206.917 37.8193 206.917 37.9541C206.917 38.192 206.872 38.3911 206.788 38.5519C206.698 38.7125 206.576 38.8474 206.428 38.9503C206.28 39.053 206.107 39.1238 205.921 39.1688C205.734 39.2201 205.535 39.2395 205.329 39.2395H205.329ZM209.628 39.2395C209.217 39.2395 208.883 39.1559 208.626 38.9825C208.362 38.8088 208.176 38.5777 208.054 38.2756C207.932 37.98 207.868 37.6393 207.868 37.2536V34.6446H208.24V37.2344C208.24 37.5493 208.285 37.832 208.382 38.0826C208.472 38.3397 208.619 38.5454 208.825 38.6931C209.031 38.8408 209.301 38.9181 209.635 38.9181C209.982 38.9181 210.258 38.8408 210.457 38.6866C210.657 38.5388 210.804 38.3332 210.894 38.0761C210.978 37.8256 211.023 37.5428 211.023 37.2343V34.6445H211.396V37.2535C211.396 37.6392 211.338 37.9799 211.216 38.2755C211.094 38.5775 210.907 38.8087 210.644 38.9824C210.38 39.1559 210.046 39.2393 209.628 39.2393L209.628 39.2395ZM212.533 39.1881V34.6447H214.063C214.39 34.6447 214.673 34.696 214.911 34.799C215.142 34.9081 215.322 35.0688 215.444 35.2873C215.566 35.5059 215.631 35.7821 215.631 36.1226C215.631 36.4567 215.56 36.7331 215.412 36.9516C215.264 37.1766 215.059 37.3436 214.808 37.4531C214.551 37.5622 214.262 37.62 213.94 37.62H212.899V39.188H212.533V39.1881ZM212.899 37.2923H213.921C214.32 37.2923 214.641 37.1959 214.885 37.0033C215.129 36.8168 215.252 36.5148 215.252 36.097C215.252 35.7051 215.142 35.4159 214.93 35.2423C214.718 35.0688 214.416 34.9788 214.03 34.9788H212.899V37.2923ZM216.556 39.1881V34.6447H218.085C218.413 34.6447 218.696 34.696 218.934 34.799C219.165 34.9081 219.345 35.0688 219.467 35.2873C219.589 35.5059 219.653 35.7821 219.653 36.1226C219.653 36.4567 219.583 36.7331 219.435 36.9516C219.287 37.1766 219.081 37.3436 218.831 37.4531C218.574 37.5622 218.285 37.62 217.963 37.62H216.922V39.188H216.556V39.1881ZM216.922 37.2923H217.944C218.342 37.2923 218.664 37.1959 218.908 37.0033C219.152 36.8168 219.274 36.5148 219.274 36.097C219.274 35.7051 219.165 35.4159 218.953 35.2423C218.741 35.0688 218.439 34.9788 218.053 34.9788H216.922V37.2923ZM222.455 39.2395C221.986 39.2395 221.594 39.1367 221.279 38.9375C220.964 38.7383 220.727 38.4619 220.566 38.1085C220.405 37.7616 220.328 37.3631 220.328 36.9195C220.328 36.4762 220.412 36.0777 220.572 35.7243C220.733 35.3709 220.971 35.0946 221.286 34.8954C221.6 34.6961 221.986 34.5932 222.455 34.5932C222.924 34.5932 223.316 34.6961 223.631 34.8954C223.946 35.101 224.178 35.3773 224.338 35.7243C224.499 36.0778 224.576 36.4763 224.576 36.9195C224.576 37.3631 224.499 37.7551 224.338 38.1085C224.178 38.4619 223.94 38.7382 223.625 38.9375C223.31 39.1367 222.924 39.2395 222.455 39.2395ZM222.455 38.9182C222.847 38.9182 223.175 38.8282 223.432 38.6483C223.689 38.4685 223.882 38.2242 224.004 37.922C224.126 37.62 224.19 37.2858 224.19 36.9195C224.19 36.6432 224.158 36.3863 224.088 36.1421C224.017 35.9044 223.908 35.6921 223.766 35.5059C223.625 35.3195 223.445 35.1781 223.226 35.0689C223.008 34.966 222.751 34.9147 222.455 34.9147C222.063 34.9147 221.736 35.0046 221.478 35.1911C221.215 35.3775 221.022 35.6153 220.9 35.9173C220.772 36.2192 220.707 36.5534 220.707 36.9196C220.707 37.2796 220.772 37.6138 220.9 37.9158C221.029 38.2178 221.221 38.4621 221.485 38.642C221.742 38.8285 222.063 38.9184 222.455 38.9184L222.455 38.9182ZM225.495 39.188V34.6446H227.166C227.404 34.6446 227.622 34.6703 227.821 34.7152C228.014 34.7666 228.181 34.8438 228.322 34.9531C228.458 35.0622 228.567 35.2037 228.644 35.3773C228.715 35.5572 228.753 35.7757 228.753 36.0264C228.753 36.2642 228.708 36.4698 228.624 36.6433C228.541 36.8169 228.413 36.9648 228.252 37.0803C228.091 37.1959 227.898 37.2795 227.674 37.3309L228.663 39.1881H228.258L227.294 37.3952H225.861V39.1881H225.495V39.188ZM225.861 37.0673H226.986C227.166 37.0673 227.339 37.0545 227.506 37.0224C227.674 36.9966 227.821 36.9451 227.956 36.8681C228.085 36.791 228.188 36.6817 228.265 36.5404C228.336 36.4054 228.374 36.2255 228.374 36.007C228.38 35.7435 228.329 35.5315 228.22 35.3837C228.111 35.2358 227.956 35.1266 227.77 35.0688C227.577 35.0109 227.352 34.9788 227.102 34.9788H225.861V37.0674L225.861 37.0673ZM230.758 39.188V34.9788H229.235V34.6447H232.647V34.9788H231.125V39.188H230.758H230.758Z" fill="#FE830C"/>
<path d="M63.2908 47.1667C62.8218 47.1667 62.4299 47.064 62.1149 46.8648C61.8 46.6656 61.5622 46.3892 61.4015 46.0356C61.2409 45.6887 61.1638 45.2903 61.1638 44.8468C61.1638 44.4035 61.2473 44.005 61.408 43.6515C61.5686 43.2981 61.8064 43.0218 62.1214 42.8227C62.4361 42.6234 62.8218 42.5205 63.2908 42.5205C63.76 42.5205 64.152 42.6234 64.4669 42.8227C64.7819 43.0282 65.0132 43.3045 65.1739 43.6515C65.3344 44.0051 65.4117 44.4036 65.4117 44.8468C65.4117 45.2903 65.3344 45.6822 65.1739 46.0356C65.0132 46.3892 64.7754 46.6655 64.4605 46.8648C64.1456 47.064 63.76 47.1667 63.2908 47.1667ZM63.2908 46.8455C63.683 46.8455 64.0107 46.7554 64.2677 46.5756C64.5247 46.3956 64.7176 46.1514 64.8397 45.8493C64.9617 45.5472 65.0262 45.213 65.0262 44.8468C65.0262 44.5704 64.994 44.3135 64.9232 44.0693C64.8524 43.8317 64.7433 43.6194 64.6017 43.4331C64.4604 43.2467 64.2805 43.1052 64.0621 42.9961C63.8435 42.8933 63.5866 42.842 63.2908 42.842C62.8989 42.842 62.5712 42.9319 62.314 43.1184C62.0506 43.3047 61.8577 43.5425 61.7357 43.8445C61.6072 44.1464 61.5429 44.4807 61.5429 44.8469C61.5429 45.2069 61.6072 45.5411 61.7357 45.8431C61.8642 46.1451 62.0571 46.3893 62.3204 46.5693C62.5775 46.7556 62.8988 46.8457 63.2907 46.8457L63.2908 46.8455ZM66.3306 47.1153V42.5719H69.2997V42.906H66.697V44.8531H68.9397V45.1872H66.697V47.1152H66.3306V47.1153ZM73.4639 47.1666C73.2004 47.1666 72.9497 47.1344 72.712 47.0639C72.4678 46.9931 72.2557 46.8775 72.0758 46.7168C71.8957 46.5561 71.7673 46.3441 71.6901 46.0806H72.0886C72.1721 46.2671 72.2814 46.4212 72.4292 46.5304C72.577 46.6397 72.7377 46.7232 72.924 46.7681C73.104 46.8196 73.2838 46.8454 73.4638 46.8454C73.663 46.8454 73.8557 46.8132 74.0421 46.7489C74.2286 46.6911 74.3762 46.5948 74.4919 46.4661C74.6078 46.3375 74.6656 46.1706 74.6656 45.9585C74.6656 45.7914 74.6335 45.6565 74.5692 45.5537C74.4984 45.451 74.4084 45.3673 74.2993 45.303C74.1837 45.2451 74.0486 45.1938 73.9009 45.1488C73.7915 45.1167 73.6759 45.0847 73.5602 45.0526C73.4446 45.0268 73.3352 45.0012 73.2261 44.9688C73.1168 44.9367 73.0075 44.9046 72.9112 44.8725C72.7764 44.834 72.6477 44.789 72.5192 44.7312C72.3843 44.6733 72.2685 44.6026 72.1722 44.5191C72.0695 44.4356 71.9858 44.3263 71.928 44.2041C71.8638 44.0821 71.8318 43.9278 71.8318 43.7479C71.8318 43.5615 71.8575 43.401 71.9153 43.266C71.9732 43.131 72.0502 43.0153 72.1531 42.919C72.256 42.8228 72.3717 42.7455 72.5065 42.6876C72.6415 42.6298 72.7829 42.5912 72.9371 42.559C73.0849 42.5333 73.2391 42.5204 73.3998 42.5204C73.644 42.5204 73.8755 42.5525 74.0875 42.6233C74.2995 42.694 74.4794 42.8032 74.6272 42.9574C74.775 43.1115 74.8713 43.3172 74.9101 43.5808H74.5373C74.4922 43.3944 74.4152 43.253 74.2995 43.1439C74.1775 43.0346 74.0424 42.9574 73.8817 42.9125C73.7211 42.8675 73.5604 42.8418 73.3932 42.8418C73.2584 42.8418 73.1235 42.8547 72.9885 42.8804C72.8536 42.9125 72.725 42.9574 72.6093 43.0217C72.4936 43.0859 72.3973 43.1696 72.3266 43.2788C72.2559 43.388 72.2173 43.5294 72.2173 43.6965C72.2173 43.8634 72.256 43.9985 72.3266 44.1077C72.3973 44.2171 72.4872 44.3006 72.6029 44.3648C72.7122 44.4291 72.8406 44.4869 72.9821 44.5319C73.1686 44.5897 73.3676 44.6411 73.567 44.6862C73.766 44.7311 73.9589 44.7889 74.1389 44.8467C74.2674 44.8853 74.3895 44.9366 74.4986 44.9944C74.608 45.0588 74.7042 45.136 74.7878 45.2194C74.8713 45.303 74.9357 45.3994 74.9805 45.5087C75.0256 45.6178 75.0513 45.7465 75.0513 45.8813C75.0513 46.1192 75.0064 46.3183 74.9227 46.479C74.8327 46.6397 74.7107 46.7745 74.5629 46.8775C74.4151 46.9802 74.2416 47.0509 74.0552 47.096C73.8689 47.1473 73.6696 47.1666 73.464 47.1666H73.4639Z" fill="#FE830C"/>
<path d="M77.024 47.1145V42.9052H75.501V42.571H78.9133V42.9052H77.3903V47.1145H77.024Z" fill="#FE830C"/>
<path d="M78.7974 47.1145L80.5518 42.571H81.0209L82.7882 47.1145H82.3768L81.9784 46.0925H79.5943L79.2023 47.1145H78.7975H78.7974ZM79.7163 45.7648H81.8563L80.7895 42.9501L79.7163 45.7648Z" fill="#FE830C"/>
<path d="M84.1953 47.1153V42.9061H82.6724V42.572H86.0847V42.9061H84.5618V47.1153H84.1954H84.1953ZM86.7853 47.1153V42.5719H89.7543V42.906H87.1516V44.6924H89.4907V45.0266H87.1516V46.7809H89.7543V47.1151H86.7853V47.1153ZM92.4083 47.1153V42.5719H92.7746V47.1153H92.4083ZM93.9442 47.1153V42.5719H94.4454L97.1831 46.6526V42.5719H97.5495V47.1153H97.0676L94.3106 43.0345V47.1153H93.9443H93.9442ZM98.719 47.1153V42.5719H101.688V42.906H99.0853V44.8531H101.328V45.1872H99.0853V47.1152H98.719V47.1153ZM104.413 47.1666C103.944 47.1666 103.552 47.0639 103.237 46.8647C102.922 46.6655 102.684 46.3891 102.523 46.0355C102.363 45.6886 102.286 45.2902 102.286 44.8467C102.286 44.4034 102.369 44.0049 102.53 43.6514C102.69 43.298 102.928 43.0217 103.243 42.8226C103.558 42.6233 103.944 42.5204 104.413 42.5204C104.882 42.5204 105.274 42.6233 105.589 42.8226C105.904 43.0281 106.135 43.3044 106.296 43.6514C106.456 44.005 106.534 44.4035 106.534 44.8467C106.534 45.2902 106.456 45.6821 106.296 46.0355C106.135 46.3891 105.897 46.6654 105.582 46.8647C105.267 47.0639 104.882 47.1666 104.413 47.1666ZM104.413 46.8454C104.805 46.8454 105.132 46.7553 105.39 46.5755C105.647 46.3955 105.839 46.1513 105.962 45.8492C106.084 45.5471 106.148 45.2129 106.148 44.8467C106.148 44.5703 106.116 44.3134 106.045 44.0692C105.974 43.8315 105.865 43.6193 105.724 43.433C105.582 43.2466 105.402 43.1051 105.184 42.996C104.965 42.8932 104.708 42.8419 104.413 42.8419C104.021 42.8419 103.693 42.9318 103.436 43.1183C103.172 43.3046 102.98 43.5424 102.857 43.8444C102.729 44.1463 102.665 44.4806 102.665 44.8468C102.665 45.2068 102.729 45.541 102.857 45.843C102.986 46.145 103.179 46.3892 103.442 46.5692C103.699 46.7555 104.021 46.8456 104.413 46.8456L104.413 46.8454ZM107.452 47.1152V42.5718H109.123C109.361 42.5718 109.58 42.5975 109.779 42.6423C109.971 42.6938 110.139 42.771 110.28 42.8803C110.415 42.9894 110.524 43.1307 110.601 43.3044C110.672 43.4843 110.711 43.7029 110.711 43.9536C110.711 44.1913 110.666 44.3969 110.582 44.5704C110.498 44.7441 110.37 44.8918 110.209 45.0075C110.049 45.1231 109.856 45.2067 109.631 45.2581L110.621 47.1153H110.216L109.252 45.3223H107.819V47.1153H107.452V47.1152ZM107.819 44.9943H108.944C109.123 44.9943 109.297 44.9817 109.464 44.9495C109.631 44.9238 109.779 44.8723 109.914 44.7953C110.042 44.7181 110.145 44.6088 110.222 44.4676C110.293 44.3326 110.332 44.1526 110.332 43.9342C110.338 43.6707 110.287 43.4586 110.177 43.3109C110.068 43.1629 109.914 43.0537 109.727 42.9959C109.535 42.9381 109.31 42.906 109.059 42.906H107.819V44.9944L107.819 44.9943ZM111.662 47.1152V42.5718H112.202L113.802 45.3414L115.376 42.5718H115.903V47.1152H115.537V42.983L113.885 45.8813H113.705L112.028 42.983V47.1152H111.662H111.662ZM116.578 47.1152L118.332 42.5718H118.802L120.569 47.1152H120.158L119.759 46.0932H117.375L116.983 47.1152H116.578H116.578ZM117.497 45.7656H119.637L118.57 42.9509L117.497 45.7656Z" fill="#FE830C"/>
<path d="M121.974 47.1154V42.9062H120.451V42.5721H123.864V42.9062H122.341V47.1154H121.974H121.974ZM124.564 47.1154V42.572H124.93V47.1154H124.564ZM127.977 47.1667C127.507 47.1667 127.115 47.064 126.8 46.8648C126.486 46.6656 126.248 46.3892 126.087 46.0356C125.927 45.6888 125.849 45.2903 125.849 44.8468C125.849 44.4035 125.933 44.005 126.094 43.6515C126.254 43.2981 126.492 43.0218 126.807 42.8227C127.122 42.6234 127.507 42.5205 127.977 42.5205C128.446 42.5205 128.838 42.6234 129.153 42.8227C129.468 43.0282 129.699 43.3045 129.86 43.6515C130.02 44.0051 130.097 44.4036 130.097 44.8468C130.097 45.2903 130.02 45.6822 129.86 46.0356C129.699 46.3892 129.461 46.6655 129.146 46.8648C128.831 47.064 128.446 47.1667 127.977 47.1667ZM127.977 46.8455C128.369 46.8455 128.696 46.7554 128.953 46.5756C129.21 46.3956 129.403 46.1514 129.525 45.8493C129.647 45.5472 129.712 45.213 129.712 44.8468C129.712 44.5704 129.68 44.3135 129.609 44.0693C129.538 43.8317 129.429 43.6194 129.287 43.4331C129.146 43.2467 128.966 43.1052 128.748 42.9961C128.529 42.8933 128.272 42.842 127.977 42.842C127.585 42.842 127.257 42.9319 127 43.1184C126.736 43.3047 126.543 43.5425 126.421 43.8445C126.293 44.1464 126.229 44.4807 126.229 44.8469C126.229 45.2069 126.293 45.5411 126.421 45.8431C126.55 46.1451 126.743 46.3893 127.006 46.5693C127.263 46.7556 127.584 46.8457 127.976 46.8457L127.977 46.8455ZM131.016 47.1153V42.5719H131.517L134.255 46.6526V42.5719H134.622V47.1153H134.14L131.383 43.0345V47.1153H131.016H131.016ZM139.107 47.1666C138.844 47.1666 138.593 47.1344 138.355 47.0639C138.111 46.9931 137.899 46.8775 137.719 46.7168C137.539 46.5561 137.41 46.3441 137.333 46.0806H137.732C137.815 46.2671 137.925 46.4212 138.072 46.5304C138.22 46.6397 138.381 46.7232 138.567 46.7681C138.747 46.8196 138.927 46.8454 139.107 46.8454C139.306 46.8454 139.499 46.8132 139.685 46.7489C139.872 46.6911 140.019 46.5948 140.135 46.4661C140.251 46.3375 140.309 46.1706 140.309 45.9585C140.309 45.7914 140.277 45.6565 140.212 45.5537C140.142 45.451 140.052 45.3673 139.942 45.303C139.827 45.2451 139.692 45.1938 139.544 45.1488C139.435 45.1167 139.319 45.0847 139.203 45.0526C139.088 45.0268 138.978 45.0012 138.869 44.9688C138.76 44.9367 138.651 44.9046 138.554 44.8725C138.42 44.834 138.291 44.789 138.162 44.7312C138.027 44.6733 137.912 44.6025 137.815 44.5191C137.713 44.4356 137.629 44.3263 137.571 44.2041C137.507 44.0821 137.475 43.9278 137.475 43.7479C137.475 43.5615 137.501 43.401 137.559 43.266C137.616 43.131 137.693 43.0153 137.796 42.919C137.899 42.8228 138.015 42.7455 138.15 42.6876C138.285 42.6298 138.426 42.5912 138.58 42.559C138.728 42.5333 138.882 42.5204 139.043 42.5204C139.287 42.5204 139.519 42.5525 139.731 42.6233C139.943 42.694 140.123 42.8032 140.27 42.9574C140.418 43.1115 140.515 43.3172 140.553 43.5808H140.18C140.135 43.3944 140.058 43.253 139.943 43.1439C139.821 43.0346 139.686 42.9574 139.525 42.9125C139.364 42.8675 139.204 42.8418 139.036 42.8418C138.902 42.8418 138.767 42.8547 138.632 42.8804C138.497 42.9125 138.368 42.9574 138.253 43.0217C138.137 43.0859 138.04 43.1696 137.97 43.2788C137.899 43.388 137.861 43.5294 137.861 43.6965C137.861 43.8634 137.899 43.9985 137.97 44.1077C138.04 44.217 138.13 44.3006 138.246 44.3648C138.355 44.4291 138.484 44.4869 138.625 44.5319C138.812 44.5897 139.011 44.6411 139.21 44.6862C139.409 44.7311 139.602 44.7889 139.782 44.8467C139.911 44.8853 140.033 44.9366 140.142 44.9945C140.251 45.0588 140.347 45.136 140.431 45.2194C140.515 45.303 140.579 45.3994 140.624 45.5087C140.669 45.6178 140.694 45.7465 140.694 45.8813C140.694 46.1192 140.65 46.3183 140.566 46.479C140.476 46.6397 140.354 46.7745 140.206 46.8775C140.058 46.9802 139.885 47.0509 139.698 47.096C139.512 47.1473 139.313 47.1666 139.107 47.1666H139.107Z" fill="#FE830C"/>
<path d="M142.692 47.1145V45.405L141.079 42.571H141.516L142.878 45.0323L144.24 42.571H144.658L143.058 45.3986V47.1145H142.692Z" fill="#FE830C"/>
<path d="M146.812 47.1666C146.548 47.1666 146.297 47.1344 146.06 47.0639C145.816 46.9931 145.603 46.8775 145.424 46.7168C145.243 46.5561 145.115 46.3441 145.038 46.0806H145.436C145.52 46.2671 145.629 46.4212 145.777 46.5304C145.925 46.6397 146.085 46.7232 146.272 46.7681C146.452 46.8196 146.632 46.8454 146.812 46.8454C147.011 46.8454 147.203 46.8132 147.39 46.7489C147.576 46.6911 147.724 46.5948 147.84 46.4661C147.955 46.3375 148.013 46.1706 148.013 45.9585C148.013 45.7914 147.981 45.6565 147.917 45.5537C147.846 45.451 147.756 45.3673 147.647 45.303C147.531 45.2451 147.396 45.1938 147.249 45.1488C147.139 45.1167 147.024 45.0847 146.908 45.0526C146.792 45.0268 146.683 45.0012 146.574 44.9688C146.465 44.9367 146.355 44.9046 146.259 44.8725C146.124 44.834 145.996 44.789 145.867 44.7312C145.732 44.6733 145.616 44.6025 145.52 44.5191C145.417 44.4356 145.334 44.3263 145.276 44.2041C145.211 44.0821 145.18 43.9278 145.18 43.7479C145.18 43.5615 145.205 43.401 145.263 43.266C145.321 43.131 145.398 43.0153 145.501 42.919C145.604 42.8228 145.719 42.7455 145.854 42.6876C145.989 42.6298 146.131 42.5912 146.285 42.559C146.433 42.5333 146.587 42.5204 146.748 42.5204C146.992 42.5204 147.223 42.5525 147.435 42.6233C147.647 42.694 147.827 42.8032 147.975 42.9574C148.123 43.1115 148.219 43.3172 148.258 43.5808H147.885C147.84 43.3944 147.763 43.253 147.647 43.1439C147.525 43.0346 147.39 42.9574 147.229 42.9125C147.069 42.8675 146.908 42.8418 146.741 42.8418C146.606 42.8418 146.471 42.8547 146.336 42.8804C146.201 42.9125 146.073 42.9574 145.957 43.0217C145.841 43.0859 145.745 43.1696 145.674 43.2788C145.604 43.388 145.565 43.5294 145.565 43.6965C145.565 43.8634 145.604 43.9985 145.674 44.1077C145.745 44.217 145.835 44.3006 145.951 44.3648C146.06 44.4291 146.188 44.4869 146.33 44.5319C146.516 44.5897 146.715 44.6411 146.915 44.6862C147.114 44.7311 147.307 44.7889 147.487 44.8467C147.615 44.8853 147.737 44.9366 147.846 44.9944C147.956 45.0588 148.052 45.136 148.136 45.2194C148.219 45.303 148.283 45.3994 148.328 45.5087C148.373 45.6178 148.399 45.7465 148.399 45.8813C148.399 46.1192 148.354 46.3183 148.27 46.479C148.181 46.6397 148.058 46.7745 147.911 46.8775C147.763 46.9802 147.589 47.0509 147.403 47.096C147.217 47.1473 147.017 47.1666 146.812 47.1666H146.812Z" fill="#FE830C"/>
<path d="M150.37 47.1153V42.9061H148.847V42.572H152.259V42.9061H150.737V47.1153H150.37H150.37ZM152.96 47.1153V42.5719H155.929V42.906H153.326V44.6924H155.666V45.0266H153.326V46.7809H155.929V47.1151H152.96V47.1153ZM156.848 47.1153V42.5719H157.388L158.988 45.3415L160.562 42.5719H161.089V47.1153H160.723V42.9831L159.072 45.8814H158.892L157.214 42.9831V47.1153H156.848H156.848ZM163.84 47.1666C163.576 47.1666 163.326 47.1344 163.088 47.0639C162.844 46.9931 162.632 46.8775 162.452 46.7168C162.272 46.5561 162.143 46.3441 162.066 46.0806H162.465C162.548 46.2671 162.658 46.4212 162.805 46.5304C162.953 46.6397 163.114 46.7232 163.3 46.7681C163.48 46.8196 163.66 46.8454 163.84 46.8454C164.039 46.8454 164.232 46.8132 164.418 46.7489C164.605 46.6911 164.752 46.5948 164.868 46.4661C164.984 46.3375 165.042 46.1706 165.042 45.9585C165.042 45.7914 165.009 45.6565 164.945 45.5537C164.875 45.451 164.784 45.3673 164.675 45.303C164.56 45.2451 164.425 45.1938 164.277 45.1488C164.168 45.1167 164.052 45.0847 163.936 45.0526C163.821 45.0268 163.711 45.0012 163.602 44.9688C163.493 44.9367 163.384 44.9046 163.287 44.8725C163.152 44.834 163.024 44.789 162.895 44.7312C162.76 44.6733 162.645 44.6026 162.548 44.5191C162.446 44.4356 162.362 44.3263 162.304 44.2041C162.24 44.0821 162.208 43.9278 162.208 43.7479C162.208 43.5615 162.234 43.401 162.291 43.266C162.349 43.131 162.426 43.0153 162.529 42.919C162.632 42.8228 162.748 42.7455 162.883 42.6876C163.018 42.6298 163.159 42.5912 163.313 42.559C163.461 42.5333 163.615 42.5204 163.776 42.5204C164.02 42.5204 164.252 42.5525 164.464 42.6233C164.676 42.694 164.856 42.8032 165.003 42.9574C165.151 43.1115 165.247 43.3172 165.286 43.5808H164.913C164.868 43.3944 164.791 43.253 164.676 43.1439C164.554 43.0346 164.419 42.9574 164.258 42.9125C164.097 42.8675 163.936 42.8418 163.769 42.8418C163.634 42.8418 163.499 42.8547 163.365 42.8804C163.23 42.9125 163.101 42.9574 162.985 43.0217C162.87 43.0859 162.773 43.1696 162.703 43.2788C162.632 43.388 162.593 43.5294 162.593 43.6965C162.593 43.8634 162.632 43.9985 162.703 44.1077C162.773 44.2171 162.863 44.3006 162.979 44.3648C163.088 44.4291 163.217 44.4869 163.358 44.5319C163.545 44.5897 163.744 44.6411 163.943 44.6862C164.142 44.7311 164.335 44.7889 164.515 44.8467C164.643 44.8853 164.766 44.9366 164.875 44.9944C164.984 45.0588 165.08 45.136 165.164 45.2194C165.247 45.303 165.312 45.3994 165.357 45.5087C165.402 45.6178 165.427 45.7465 165.427 45.8813C165.427 46.1192 165.382 46.3183 165.299 46.479C165.209 46.6397 165.087 46.7745 164.939 46.8775C164.791 46.9802 164.618 47.0509 164.431 47.096C164.245 47.1473 164.046 47.1666 163.84 47.1666H163.84Z" fill="#FE830C"/>
<path d="M80.5909 21.2131C80.5909 23.9053 79.7393 25.9656 78.0635 27.3667C76.3877 28.7952 73.9703 29.5094 70.8661 29.5094C67.7343 29.5094 65.3168 28.7952 63.641 27.3667C61.9378 25.9656 61.0862 23.9053 61.0862 21.2131V10.0047H65.564V21.5702C65.564 22.6142 65.7562 23.4109 66.1134 23.9604C66.4705 24.5372 67.0475 24.9218 67.7892 25.1141C68.5308 25.334 69.5748 25.4437 70.866 25.4437C72.1571 25.4437 73.201 25.334 73.9427 25.1141C74.6844 24.8942 75.2615 24.5096 75.6185 23.9328C75.9756 23.3834 76.1404 22.5866 76.1404 21.5702V10.0047H80.5908V21.2131H80.5909ZM83.4205 24.9768L94.2994 13.9332H83.7227V10.0047H100.316V14.4002L89.382 25.3065H100.59V29.2349H83.4205V24.9768ZM103.667 10.0047H108.255V29.2348H103.667V10.0047ZM112.568 10.0047H118.529L126.194 20.6912L128.007 23.2735H128.117L128.089 20.7462V10.0047H132.54V29.2348H126.826L118.941 18.1362L117.101 15.499H116.991L117.018 18.1362V29.2348H112.568V10.0047ZM141.303 14.0979V17.999H150.451V21.9548H141.303V29.2348H136.825V10.0047H151.358V14.0979H141.303ZM164.819 29.5094C162.649 29.5094 160.698 29.0974 159.022 28.3009C157.347 27.5042 156.028 26.3778 155.094 24.8943C154.132 23.411 153.665 21.6801 153.665 19.6748C153.665 17.6693 154.132 15.9111 155.094 14.4002C156.028 12.8892 157.347 11.7354 159.05 10.9389C160.726 10.1422 162.649 9.73015 164.819 9.73015C166.989 9.73015 168.94 10.1423 170.616 10.9389C172.291 11.7355 173.582 12.8893 174.516 14.4002C175.45 15.9112 175.917 17.6693 175.917 19.6748C175.917 21.6801 175.45 23.411 174.516 24.8943C173.555 26.3778 172.264 27.5042 170.588 28.3009C168.912 29.0975 166.989 29.5094 164.819 29.5094ZM164.819 25.4437C167.072 25.4437 168.72 24.9767 169.764 24.0427C170.78 23.1361 171.302 21.6527 171.302 19.6199C171.302 18.1363 171.082 16.9825 170.616 16.131C170.148 15.2794 169.462 14.675 168.528 14.3179C167.594 13.9608 166.357 13.7957 164.819 13.7957C163.281 13.7957 162.044 13.9607 161.11 14.3179C160.149 14.6749 159.462 15.2794 158.995 16.131C158.528 16.9825 158.308 18.1363 158.308 19.6199C158.308 21.1309 158.528 22.312 158.995 23.1637C159.462 24.0154 160.149 24.5922 161.083 24.9219C162.017 25.279 163.253 25.4438 164.819 25.4438L164.819 25.4437ZM188.966 29.5094C186.769 29.5094 184.818 29.0974 183.143 28.3009C181.439 27.5042 180.121 26.3778 179.186 24.8943C178.225 23.411 177.758 21.6801 177.758 19.6748C177.758 17.6418 178.198 15.8838 179.104 14.3727C180.011 12.8892 181.302 11.7354 182.978 10.9388C184.653 10.1421 186.659 9.73004 188.966 9.73004C191.851 9.73004 194.159 10.4167 195.917 11.7629C197.647 13.1365 198.719 15.1692 199.131 17.834L194.653 18.6857L194.598 18.6583C194.378 17.3394 194.104 16.3507 193.747 15.6637C193.389 14.9771 192.867 14.5099 192.153 14.2078C191.411 13.9331 190.368 13.7956 188.966 13.7956C187.291 13.7956 185.999 13.9606 185.066 14.3177C184.104 14.6748 183.445 15.2793 183.033 16.1309C182.621 16.9824 182.401 18.1362 182.401 19.6198C182.401 21.1308 182.621 22.2844 183.033 23.136C183.445 23.9877 184.131 24.5647 185.093 24.9217C186.027 25.2788 187.318 25.4436 188.966 25.4436C190.368 25.4436 191.411 25.2789 192.153 24.9766C192.895 24.6745 193.417 24.2073 193.774 23.5206C194.131 22.8339 194.406 21.845 194.598 20.5537L194.653 20.5263L199.131 21.3777C198.719 24.07 197.648 26.103 195.917 27.4491C194.159 28.8227 191.851 29.5093 188.966 29.5093V29.5094ZM212.537 29.5094C210.367 29.5094 208.416 29.0974 206.741 28.3009C205.065 27.5042 203.746 26.3778 202.812 24.8943C201.851 23.411 201.384 21.6801 201.384 19.6748C201.384 17.6693 201.851 15.9111 202.812 14.4002C203.746 12.8892 205.065 11.7354 206.768 10.9389C208.444 10.1422 210.367 9.73015 212.537 9.73015C214.707 9.73015 216.658 10.1423 218.334 10.9389C220.009 11.7355 221.301 12.8893 222.235 14.4002C223.169 15.9112 223.636 17.6693 223.636 19.6748C223.636 21.6801 223.169 23.411 222.235 24.8943C221.273 26.3778 219.982 27.5042 218.306 28.3009C216.63 29.0975 214.707 29.5094 212.537 29.5094ZM212.537 25.4437C214.79 25.4437 216.438 24.9767 217.482 24.0427C218.499 23.1361 219.02 21.6527 219.02 19.6199C219.02 18.1363 218.801 16.9825 218.334 16.131C217.867 15.2794 217.18 14.675 216.246 14.3179C215.312 13.9608 214.076 13.7957 212.537 13.7957C210.999 13.7957 209.763 13.9607 208.828 14.3179C207.867 14.6749 207.18 15.2794 206.713 16.131C206.246 16.9825 206.027 18.1363 206.027 19.6199C206.027 21.1309 206.246 22.312 206.713 23.1637C207.18 24.0154 207.867 24.5922 208.801 24.9219C209.735 25.279 210.971 25.4438 212.537 25.4438L212.537 25.4437ZM226.712 10.0047H234.295L238.251 21.2681L239.459 25.1965L240.668 21.2681L244.597 10.0047H252.151V29.2348H247.866V18.0264L247.921 14.1528H247.811L246.41 18.0264L242.234 29.2348H236.685L232.482 18.0264L231.108 14.1528H230.998L231.026 18.0264V29.2348H226.713V10.0047H226.712Z" fill="#FE830C"/>
<path fill-rule="evenodd" clip-rule="evenodd" d="M51.3177 0.765774H7.4779C3.8317 0.765774 0.848633 3.74873 0.848633 7.39503V8.86873C2.04784 9.05203 3.37947 9.40595 4.8221 9.91757C9.3647 11.5292 15.0206 14.7145 21.0933 19.1122C26.0287 15.4353 30.5703 12.8048 34.2543 11.4991C37.8526 10.2235 40.6458 10.2087 42.208 11.7091C43.9778 13.4076 43.9068 16.8041 42.3283 21.2526C40.7159 25.7954 37.5308 31.4512 33.1334 37.5238C36.8107 42.4593 39.4405 47.0012 40.7461 50.6853C40.8125 50.8706 40.8742 51.0533 40.9331 51.2344H44.6883C48.3344 51.2344 51.3176 48.252 51.3176 44.6058V0.765564L51.3177 0.765774ZM0.848633 28.5997V44.6052C0.848633 47.0854 2.22873 49.2578 4.25875 50.3938C5.8059 50.4394 7.6781 50.0597 9.80717 49.2941C14.1475 47.735 19.5474 44.5769 25.4526 40.1551C25.4992 40.1195 25.5666 40.1295 25.6027 40.1763C25.6353 40.2199 25.6295 40.2816 25.5909 40.3188C23.9274 41.9051 22.27 43.4059 20.6348 44.8128C18.9699 46.2447 17.327 47.58 15.7225 48.8081L15.7218 48.8088L14.7852 49.5164L14.7848 49.517L14.7836 49.5177L14.7829 49.5182C13.9777 50.1188 13.1827 50.6914 12.3988 51.234H32.8631C34.3785 49.4893 34.2927 46.4132 32.8645 42.438C31.305 38.0978 28.1467 32.6981 23.725 26.7924C23.6893 26.7456 23.6989 26.6775 23.7461 26.642C23.7899 26.6095 23.8515 26.6154 23.8882 26.6539H23.8888C25.4748 28.3176 26.9765 29.9753 28.3835 31.6105C29.775 33.2286 31.0753 34.8261 32.2752 36.388C34.3529 32.3365 35.693 28.7429 36.1716 25.841C36.6338 23.036 36.2912 20.8825 35.031 19.5951C33.3336 17.8617 30.1613 17.8882 26.0073 19.381C21.667 20.9405 16.2678 24.098 10.3622 28.52C10.3153 28.5554 10.2482 28.546 10.2118 28.4986C10.1795 28.4549 10.1853 28.3933 10.2242 28.3566H10.2238C11.8868 26.7712 13.5435 25.2701 15.1781 23.8644C16.7962 22.4717 18.3955 21.1713 19.9578 19.9709C15.9062 17.8931 12.3126 16.5524 9.41097 16.0738C6.60544 15.6111 4.45224 15.9538 3.16479 17.2144C1.43077 18.9119 1.45815 22.0843 2.95074 26.2374C4.50974 30.5777 7.66793 35.9776 12.0898 41.8821C12.1255 41.9293 12.1151 41.9969 12.0678 42.0324C12.0247 42.0655 11.963 42.0596 11.9259 42.0205V42.0212C10.3403 40.358 8.83996 38.7014 7.43373 37.0668C6.00138 35.4014 4.66534 33.7578 3.43718 32.1527L3.43655 32.1521L2.72861 31.2156L2.72777 31.215L2.72745 31.2138L2.72651 31.2132C2.06631 30.3286 1.44042 29.4566 0.848843 28.5999L0.848633 28.5997Z" fill="#4C51C6"/>
</svg>
