<svg width="64" height="64" viewBox="0 0 64 64" fill="none" xmlns="http://www.w3.org/2000/svg">
<g clip-path="url(#clip0_1767_13824)">
<path d="M13.3359 18.6667C13.3359 21.4956 14.4597 24.2088 16.4601 26.2091C18.4605 28.2095 21.1736 29.3333 24.0026 29.3333C26.8316 29.3333 29.5447 28.2095 31.5451 26.2091C33.5455 24.2088 34.6693 21.4956 34.6693 18.6667C34.6693 15.8377 33.5455 13.1246 31.5451 11.1242C29.5447 9.12381 26.8316 8 24.0026 8C21.1736 8 18.4605 9.12381 16.4601 11.1242C14.4597 13.1246 13.3359 15.8377 13.3359 18.6667Z" stroke="#1C7AB0" stroke-width="4" stroke-linecap="round" stroke-linejoin="round"/>
<path d="M8 56V50.6667C8 47.8377 9.12381 45.1246 11.1242 43.1242C13.1246 41.1238 15.8377 40 18.6667 40H29.3333C32.1623 40 34.8754 41.1238 36.8758 43.1242C38.8762 45.1246 40 47.8377 40 50.6667V56" stroke="#1C7AB0" stroke-width="4" stroke-linecap="round" stroke-linejoin="round"/>
<path d="M42.6641 8.34668C44.9585 8.93415 46.9922 10.2685 48.4444 12.1395C49.8967 14.0105 50.685 16.3116 50.685 18.68C50.685 21.0485 49.8967 23.3496 48.4444 25.2205C46.9922 27.0915 44.9585 28.4259 42.6641 29.0133" stroke="#1C7AB0" stroke-width="4" stroke-linecap="round" stroke-linejoin="round"/>
<path d="M56 55.9999V50.6666C55.9865 48.3123 55.1944 46.0287 53.7474 44.1716C52.3003 42.3146 50.2795 40.9884 48 40.3999" stroke="#1C7AB0" stroke-width="4" stroke-linecap="round" stroke-linejoin="round"/>
</g>
<defs>
<clipPath id="clip0_1767_13824">
<rect width="64" height="64" fill="white"/>
</clipPath>
</defs>
</svg>
